<?xml version="1.0" encoding="UTF-8" standalone="no"?>
<!DOCTYPE svg PUBLIC "-//W3C//DTD SVG 1.1//EN"
 "http://www.w3.org/Graphics/SVG/1.1/DTD/svg11.dtd">
<!-- Generated by graphviz version 2.40.1 (20161225.0304)
 -->
<!-- Title: blocklist_role Pages: 1 -->
<svg width="602pt" height="382pt"
 viewBox="0.00 0.00 601.50 382.00" xmlns="http://www.w3.org/2000/svg" xmlns:xlink="http://www.w3.org/1999/xlink">
<g id="graph0" class="graph" transform="scale(1 1) rotate(0) translate(4 378)">
<title>blocklist_role</title>
<polygon fill="#ffffff" stroke="transparent" points="-4,4 -4,-378 597.5,-378 597.5,4 -4,4"/>
<!-- blocklist_role -->
<g id="node1" class="node">
<title>blocklist_role</title>
<polygon fill="#efefef" stroke="transparent" points="326,-292.5 326,-327.5 541,-327.5 541,-292.5 326,-292.5"/>
<polygon fill="none" stroke="#000000" points="326,-292.5 326,-327.5 541,-327.5 541,-292.5 326,-292.5"/>
<text text-anchor="start" x="332.872" y="-305.3" font-family="Arial Bold" font-size="18.00" fill="#000000">blocklist_role</text>
<text text-anchor="start" x="436.8742" y="-305.3" font-family="Arial" font-size="14.00" fill="#000000"> </text>
<text text-anchor="start" x="440.7648" y="-305.3" font-family="Arial" font-size="14.00" fill="#666666">[BASE TABLE]</text>
<polygon fill="none" stroke="#000000" points="326,-262.5 326,-292.5 541,-292.5 541,-262.5 326,-262.5"/>
<text text-anchor="start" x="333" y="-273.9" font-family="Arial" font-size="14.00" fill="#000000">server_id </text>
<text text-anchor="start" x="394.4488" y="-273.9" font-family="Arial" font-size="14.00" fill="#666666">[bigint(20)]</text>
<polygon fill="none" stroke="#000000" points="326,-232.5 326,-262.5 541,-262.5 541,-232.5 326,-232.5"/>
<text text-anchor="start" x="333" y="-243.9" font-family="Arial" font-size="14.00" fill="#000000">role_id </text>
<text text-anchor="start" x="378.8948" y="-243.9" font-family="Arial" font-size="14.00" fill="#666666">[bigint(20)]</text>
<polygon fill="none" stroke="#000000" stroke-width="3" points="324,-231.5 324,-329.5 542,-329.5 542,-231.5 324,-231.5"/>
</g>
<!-- blocklist_server -->
<g id="node2" class="node">
<title>blocklist_server</title>
<polygon fill="#efefef" stroke="transparent" points="316,-72.5 316,-107.5 551,-107.5 551,-72.5 316,-72.5"/>
<polygon fill="none" stroke="#000000" points="316,-72.5 316,-107.5 551,-107.5 551,-72.5 316,-72.5"/>
<text text-anchor="start" x="322.873" y="-85.3" font-family="Arial Bold" font-size="18.00" fill="#000000">blocklist_server</text>
<text text-anchor="start" x="446.8732" y="-85.3" font-family="Arial" font-size="14.00" fill="#000000"> </text>
<text text-anchor="start" x="450.7638" y="-85.3" font-family="Arial" font-size="14.00" fill="#666666">[BASE TABLE]</text>
<polygon fill="none" stroke="#000000" points="316,-42.5 316,-72.5 551,-72.5 551,-42.5 316,-42.5"/>
<text text-anchor="start" x="323" y="-53.9" font-family="Arial" font-size="14.00" fill="#000000">server_id </text>
<text text-anchor="start" x="384.4488" y="-53.9" font-family="Arial" font-size="14.00" fill="#666666">[bigint(20)]</text>
</g>
<!-- blocklist_role&#45;&gt;blocklist_server -->
<g id="edge1" class="edge">
<title>blocklist_role:server_id&#45;&gt;blocklist_server:server_id</title>
<path fill="none" stroke="#000000" d="M316.0765,-275.9864C288.4669,-266.4717 302.0054,-214.4401 326,-187 404.9658,-96.6951 514.5342,-241.3049 593.5,-151 593.5,-151 434,-42.5 434,-42.5"/>
<polygon fill="#000000" stroke="#000000" points="316.1143,-275.9921 325.3215,-281.9486 321.0572,-276.7461 326,-277.5 326,-277.5 326,-277.5 321.0572,-276.7461 326.6785,-273.0514 316.1143,-275.9921 316.1143,-275.9921"/>
<text text-anchor="start" x="6.892" y="-287.5" font-family="Arial" font-size="10.00" fill="#000000">FOREIGN KEY (server_id) REFERENCES blocklist_server (server_id)</text>
</g>
</g>
</svg>
