<?xml version="1.0" encoding="UTF-8" standalone="no"?>
<!DOCTYPE svg PUBLIC "-//W3C//DTD SVG 1.1//EN"
 "http://www.w3.org/Graphics/SVG/1.1/DTD/svg11.dtd">
<!-- Generated by graphviz version 2.40.1 (20161225.0304)
 -->
<!-- Title: blocklist_reaction Pages: 1 -->
<svg width="576pt" height="562pt"
 viewBox="0.00 0.00 575.50 562.00" xmlns="http://www.w3.org/2000/svg" xmlns:xlink="http://www.w3.org/1999/xlink">
<g id="graph0" class="graph" transform="scale(1 1) rotate(0) translate(4 558)">
<title>blocklist_reaction</title>
<polygon fill="#ffffff" stroke="transparent" points="-4,4 -4,-558 571.5,-558 571.5,4 -4,4"/>
<!-- blocklist_reaction -->
<g id="node1" class="node">
<title>blocklist_reaction</title>
<polygon fill="#efefef" stroke="transparent" points="46.5,-472.5 46.5,-507.5 295.5,-507.5 295.5,-472.5 46.5,-472.5"/>
<polygon fill="none" stroke="#000000" points="46.5,-472.5 46.5,-507.5 295.5,-507.5 295.5,-472.5 46.5,-472.5"/>
<text text-anchor="start" x="53.3647" y="-485.3" font-family="Arial Bold" font-size="18.00" fill="#000000">blocklist_reaction</text>
<text text-anchor="start" x="191.3815" y="-485.3" font-family="Arial" font-size="14.00" fill="#000000"> </text>
<text text-anchor="start" x="195.2721" y="-485.3" font-family="Arial" font-size="14.00" fill="#666666">[BASE TABLE]</text>
<polygon fill="none" stroke="#000000" points="46.5,-442.5 46.5,-472.5 295.5,-472.5 295.5,-442.5 46.5,-442.5"/>
<text text-anchor="start" x="53.5" y="-453.9" font-family="Arial" font-size="14.00" fill="#000000">reaction_id </text>
<text text-anchor="start" x="125.8506" y="-453.9" font-family="Arial" font-size="14.00" fill="#666666">[int(11)]</text>
<polygon fill="none" stroke="#000000" points="46.5,-412.5 46.5,-442.5 295.5,-442.5 295.5,-412.5 46.5,-412.5"/>
<text text-anchor="start" x="53.5" y="-423.9" font-family="Arial" font-size="14.00" fill="#000000">server_id </text>
<text text-anchor="start" x="114.9488" y="-423.9" font-family="Arial" font-size="14.00" fill="#666666">[bigint(20)]</text>
<polygon fill="none" stroke="#000000" points="46.5,-382.5 46.5,-412.5 295.5,-412.5 295.5,-382.5 46.5,-382.5"/>
<text text-anchor="start" x="53.5" y="-393.9" font-family="Arial" font-size="14.00" fill="#000000">channel_id </text>
<text text-anchor="start" x="125.082" y="-393.9" font-family="Arial" font-size="14.00" fill="#666666">[bigint(20)]</text>
<polygon fill="none" stroke="#000000" points="46.5,-352.5 46.5,-382.5 295.5,-382.5 295.5,-352.5 46.5,-352.5"/>
<text text-anchor="start" x="53.5" y="-363.9" font-family="Arial" font-size="14.00" fill="#000000">user_id </text>
<text text-anchor="start" x="103.2882" y="-363.9" font-family="Arial" font-size="14.00" fill="#666666">[bigint(20)]</text>
<polygon fill="none" stroke="#000000" points="46.5,-322.5 46.5,-352.5 295.5,-352.5 295.5,-322.5 46.5,-322.5"/>
<text text-anchor="start" x="53.5" y="-333.9" font-family="Arial" font-size="14.00" fill="#000000">command </text>
<text text-anchor="start" x="118.8422" y="-333.9" font-family="Arial" font-size="14.00" fill="#666666">[varchar(100)]</text>
<polygon fill="none" stroke="#000000" points="46.5,-292.5 46.5,-322.5 295.5,-322.5 295.5,-292.5 46.5,-292.5"/>
<text text-anchor="start" x="53.5" y="-303.9" font-family="Arial" font-size="14.00" fill="#000000">mode </text>
<text text-anchor="start" x="92.399" y="-303.9" font-family="Arial" font-size="14.00" fill="#666666">[int(11)]</text>
<polygon fill="none" stroke="#000000" points="46.5,-262.5 46.5,-292.5 295.5,-292.5 295.5,-262.5 46.5,-262.5"/>
<text text-anchor="start" x="53.5" y="-273.9" font-family="Arial" font-size="14.00" fill="#000000">block_mode </text>
<text text-anchor="start" x="132.8534" y="-273.9" font-family="Arial" font-size="14.00" fill="#666666">[varchar(255)]</text>
<polygon fill="none" stroke="#000000" stroke-width="3" points="44.5,-261.5 44.5,-509.5 296.5,-509.5 296.5,-261.5 44.5,-261.5"/>
</g>
<!-- reactions -->
<g id="node2" class="node">
<title>reactions</title>
<polygon fill="#efefef" stroke="transparent" points="79.5,-102.5 79.5,-137.5 263.5,-137.5 263.5,-102.5 79.5,-102.5"/>
<polygon fill="none" stroke="#000000" points="79.5,-102.5 79.5,-137.5 263.5,-137.5 263.5,-102.5 79.5,-102.5"/>
<text text-anchor="start" x="86.3664" y="-115.3" font-family="Arial Bold" font-size="18.00" fill="#000000">reactions</text>
<text text-anchor="start" x="159.3798" y="-115.3" font-family="Arial" font-size="14.00" fill="#000000"> </text>
<text text-anchor="start" x="163.2704" y="-115.3" font-family="Arial" font-size="14.00" fill="#666666">[BASE TABLE]</text>
<polygon fill="none" stroke="#000000" points="79.5,-72.5 79.5,-102.5 263.5,-102.5 263.5,-72.5 79.5,-72.5"/>
<text text-anchor="start" x="86.5" y="-83.9" font-family="Arial" font-size="14.00" fill="#000000">id </text>
<text text-anchor="start" x="101.2798" y="-83.9" font-family="Arial" font-size="14.00" fill="#666666">[int(11)]</text>
<polygon fill="none" stroke="#000000" points="79.5,-42.5 79.5,-72.5 263.5,-72.5 263.5,-42.5 79.5,-42.5"/>
<text text-anchor="start" x="86.5" y="-53.9" font-family="Arial" font-size="14.00" fill="#000000">message_id </text>
<text text-anchor="start" x="165.8534" y="-53.9" font-family="Arial" font-size="14.00" fill="#666666">[bigint(20)]</text>
</g>
<!-- blocklist_reaction&#45;&gt;reactions -->
<g id="edge1" class="edge">
<title>blocklist_reaction:reaction_id&#45;&gt;reactions:id</title>
<path fill="none" stroke="#000000" d="M305.6728,-456.983C399.8443,-447.0306 362.2963,-295.8504 295.5,-217 232.5921,-142.7397 142.4079,-255.2603 79.5,-181 52.6395,-149.2923 37.9444,-87.5 79.5,-87.5"/>
<polygon fill="#000000" stroke="#000000" points="305.4871,-456.9923 295.2715,-453.0058 300.4936,-457.2462 295.5,-457.5 295.5,-457.5 295.5,-457.5 300.4936,-457.2462 295.7285,-461.9942 305.4871,-456.9923 305.4871,-456.9923"/>
<text text-anchor="start" x="302.329" y="-467.5" font-family="Arial" font-size="10.00" fill="#000000">FOREIGN KEY (reaction_id) REFERENCES reactions (id)</text>
</g>
</g>
</svg>
