<?xml version="1.0" encoding="UTF-8" standalone="no"?>
<!DOCTYPE svg PUBLIC "-//W3C//DTD SVG 1.1//EN"
 "http://www.w3.org/Graphics/SVG/1.1/DTD/svg11.dtd">
<!-- Generated by graphviz version 2.40.1 (20161225.0304)
 -->
<!-- Title: blocklist_server Pages: 1 -->
<svg width="1083pt" height="442pt"
 viewBox="0.00 0.00 1083.00 442.00" xmlns="http://www.w3.org/2000/svg" xmlns:xlink="http://www.w3.org/1999/xlink">
<g id="graph0" class="graph" transform="scale(1 1) rotate(0) translate(4 438)">
<title>blocklist_server</title>
<polygon fill="#ffffff" stroke="transparent" points="-4,4 -4,-438 1079,-438 1079,4 -4,4"/>
<!-- blocklist_server -->
<g id="node1" class="node">
<title>blocklist_server</title>
<polygon fill="#efefef" stroke="transparent" points="420,-75.5 420,-110.5 655,-110.5 655,-75.5 420,-75.5"/>
<polygon fill="none" stroke="#000000" points="420,-75.5 420,-110.5 655,-110.5 655,-75.5 420,-75.5"/>
<text text-anchor="start" x="426.873" y="-88.3" font-family="Arial Bold" font-size="18.00" fill="#000000">blocklist_server</text>
<text text-anchor="start" x="550.8732" y="-88.3" font-family="Arial" font-size="14.00" fill="#000000"> </text>
<text text-anchor="start" x="554.7638" y="-88.3" font-family="Arial" font-size="14.00" fill="#666666">[BASE TABLE]</text>
<polygon fill="none" stroke="#000000" points="420,-45.5 420,-75.5 655,-75.5 655,-45.5 420,-45.5"/>
<text text-anchor="start" x="427" y="-56.9" font-family="Arial" font-size="14.00" fill="#000000">server_id </text>
<text text-anchor="start" x="488.4488" y="-56.9" font-family="Arial" font-size="14.00" fill="#666666">[bigint(20)]</text>
<polygon fill="none" stroke="#000000" stroke-width="3" points="418,-44.5 418,-112.5 656,-112.5 656,-44.5 418,-44.5"/>
</g>
<!-- blocklist_settings -->
<g id="node2" class="node">
<title>blocklist_settings</title>
<polygon fill="#efefef" stroke="transparent" points="79,-325.5 79,-360.5 326,-360.5 326,-325.5 79,-325.5"/>
<polygon fill="none" stroke="#000000" points="79,-325.5 79,-360.5 326,-360.5 326,-325.5 79,-325.5"/>
<text text-anchor="start" x="85.8628" y="-338.3" font-family="Arial Bold" font-size="18.00" fill="#000000">blocklist_settings</text>
<text text-anchor="start" x="221.8834" y="-338.3" font-family="Arial" font-size="14.00" fill="#000000"> </text>
<text text-anchor="start" x="225.774" y="-338.3" font-family="Arial" font-size="14.00" fill="#666666">[BASE TABLE]</text>
<polygon fill="none" stroke="#000000" points="79,-295.5 79,-325.5 326,-325.5 326,-295.5 79,-295.5"/>
<text text-anchor="start" x="86" y="-306.9" font-family="Arial" font-size="14.00" fill="#000000">server_id </text>
<text text-anchor="start" x="147.4488" y="-306.9" font-family="Arial" font-size="14.00" fill="#666666">[bigint(20)]</text>
<polygon fill="none" stroke="#000000" points="79,-265.5 79,-295.5 326,-295.5 326,-265.5 79,-265.5"/>
<text text-anchor="start" x="86" y="-276.9" font-family="Arial" font-size="14.00" fill="#000000">mode </text>
<text text-anchor="start" x="124.899" y="-276.9" font-family="Arial" font-size="14.00" fill="#666666">[varchar(126)]</text>
</g>
<!-- blocklist_settings&#45;&gt;blocklist_server -->
<g id="edge1" class="edge">
<title>blocklist_settings:server_id&#45;&gt;blocklist_server:server_id</title>
<path fill="none" stroke="#000000" d="M336.0748,-309.8265C436.2629,-295.5924 304.8879,-60.5 420,-60.5"/>
<polygon fill="#000000" stroke="#000000" points="335.9777,-309.8329 325.6998,-306.01 330.9889,-310.1665 326,-310.5 326,-310.5 326,-310.5 330.9889,-310.1665 326.3002,-314.99 335.9777,-309.8329 335.9777,-309.8329"/>
<text text-anchor="start" x="6.892" y="-320.5" font-family="Arial" font-size="10.00" fill="#000000">FOREIGN KEY (server_id) REFERENCES blocklist_server (server_id)</text>
</g>
<!-- blocklist_role -->
<g id="node3" class="node">
<title>blocklist_role</title>
<polygon fill="#efefef" stroke="transparent" points="430,-325.5 430,-360.5 645,-360.5 645,-325.5 430,-325.5"/>
<polygon fill="none" stroke="#000000" points="430,-325.5 430,-360.5 645,-360.5 645,-325.5 430,-325.5"/>
<text text-anchor="start" x="436.872" y="-338.3" font-family="Arial Bold" font-size="18.00" fill="#000000">blocklist_role</text>
<text text-anchor="start" x="540.8742" y="-338.3" font-family="Arial" font-size="14.00" fill="#000000"> </text>
<text text-anchor="start" x="544.7648" y="-338.3" font-family="Arial" font-size="14.00" fill="#666666">[BASE TABLE]</text>
<polygon fill="none" stroke="#000000" points="430,-295.5 430,-325.5 645,-325.5 645,-295.5 430,-295.5"/>
<text text-anchor="start" x="437" y="-306.9" font-family="Arial" font-size="14.00" fill="#000000">server_id </text>
<text text-anchor="start" x="498.4488" y="-306.9" font-family="Arial" font-size="14.00" fill="#666666">[bigint(20)]</text>
<polygon fill="none" stroke="#000000" points="430,-265.5 430,-295.5 645,-295.5 645,-265.5 430,-265.5"/>
<text text-anchor="start" x="437" y="-276.9" font-family="Arial" font-size="14.00" fill="#000000">role_id </text>
<text text-anchor="start" x="482.8948" y="-276.9" font-family="Arial" font-size="14.00" fill="#666666">[bigint(20)]</text>
</g>
<!-- blocklist_role&#45;&gt;blocklist_server -->
<g id="edge2" class="edge">
<title>blocklist_role:server_id&#45;&gt;blocklist_server:server_id</title>
<path fill="none" stroke="#000000" d="M420.1033,-308.9492C394.1026,-299.6348 408.3263,-250.5978 430,-223 506.4325,-125.6763 624.0675,-254.3237 700.5,-157 883.1694,75.5982 538,-28.4349 538,-45.5"/>
<polygon fill="#000000" stroke="#000000" points="420.1206,-308.9518 429.3033,-314.9457 425.0603,-309.7259 430,-310.5 430,-310.5 430,-310.5 425.0603,-309.7259 430.6967,-306.0543 420.1206,-308.9518 420.1206,-308.9518"/>
<text text-anchor="start" x="436.892" y="-320.5" font-family="Arial" font-size="10.00" fill="#000000">FOREIGN KEY (server_id) REFERENCES blocklist_server (server_id)</text>
</g>
<!-- blocklist_user -->
<g id="node4" class="node">
<title>blocklist_user</title>
<polygon fill="#efefef" stroke="transparent" points="749,-355.5 749,-390.5 969,-390.5 969,-355.5 749,-355.5"/>
<polygon fill="none" stroke="#000000" points="749,-355.5 749,-390.5 969,-390.5 969,-355.5 749,-355.5"/>
<text text-anchor="start" x="755.8691" y="-368.3" font-family="Arial Bold" font-size="18.00" fill="#000000">blocklist_user</text>
<text text-anchor="start" x="864.8771" y="-368.3" font-family="Arial" font-size="14.00" fill="#000000"> </text>
<text text-anchor="start" x="868.7677" y="-368.3" font-family="Arial" font-size="14.00" fill="#666666">[BASE TABLE]</text>
<polygon fill="none" stroke="#000000" points="749,-325.5 749,-355.5 969,-355.5 969,-325.5 749,-325.5"/>
<text text-anchor="start" x="756" y="-336.9" font-family="Arial" font-size="14.00" fill="#000000">block_id </text>
<text text-anchor="start" x="811.2342" y="-336.9" font-family="Arial" font-size="14.00" fill="#666666">[int(11)]</text>
<polygon fill="none" stroke="#000000" points="749,-295.5 749,-325.5 969,-325.5 969,-295.5 749,-295.5"/>
<text text-anchor="start" x="756" y="-306.9" font-family="Arial" font-size="14.00" fill="#000000">server_id </text>
<text text-anchor="start" x="817.4488" y="-306.9" font-family="Arial" font-size="14.00" fill="#666666">[bigint(20)]</text>
<polygon fill="none" stroke="#000000" points="749,-265.5 749,-295.5 969,-295.5 969,-265.5 749,-265.5"/>
<text text-anchor="start" x="756" y="-276.9" font-family="Arial" font-size="14.00" fill="#000000">user_id </text>
<text text-anchor="start" x="805.7882" y="-276.9" font-family="Arial" font-size="14.00" fill="#666666">[bigint(20)]</text>
<polygon fill="none" stroke="#000000" points="749,-235.5 749,-265.5 969,-265.5 969,-235.5 749,-235.5"/>
<text text-anchor="start" x="756" y="-246.9" font-family="Arial" font-size="14.00" fill="#000000">mode </text>
<text text-anchor="start" x="794.899" y="-246.9" font-family="Arial" font-size="14.00" fill="#666666">[varchar(255)]</text>
</g>
<!-- blocklist_user&#45;&gt;blocklist_server -->
<g id="edge3" class="edge">
<title>blocklist_user:server_id&#45;&gt;blocklist_server:server_id</title>
<path fill="none" stroke="#000000" d="M738.9252,-309.8265C638.7371,-295.5924 770.1121,-60.5 655,-60.5"/>
<polygon fill="#000000" stroke="#000000" points="739.0223,-309.8329 748.6998,-314.99 744.0111,-310.1665 749,-310.5 749,-310.5 749,-310.5 744.0111,-310.1665 749.3002,-306.01 739.0223,-309.8329 739.0223,-309.8329"/>
<text text-anchor="start" x="755.892" y="-294.5" font-family="Arial" font-size="10.00" fill="#000000">FOREIGN KEY (server_id) REFERENCES blocklist_server (server_id)</text>
</g>
</g>
</svg>
