<?xml version="1.0" encoding="UTF-8" standalone="no"?>
<!DOCTYPE svg PUBLIC "-//W3C//DTD SVG 1.1//EN"
 "http://www.w3.org/Graphics/SVG/1.1/DTD/svg11.dtd">
<!-- Generated by graphviz version 2.40.1 (20161225.0304)
 -->
<!-- Title: blocklists Pages: 1 -->
<svg width="531pt" height="472pt"
 viewBox="0.00 0.00 531.00 472.00" xmlns="http://www.w3.org/2000/svg" xmlns:xlink="http://www.w3.org/1999/xlink">
<g id="graph0" class="graph" transform="scale(1 1) rotate(0) translate(4 468)">
<title>blocklists</title>
<polygon fill="#ffffff" stroke="transparent" points="-4,4 -4,-468 527,-468 527,4 -4,4"/>
<!-- blocklists -->
<g id="node1" class="node">
<title>blocklists</title>
<polygon fill="#efefef" stroke="transparent" points="61,-105.5 61,-140.5 245,-140.5 245,-105.5 61,-105.5"/>
<polygon fill="none" stroke="#000000" points="61,-105.5 61,-140.5 245,-140.5 245,-105.5 61,-105.5"/>
<text text-anchor="start" x="67.8745" y="-118.3" font-family="Arial Bold" font-size="18.00" fill="#000000">blocklists</text>
<text text-anchor="start" x="140.8717" y="-118.3" font-family="Arial" font-size="14.00" fill="#000000"> </text>
<text text-anchor="start" x="144.7623" y="-118.3" font-family="Arial" font-size="14.00" fill="#666666">[BASE TABLE]</text>
<polygon fill="none" stroke="#000000" points="61,-75.5 61,-105.5 245,-105.5 245,-75.5 61,-75.5"/>
<text text-anchor="start" x="68" y="-86.9" font-family="Arial" font-size="14.00" fill="#000000">id </text>
<text text-anchor="start" x="82.7798" y="-86.9" font-family="Arial" font-size="14.00" fill="#666666">[int(11)]</text>
<polygon fill="none" stroke="#000000" points="61,-45.5 61,-75.5 245,-75.5 245,-45.5 61,-45.5"/>
<text text-anchor="start" x="68" y="-56.9" font-family="Arial" font-size="14.00" fill="#000000">created_at </text>
<text text-anchor="start" x="138.028" y="-56.9" font-family="Arial" font-size="14.00" fill="#666666">[datetime]</text>
<polygon fill="none" stroke="#000000" stroke-width="3" points="59.5,-44.5 59.5,-142.5 246.5,-142.5 246.5,-44.5 59.5,-44.5"/>
</g>
<!-- blocklist_user -->
<g id="node2" class="node">
<title>blocklist_user</title>
<polygon fill="#efefef" stroke="transparent" points="43,-385.5 43,-420.5 263,-420.5 263,-385.5 43,-385.5"/>
<polygon fill="none" stroke="#000000" points="43,-385.5 43,-420.5 263,-420.5 263,-385.5 43,-385.5"/>
<text text-anchor="start" x="49.8691" y="-398.3" font-family="Arial Bold" font-size="18.00" fill="#000000">blocklist_user</text>
<text text-anchor="start" x="158.8771" y="-398.3" font-family="Arial" font-size="14.00" fill="#000000"> </text>
<text text-anchor="start" x="162.7677" y="-398.3" font-family="Arial" font-size="14.00" fill="#666666">[BASE TABLE]</text>
<polygon fill="none" stroke="#000000" points="43,-355.5 43,-385.5 263,-385.5 263,-355.5 43,-355.5"/>
<text text-anchor="start" x="50" y="-366.9" font-family="Arial" font-size="14.00" fill="#000000">block_id </text>
<text text-anchor="start" x="105.2342" y="-366.9" font-family="Arial" font-size="14.00" fill="#666666">[int(11)]</text>
<polygon fill="none" stroke="#000000" points="43,-325.5 43,-355.5 263,-355.5 263,-325.5 43,-325.5"/>
<text text-anchor="start" x="50" y="-336.9" font-family="Arial" font-size="14.00" fill="#000000">server_id </text>
<text text-anchor="start" x="111.4488" y="-336.9" font-family="Arial" font-size="14.00" fill="#666666">[bigint(20)]</text>
<polygon fill="none" stroke="#000000" points="43,-295.5 43,-325.5 263,-325.5 263,-295.5 43,-295.5"/>
<text text-anchor="start" x="50" y="-306.9" font-family="Arial" font-size="14.00" fill="#000000">user_id </text>
<text text-anchor="start" x="99.7882" y="-306.9" font-family="Arial" font-size="14.00" fill="#666666">[bigint(20)]</text>
<polygon fill="none" stroke="#000000" points="43,-265.5 43,-295.5 263,-295.5 263,-265.5 43,-265.5"/>
<text text-anchor="start" x="50" y="-276.9" font-family="Arial" font-size="14.00" fill="#000000">mode </text>
<text text-anchor="start" x="88.899" y="-276.9" font-family="Arial" font-size="14.00" fill="#666666">[varchar(255)]</text>
</g>
<!-- blocklist_user&#45;&gt;blocklists -->
<g id="edge1" class="edge">
<title>blocklist_user:block_id&#45;&gt;blocklists:id</title>
<path fill="none" stroke="#000000" d="M272.8279,-367.9069C323.1693,-339.6795 303.8191,-90.5 245,-90.5"/>
<polygon fill="#000000" stroke="#000000" points="272.6691,-367.9487 261.8519,-366.1489 267.8346,-369.2244 263,-370.5 263,-370.5 263,-370.5 267.8346,-369.2244 264.1481,-374.8511 272.6691,-367.9487 272.6691,-367.9487"/>
<text text-anchor="start" x="269.9465" y="-380.5" font-family="Arial" font-size="10.00" fill="#000000">FOREIGN KEY (block_id) REFERENCES blocklists (id)</text>
</g>
</g>
</svg>
