<?xml version="1.0" encoding="UTF-8" standalone="no"?>
<!DOCTYPE svg PUBLIC "-//W3C//DTD SVG 1.1//EN"
 "http://www.w3.org/Graphics/SVG/1.1/DTD/svg11.dtd">
<!-- Generated by graphviz version 2.40.1 (20161225.0304)
 -->
<!-- Title: blocklist_settings Pages: 1 -->
<svg width="627pt" height="382pt"
 viewBox="0.00 0.00 626.50 382.00" xmlns="http://www.w3.org/2000/svg" xmlns:xlink="http://www.w3.org/1999/xlink">
<g id="graph0" class="graph" transform="scale(1 1) rotate(0) translate(4 378)">
<title>blocklist_settings</title>
<polygon fill="#ffffff" stroke="transparent" points="-4,4 -4,-378 622.5,-378 622.5,4 -4,4"/>
<!-- blocklist_settings -->
<g id="node1" class="node">
<title>blocklist_settings</title>
<polygon fill="#efefef" stroke="transparent" points="326,-292.5 326,-327.5 573,-327.5 573,-292.5 326,-292.5"/>
<polygon fill="none" stroke="#000000" points="326,-292.5 326,-327.5 573,-327.5 573,-292.5 326,-292.5"/>
<text text-anchor="start" x="332.8628" y="-305.3" font-family="Arial Bold" font-size="18.00" fill="#000000">blocklist_settings</text>
<text text-anchor="start" x="468.8834" y="-305.3" font-family="Arial" font-size="14.00" fill="#000000"> </text>
<text text-anchor="start" x="472.774" y="-305.3" font-family="Arial" font-size="14.00" fill="#666666">[BASE TABLE]</text>
<polygon fill="none" stroke="#000000" points="326,-262.5 326,-292.5 573,-292.5 573,-262.5 326,-262.5"/>
<text text-anchor="start" x="333" y="-273.9" font-family="Arial" font-size="14.00" fill="#000000">server_id </text>
<text text-anchor="start" x="394.4488" y="-273.9" font-family="Arial" font-size="14.00" fill="#666666">[bigint(20)]</text>
<polygon fill="none" stroke="#000000" points="326,-232.5 326,-262.5 573,-262.5 573,-232.5 326,-232.5"/>
<text text-anchor="start" x="333" y="-243.9" font-family="Arial" font-size="14.00" fill="#000000">mode </text>
<text text-anchor="start" x="371.899" y="-243.9" font-family="Arial" font-size="14.00" fill="#666666">[varchar(126)]</text>
<polygon fill="none" stroke="#000000" stroke-width="3" points="324,-231.5 324,-329.5 574,-329.5 574,-231.5 324,-231.5"/>
</g>
<!-- blocklist_server -->
<g id="node2" class="node">
<title>blocklist_server</title>
<polygon fill="#efefef" stroke="transparent" points="332,-72.5 332,-107.5 567,-107.5 567,-72.5 332,-72.5"/>
<polygon fill="none" stroke="#000000" points="332,-72.5 332,-107.5 567,-107.5 567,-72.5 332,-72.5"/>
<text text-anchor="start" x="338.873" y="-85.3" font-family="Arial Bold" font-size="18.00" fill="#000000">blocklist_server</text>
<text text-anchor="start" x="462.8732" y="-85.3" font-family="Arial" font-size="14.00" fill="#000000"> </text>
<text text-anchor="start" x="466.7638" y="-85.3" font-family="Arial" font-size="14.00" fill="#666666">[BASE TABLE]</text>
<polygon fill="none" stroke="#000000" points="332,-42.5 332,-72.5 567,-72.5 567,-42.5 332,-42.5"/>
<text text-anchor="start" x="339" y="-53.9" font-family="Arial" font-size="14.00" fill="#000000">server_id </text>
<text text-anchor="start" x="400.4488" y="-53.9" font-family="Arial" font-size="14.00" fill="#666666">[bigint(20)]</text>
</g>
<!-- blocklist_settings&#45;&gt;blocklist_server -->
<g id="edge1" class="edge">
<title>blocklist_settings:server_id&#45;&gt;blocklist_server:server_id</title>
<path fill="none" stroke="#000000" d="M316.0738,-275.9841C288.4478,-266.4549 301.9031,-214.3504 326,-187 409.9637,-91.7 525.5363,-246.3 609.5,-151 609.5,-151 450,-42.5 450,-42.5"/>
<polygon fill="#000000" stroke="#000000" points="316.1146,-275.9902 325.3206,-281.9484 321.0573,-276.7451 326,-277.5 326,-277.5 326,-277.5 321.0573,-276.7451 326.6794,-273.0516 316.1146,-275.9902 316.1146,-275.9902"/>
<text text-anchor="start" x="6.892" y="-287.5" font-family="Arial" font-size="10.00" fill="#000000">FOREIGN KEY (server_id) REFERENCES blocklist_server (server_id)</text>
</g>
</g>
</svg>
