<?xml version="1.0" encoding="UTF-8" standalone="no"?>
<!DOCTYPE svg PUBLIC "-//W3C//DTD SVG 1.1//EN"
 "http://www.w3.org/Graphics/SVG/1.1/DTD/svg11.dtd">
<!-- Generated by graphviz version 2.40.1 (20161225.0304)
 -->
<!-- Title: blocklist_user Pages: 1 -->
<svg width="814pt" height="472pt"
 viewBox="0.00 0.00 814.00 472.00" xmlns="http://www.w3.org/2000/svg" xmlns:xlink="http://www.w3.org/1999/xlink">
<g id="graph0" class="graph" transform="scale(1 1) rotate(0) translate(4 468)">
<title>blocklist_user</title>
<polygon fill="#ffffff" stroke="transparent" points="-4,4 -4,-468 810,-468 810,4 -4,4"/>
<!-- blocklist_user -->
<g id="node1" class="node">
<title>blocklist_user</title>
<polygon fill="#efefef" stroke="transparent" points="260,-382.5 260,-417.5 480,-417.5 480,-382.5 260,-382.5"/>
<polygon fill="none" stroke="#000000" points="260,-382.5 260,-417.5 480,-417.5 480,-382.5 260,-382.5"/>
<text text-anchor="start" x="266.8691" y="-395.3" font-family="Arial Bold" font-size="18.00" fill="#000000">blocklist_user</text>
<text text-anchor="start" x="375.8771" y="-395.3" font-family="Arial" font-size="14.00" fill="#000000"> </text>
<text text-anchor="start" x="379.7677" y="-395.3" font-family="Arial" font-size="14.00" fill="#666666">[BASE TABLE]</text>
<polygon fill="none" stroke="#000000" points="260,-352.5 260,-382.5 480,-382.5 480,-352.5 260,-352.5"/>
<text text-anchor="start" x="267" y="-363.9" font-family="Arial" font-size="14.00" fill="#000000">block_id </text>
<text text-anchor="start" x="322.2342" y="-363.9" font-family="Arial" font-size="14.00" fill="#666666">[int(11)]</text>
<polygon fill="none" stroke="#000000" points="260,-322.5 260,-352.5 480,-352.5 480,-322.5 260,-322.5"/>
<text text-anchor="start" x="267" y="-333.9" font-family="Arial" font-size="14.00" fill="#000000">server_id </text>
<text text-anchor="start" x="328.4488" y="-333.9" font-family="Arial" font-size="14.00" fill="#666666">[bigint(20)]</text>
<polygon fill="none" stroke="#000000" points="260,-292.5 260,-322.5 480,-322.5 480,-292.5 260,-292.5"/>
<text text-anchor="start" x="267" y="-303.9" font-family="Arial" font-size="14.00" fill="#000000">user_id </text>
<text text-anchor="start" x="316.7882" y="-303.9" font-family="Arial" font-size="14.00" fill="#666666">[bigint(20)]</text>
<polygon fill="none" stroke="#000000" points="260,-262.5 260,-292.5 480,-292.5 480,-262.5 260,-262.5"/>
<text text-anchor="start" x="267" y="-273.9" font-family="Arial" font-size="14.00" fill="#000000">mode </text>
<text text-anchor="start" x="305.899" y="-273.9" font-family="Arial" font-size="14.00" fill="#666666">[varchar(255)]</text>
<polygon fill="none" stroke="#000000" stroke-width="3" points="258.5,-261.5 258.5,-419.5 481.5,-419.5 481.5,-261.5 258.5,-261.5"/>
</g>
<!-- blocklists -->
<g id="node2" class="node">
<title>blocklists</title>
<polygon fill="#efefef" stroke="transparent" points="121,-102.5 121,-137.5 305,-137.5 305,-102.5 121,-102.5"/>
<polygon fill="none" stroke="#000000" points="121,-102.5 121,-137.5 305,-137.5 305,-102.5 121,-102.5"/>
<text text-anchor="start" x="127.8745" y="-115.3" font-family="Arial Bold" font-size="18.00" fill="#000000">blocklists</text>
<text text-anchor="start" x="200.8717" y="-115.3" font-family="Arial" font-size="14.00" fill="#000000"> </text>
<text text-anchor="start" x="204.7623" y="-115.3" font-family="Arial" font-size="14.00" fill="#666666">[BASE TABLE]</text>
<polygon fill="none" stroke="#000000" points="121,-72.5 121,-102.5 305,-102.5 305,-72.5 121,-72.5"/>
<text text-anchor="start" x="128" y="-83.9" font-family="Arial" font-size="14.00" fill="#000000">id </text>
<text text-anchor="start" x="142.7798" y="-83.9" font-family="Arial" font-size="14.00" fill="#666666">[int(11)]</text>
<polygon fill="none" stroke="#000000" points="121,-42.5 121,-72.5 305,-72.5 305,-42.5 121,-42.5"/>
<text text-anchor="start" x="128" y="-53.9" font-family="Arial" font-size="14.00" fill="#000000">created_at </text>
<text text-anchor="start" x="198.028" y="-53.9" font-family="Arial" font-size="14.00" fill="#666666">[datetime]</text>
</g>
<!-- blocklist_user&#45;&gt;blocklists -->
<g id="edge1" class="edge">
<title>blocklist_user:block_id&#45;&gt;blocklists:id</title>
<path fill="none" stroke="#000000" d="M249.9477,-366.7102C197.2312,-357.7225 232.6091,-273.9902 260,-217 271.095,-193.9154 293.905,-204.0846 305,-181 323.0014,-143.5458 346.5556,-87.5 305,-87.5"/>
<polygon fill="#000000" stroke="#000000" points="250.0307,-366.7167 259.6475,-371.9862 255.0154,-367.1083 260,-367.5 260,-367.5 260,-367.5 255.0154,-367.1083 260.3525,-363.0138 250.0307,-366.7167 250.0307,-366.7167"/>
<text text-anchor="start" x="6.9465" y="-377.5" font-family="Arial" font-size="10.00" fill="#000000">FOREIGN KEY (block_id) REFERENCES blocklists (id)</text>
</g>
<!-- blocklist_server -->
<g id="node3" class="node">
<title>blocklist_server</title>
<polygon fill="#efefef" stroke="transparent" points="410,-87.5 410,-122.5 645,-122.5 645,-87.5 410,-87.5"/>
<polygon fill="none" stroke="#000000" points="410,-87.5 410,-122.5 645,-122.5 645,-87.5 410,-87.5"/>
<text text-anchor="start" x="416.873" y="-100.3" font-family="Arial Bold" font-size="18.00" fill="#000000">blocklist_server</text>
<text text-anchor="start" x="540.8732" y="-100.3" font-family="Arial" font-size="14.00" fill="#000000"> </text>
<text text-anchor="start" x="544.7638" y="-100.3" font-family="Arial" font-size="14.00" fill="#666666">[BASE TABLE]</text>
<polygon fill="none" stroke="#000000" points="410,-57.5 410,-87.5 645,-87.5 645,-57.5 410,-57.5"/>
<text text-anchor="start" x="417" y="-68.9" font-family="Arial" font-size="14.00" fill="#000000">server_id </text>
<text text-anchor="start" x="478.4488" y="-68.9" font-family="Arial" font-size="14.00" fill="#666666">[bigint(20)]</text>
</g>
<!-- blocklist_user&#45;&gt;blocklist_server -->
<g id="edge2" class="edge">
<title>blocklist_user:server_id&#45;&gt;blocklist_server:server_id</title>
<path fill="none" stroke="#000000" d="M490.0989,-336.4548C529.4636,-327.3911 502.5747,-261.3781 480,-217 462.5475,-182.6913 427.4525,-200.3087 410,-166 391.1587,-128.9612 368.4444,-72.5 410,-72.5"/>
<polygon fill="#000000" stroke="#000000" points="489.9469,-336.4704 479.5367,-333.0239 484.9734,-336.9852 480,-337.5 480,-337.5 480,-337.5 484.9734,-336.9852 480.4633,-341.9761 489.9469,-336.4704 489.9469,-336.4704"/>
<text text-anchor="start" x="486.892" y="-347.5" font-family="Arial" font-size="10.00" fill="#000000">FOREIGN KEY (server_id) REFERENCES blocklist_server (server_id)</text>
</g>
</g>
</svg>
