<?xml version="1.0" encoding="UTF-8" standalone="no"?>
<!DOCTYPE svg PUBLIC "-//W3C//DTD SVG 1.1//EN"
 "http://www.w3.org/Graphics/SVG/1.1/DTD/svg11.dtd">
<!-- Generated by graphviz version 2.40.1 (20161225.0304)
 -->
<!-- Title: blog_detail Pages: 1 -->
<svg width="787pt" height="472pt"
 viewBox="0.00 0.00 787.00 472.00" xmlns="http://www.w3.org/2000/svg" xmlns:xlink="http://www.w3.org/1999/xlink">
<g id="graph0" class="graph" transform="scale(1 1) rotate(0) translate(4 468)">
<title>blog_detail</title>
<polygon fill="#ffffff" stroke="transparent" points="-4,4 -4,-468 783,-468 783,4 -4,4"/>
<!-- blog_detail -->
<g id="node1" class="node">
<title>blog_detail</title>
<polygon fill="#efefef" stroke="transparent" points="239,-382.5 239,-417.5 437,-417.5 437,-382.5 239,-382.5"/>
<polygon fill="none" stroke="#000000" points="239,-382.5 239,-417.5 437,-417.5 437,-382.5 239,-382.5"/>
<text text-anchor="start" x="245.859" y="-395.3" font-family="Arial Bold" font-size="18.00" fill="#000000">blog_detail</text>
<text text-anchor="start" x="332.8872" y="-395.3" font-family="Arial" font-size="14.00" fill="#000000"> </text>
<text text-anchor="start" x="336.7778" y="-395.3" font-family="Arial" font-size="14.00" fill="#666666">[BASE TABLE]</text>
<polygon fill="none" stroke="#000000" points="239,-352.5 239,-382.5 437,-382.5 437,-352.5 239,-352.5"/>
<text text-anchor="start" x="246" y="-363.9" font-family="Arial" font-size="14.00" fill="#000000">blog_id </text>
<text text-anchor="start" x="295.0168" y="-363.9" font-family="Arial" font-size="14.00" fill="#666666">[int(11)]</text>
<polygon fill="none" stroke="#000000" points="239,-322.5 239,-352.5 437,-352.5 437,-322.5 239,-322.5"/>
<text text-anchor="start" x="246" y="-333.9" font-family="Arial" font-size="14.00" fill="#000000">blog_channel </text>
<text text-anchor="start" x="333.1472" y="-333.9" font-family="Arial" font-size="14.00" fill="#666666">[bigint(20)]</text>
<polygon fill="none" stroke="#000000" points="239,-292.5 239,-322.5 437,-322.5 437,-292.5 239,-292.5"/>
<text text-anchor="start" x="246" y="-303.9" font-family="Arial" font-size="14.00" fill="#000000">total_post </text>
<text text-anchor="start" x="310.582" y="-303.9" font-family="Arial" font-size="14.00" fill="#666666">[int(11)]</text>
<polygon fill="none" stroke="#000000" points="239,-262.5 239,-292.5 437,-292.5 437,-262.5 239,-262.5"/>
<text text-anchor="start" x="246" y="-273.9" font-family="Arial" font-size="14.00" fill="#000000">created_at </text>
<text text-anchor="start" x="316.028" y="-273.9" font-family="Arial" font-size="14.00" fill="#666666">[datetime]</text>
<polygon fill="none" stroke="#000000" stroke-width="3" points="237.5,-261.5 237.5,-419.5 438.5,-419.5 438.5,-261.5 237.5,-261.5"/>
</g>
<!-- blogs -->
<g id="node2" class="node">
<title>blogs</title>
<polygon fill="#efefef" stroke="transparent" points="116,-102.5 116,-137.5 270,-137.5 270,-102.5 116,-102.5"/>
<polygon fill="none" stroke="#000000" points="116,-102.5 116,-137.5 270,-137.5 270,-102.5 116,-102.5"/>
<text text-anchor="start" x="122.8667" y="-115.3" font-family="Arial Bold" font-size="18.00" fill="#000000">blogs</text>
<text text-anchor="start" x="165.8795" y="-115.3" font-family="Arial" font-size="14.00" fill="#000000"> </text>
<text text-anchor="start" x="169.7701" y="-115.3" font-family="Arial" font-size="14.00" fill="#666666">[BASE TABLE]</text>
<polygon fill="none" stroke="#000000" points="116,-72.5 116,-102.5 270,-102.5 270,-72.5 116,-72.5"/>
<text text-anchor="start" x="123" y="-83.9" font-family="Arial" font-size="14.00" fill="#000000">id </text>
<text text-anchor="start" x="137.7798" y="-83.9" font-family="Arial" font-size="14.00" fill="#666666">[int(11)]</text>
<polygon fill="none" stroke="#000000" points="116,-42.5 116,-72.5 270,-72.5 270,-42.5 116,-42.5"/>
<text text-anchor="start" x="123" y="-53.9" font-family="Arial" font-size="14.00" fill="#000000">created_at </text>
<text text-anchor="start" x="193.028" y="-53.9" font-family="Arial" font-size="14.00" fill="#666666">[datetime]</text>
</g>
<!-- blog_detail&#45;&gt;blogs -->
<g id="edge1" class="edge">
<title>blog_detail:blog_id&#45;&gt;blogs:id</title>
<path fill="none" stroke="#000000" d="M228.9961,-366.7308C176.8202,-357.9727 216.9946,-276.2782 239,-217 246.3482,-197.2053 262.6518,-200.7947 270,-181 284.462,-142.0422 311.5556,-87.5 270,-87.5"/>
<polygon fill="#000000" stroke="#000000" points="229.0294,-366.7332 238.655,-371.9868 234.0147,-367.1166 239,-367.5 239,-367.5 239,-367.5 234.0147,-367.1166 239.345,-363.0132 229.0294,-366.7332 229.0294,-366.7332"/>
<text text-anchor="start" x="7.496" y="-377.5" font-family="Arial" font-size="10.00" fill="#000000">FOREIGN KEY (blog_id) REFERENCES blogs (id)</text>
</g>
<!-- blog_channel -->
<g id="node3" class="node">
<title>blog_channel</title>
<polygon fill="#efefef" stroke="transparent" points="374,-102.5 374,-137.5 592,-137.5 592,-102.5 374,-102.5"/>
<polygon fill="none" stroke="#000000" points="374,-102.5 374,-137.5 592,-137.5 592,-102.5 374,-102.5"/>
<text text-anchor="start" x="380.851" y="-115.3" font-family="Arial Bold" font-size="18.00" fill="#000000">blog_channel</text>
<text text-anchor="start" x="487.8952" y="-115.3" font-family="Arial" font-size="14.00" fill="#000000"> </text>
<text text-anchor="start" x="491.7858" y="-115.3" font-family="Arial" font-size="14.00" fill="#666666">[BASE TABLE]</text>
<polygon fill="none" stroke="#000000" points="374,-72.5 374,-102.5 592,-102.5 592,-72.5 374,-72.5"/>
<text text-anchor="start" x="381" y="-83.9" font-family="Arial" font-size="14.00" fill="#000000">blog_id </text>
<text text-anchor="start" x="430.0168" y="-83.9" font-family="Arial" font-size="14.00" fill="#666666">[int(11)]</text>
<polygon fill="none" stroke="#000000" points="374,-42.5 374,-72.5 592,-72.5 592,-42.5 374,-42.5"/>
<text text-anchor="start" x="381" y="-53.9" font-family="Arial" font-size="14.00" fill="#000000">channel_id </text>
<text text-anchor="start" x="452.582" y="-53.9" font-family="Arial" font-size="14.00" fill="#666666">[bigint(20)]</text>
</g>
<!-- blog_detail&#45;&gt;blog_channel -->
<g id="edge2" class="edge">
<title>blog_detail:blog_channel&#45;&gt;blog_channel:channel_id</title>
<path fill="none" stroke="#000000" d="M447.1348,-336.4353C486.8034,-327.2063 461.9909,-260.0638 437,-217 420.8133,-189.1075 390.1867,-208.8925 374,-181 346.4498,-133.526 319.1111,-57.5 374,-57.5"/>
<polygon fill="#000000" stroke="#000000" points="446.9453,-336.4551 436.5298,-333.0246 441.9726,-336.9775 437,-337.5 437,-337.5 437,-337.5 441.9726,-336.9775 437.4702,-341.9754 446.9453,-336.4551 446.9453,-336.4551"/>
<text text-anchor="start" x="443.805" y="-347.5" font-family="Arial" font-size="10.00" fill="#000000">FOREIGN KEY (blog_channel) REFERENCES blog_channel (channel_id)</text>
</g>
</g>
</svg>
