<?xml version="1.0" encoding="UTF-8" standalone="no"?>
<!DOCTYPE svg PUBLIC "-//W3C//DTD SVG 1.1//EN"
 "http://www.w3.org/Graphics/SVG/1.1/DTD/svg11.dtd">
<!-- Generated by graphviz version 2.40.1 (20161225.0304)
 -->
<!-- Title: blog_user_xp Pages: 1 -->
<svg width="513pt" height="472pt"
 viewBox="0.00 0.00 512.50 472.00" xmlns="http://www.w3.org/2000/svg" xmlns:xlink="http://www.w3.org/1999/xlink">
<g id="graph0" class="graph" transform="scale(1 1) rotate(0) translate(4 468)">
<title>blog_user_xp</title>
<polygon fill="#ffffff" stroke="transparent" points="-4,4 -4,-468 508.5,-468 508.5,4 -4,4"/>
<!-- blog_user_xp -->
<g id="node1" class="node">
<title>blog_user_xp</title>
<polygon fill="#efefef" stroke="transparent" points="46.5,-382.5 46.5,-417.5 265.5,-417.5 265.5,-382.5 46.5,-382.5"/>
<polygon fill="none" stroke="#000000" points="46.5,-382.5 46.5,-417.5 265.5,-417.5 265.5,-382.5 46.5,-382.5"/>
<text text-anchor="start" x="53.3551" y="-395.3" font-family="Arial Bold" font-size="18.00" fill="#000000">blog_user_xp</text>
<text text-anchor="start" x="161.3911" y="-395.3" font-family="Arial" font-size="14.00" fill="#000000"> </text>
<text text-anchor="start" x="165.2817" y="-395.3" font-family="Arial" font-size="14.00" fill="#666666">[BASE TABLE]</text>
<polygon fill="none" stroke="#000000" points="46.5,-352.5 46.5,-382.5 265.5,-382.5 265.5,-352.5 46.5,-352.5"/>
<text text-anchor="start" x="53.5" y="-363.9" font-family="Arial" font-size="14.00" fill="#000000">blog_id </text>
<text text-anchor="start" x="102.5168" y="-363.9" font-family="Arial" font-size="14.00" fill="#666666">[int(11)]</text>
<polygon fill="none" stroke="#000000" points="46.5,-322.5 46.5,-352.5 265.5,-352.5 265.5,-322.5 46.5,-322.5"/>
<text text-anchor="start" x="53.5" y="-333.9" font-family="Arial" font-size="14.00" fill="#000000">xp </text>
<text text-anchor="start" x="72.1732" y="-333.9" font-family="Arial" font-size="14.00" fill="#666666">[bigint(20)]</text>
<polygon fill="none" stroke="#000000" points="46.5,-292.5 46.5,-322.5 265.5,-322.5 265.5,-292.5 46.5,-292.5"/>
<text text-anchor="start" x="53.5" y="-303.9" font-family="Arial" font-size="14.00" fill="#000000">level </text>
<text text-anchor="start" x="86.169" y="-303.9" font-family="Arial" font-size="14.00" fill="#666666">[int(11)]</text>
<polygon fill="none" stroke="#000000" points="46.5,-262.5 46.5,-292.5 265.5,-292.5 265.5,-262.5 46.5,-262.5"/>
<text text-anchor="start" x="53.5" y="-273.9" font-family="Arial" font-size="14.00" fill="#000000">xp_saved_levelup_xp </text>
<text text-anchor="start" x="191.995" y="-273.9" font-family="Arial" font-size="14.00" fill="#666666">[int(11)]</text>
<polygon fill="none" stroke="#000000" stroke-width="3" points="44.5,-261.5 44.5,-419.5 266.5,-419.5 266.5,-261.5 44.5,-261.5"/>
</g>
<!-- blogs -->
<g id="node2" class="node">
<title>blogs</title>
<polygon fill="#efefef" stroke="transparent" points="79.5,-102.5 79.5,-137.5 233.5,-137.5 233.5,-102.5 79.5,-102.5"/>
<polygon fill="none" stroke="#000000" points="79.5,-102.5 79.5,-137.5 233.5,-137.5 233.5,-102.5 79.5,-102.5"/>
<text text-anchor="start" x="86.3667" y="-115.3" font-family="Arial Bold" font-size="18.00" fill="#000000">blogs</text>
<text text-anchor="start" x="129.3795" y="-115.3" font-family="Arial" font-size="14.00" fill="#000000"> </text>
<text text-anchor="start" x="133.2701" y="-115.3" font-family="Arial" font-size="14.00" fill="#666666">[BASE TABLE]</text>
<polygon fill="none" stroke="#000000" points="79.5,-72.5 79.5,-102.5 233.5,-102.5 233.5,-72.5 79.5,-72.5"/>
<text text-anchor="start" x="86.5" y="-83.9" font-family="Arial" font-size="14.00" fill="#000000">id </text>
<text text-anchor="start" x="101.2798" y="-83.9" font-family="Arial" font-size="14.00" fill="#666666">[int(11)]</text>
<polygon fill="none" stroke="#000000" points="79.5,-42.5 79.5,-72.5 233.5,-72.5 233.5,-42.5 79.5,-42.5"/>
<text text-anchor="start" x="86.5" y="-53.9" font-family="Arial" font-size="14.00" fill="#000000">created_at </text>
<text text-anchor="start" x="156.528" y="-53.9" font-family="Arial" font-size="14.00" fill="#666666">[datetime]</text>
</g>
<!-- blog_user_xp&#45;&gt;blogs -->
<g id="edge1" class="edge">
<title>blog_user_xp:blog_id&#45;&gt;blogs:id</title>
<path fill="none" stroke="#000000" d="M275.6675,-366.6365C329.6741,-356.8239 305.7394,-265.7744 265.5,-217 211.9157,-152.0501 133.0843,-245.9499 79.5,-181 53.0546,-148.9453 37.9444,-87.5 79.5,-87.5"/>
<polygon fill="#000000" stroke="#000000" points="275.4641,-366.6537 265.1192,-363.0161 270.4821,-367.0769 265.5,-367.5 265.5,-367.5 265.5,-367.5 270.4821,-367.0769 265.8808,-371.9839 275.4641,-366.6537 275.4641,-366.6537"/>
<text text-anchor="start" x="272.996" y="-377.5" font-family="Arial" font-size="10.00" fill="#000000">FOREIGN KEY (blog_id) REFERENCES blogs (id)</text>
</g>
</g>
</svg>
