<?xml version="1.0" encoding="UTF-8" standalone="no"?>
<!DOCTYPE svg PUBLIC "-//W3C//DTD SVG 1.1//EN"
 "http://www.w3.org/Graphics/SVG/1.1/DTD/svg11.dtd">
<!-- Generated by graphviz version 2.40.1 (20161225.0304)
 -->
<!-- Title: blog_server Pages: 1 -->
<svg width="770pt" height="659pt"
 viewBox="0.00 0.00 770.00 659.00" xmlns="http://www.w3.org/2000/svg" xmlns:xlink="http://www.w3.org/1999/xlink">
<g id="graph0" class="graph" transform="scale(1 1) rotate(0) translate(4 655)">
<title>blog_server</title>
<polygon fill="#ffffff" stroke="transparent" points="-4,4 -4,-655 766,-655 766,4 -4,4"/>
<!-- blog_server -->
<g id="node1" class="node">
<title>blog_server</title>
<polygon fill="#efefef" stroke="transparent" points="318,-322.5 318,-357.5 523,-357.5 523,-322.5 318,-322.5"/>
<polygon fill="none" stroke="#000000" points="318,-322.5 318,-357.5 523,-357.5 523,-322.5 318,-322.5"/>
<text text-anchor="start" x="324.8652" y="-335.3" font-family="Arial Bold" font-size="18.00" fill="#000000">blog_server</text>
<text text-anchor="start" x="418.881" y="-335.3" font-family="Arial" font-size="14.00" fill="#000000"> </text>
<text text-anchor="start" x="422.7716" y="-335.3" font-family="Arial" font-size="14.00" fill="#666666">[BASE TABLE]</text>
<polygon fill="none" stroke="#000000" points="318,-292.5 318,-322.5 523,-322.5 523,-292.5 318,-292.5"/>
<text text-anchor="start" x="325" y="-303.9" font-family="Arial" font-size="14.00" fill="#000000">blog_id </text>
<text text-anchor="start" x="374.0168" y="-303.9" font-family="Arial" font-size="14.00" fill="#666666">[int(11)]</text>
<polygon fill="none" stroke="#000000" points="318,-262.5 318,-292.5 523,-292.5 523,-262.5 318,-262.5"/>
<text text-anchor="start" x="325" y="-273.9" font-family="Arial" font-size="14.00" fill="#000000">server_id </text>
<text text-anchor="start" x="386.4488" y="-273.9" font-family="Arial" font-size="14.00" fill="#666666">[bigint(20)]</text>
<polygon fill="none" stroke="#000000" stroke-width="3" points="316,-261.5 316,-359.5 524,-359.5 524,-261.5 316,-261.5"/>
</g>
<!-- blogs -->
<g id="node2" class="node">
<title>blogs</title>
<polygon fill="#efefef" stroke="transparent" points="344,-102.5 344,-137.5 498,-137.5 498,-102.5 344,-102.5"/>
<polygon fill="none" stroke="#000000" points="344,-102.5 344,-137.5 498,-137.5 498,-102.5 344,-102.5"/>
<text text-anchor="start" x="350.8667" y="-115.3" font-family="Arial Bold" font-size="18.00" fill="#000000">blogs</text>
<text text-anchor="start" x="393.8795" y="-115.3" font-family="Arial" font-size="14.00" fill="#000000"> </text>
<text text-anchor="start" x="397.7701" y="-115.3" font-family="Arial" font-size="14.00" fill="#666666">[BASE TABLE]</text>
<polygon fill="none" stroke="#000000" points="344,-72.5 344,-102.5 498,-102.5 498,-72.5 344,-72.5"/>
<text text-anchor="start" x="351" y="-83.9" font-family="Arial" font-size="14.00" fill="#000000">id </text>
<text text-anchor="start" x="365.7798" y="-83.9" font-family="Arial" font-size="14.00" fill="#666666">[int(11)]</text>
<polygon fill="none" stroke="#000000" points="344,-42.5 344,-72.5 498,-72.5 498,-42.5 344,-42.5"/>
<text text-anchor="start" x="351" y="-53.9" font-family="Arial" font-size="14.00" fill="#000000">created_at </text>
<text text-anchor="start" x="421.028" y="-53.9" font-family="Arial" font-size="14.00" fill="#666666">[datetime]</text>
</g>
<!-- blog_server&#45;&gt;blogs -->
<g id="edge1" class="edge">
<title>blog_server:blog_id&#45;&gt;blogs:id</title>
<path fill="none" stroke="#000000" d="M532.8998,-306.0065C560.3643,-296.6145 546.0946,-245.2018 523,-217 471.5864,-154.2168 395.4136,-243.7832 344,-181 317.6715,-148.8492 302.4444,-87.5 344,-87.5"/>
<polygon fill="#000000" stroke="#000000" points="532.8881,-306.0082 522.3287,-303.0503 527.9441,-306.7541 523,-307.5 523,-307.5 523,-307.5 527.9441,-306.7541 523.6713,-311.9497 532.8881,-306.0082 532.8881,-306.0082"/>
<text text-anchor="start" x="530.496" y="-317.5" font-family="Arial" font-size="10.00" fill="#000000">FOREIGN KEY (blog_id) REFERENCES blogs (id)</text>
</g>
<!-- blog_category -->
<g id="node3" class="node">
<title>blog_category</title>
<polygon fill="#efefef" stroke="transparent" points="309,-572.5 309,-607.5 533,-607.5 533,-572.5 309,-572.5"/>
<polygon fill="none" stroke="#000000" points="309,-572.5 309,-607.5 533,-607.5 533,-572.5 309,-572.5"/>
<text text-anchor="start" x="315.854" y="-585.3" font-family="Arial Bold" font-size="18.00" fill="#000000">blog_category</text>
<text text-anchor="start" x="428.8922" y="-585.3" font-family="Arial" font-size="14.00" fill="#000000"> </text>
<text text-anchor="start" x="432.7828" y="-585.3" font-family="Arial" font-size="14.00" fill="#666666">[BASE TABLE]</text>
<polygon fill="none" stroke="#000000" points="309,-542.5 309,-572.5 533,-572.5 533,-542.5 309,-542.5"/>
<text text-anchor="start" x="316" y="-553.9" font-family="Arial" font-size="14.00" fill="#000000">blog_id </text>
<text text-anchor="start" x="365.0168" y="-553.9" font-family="Arial" font-size="14.00" fill="#666666">[int(11)]</text>
<polygon fill="none" stroke="#000000" points="309,-512.5 309,-542.5 533,-542.5 533,-512.5 309,-512.5"/>
<text text-anchor="start" x="316" y="-523.9" font-family="Arial" font-size="14.00" fill="#000000">server_id </text>
<text text-anchor="start" x="377.4488" y="-523.9" font-family="Arial" font-size="14.00" fill="#666666">[bigint(20)]</text>
<polygon fill="none" stroke="#000000" points="309,-482.5 309,-512.5 533,-512.5 533,-482.5 309,-482.5"/>
<text text-anchor="start" x="316" y="-493.9" font-family="Arial" font-size="14.00" fill="#000000">category_id </text>
<text text-anchor="start" x="392.244" y="-493.9" font-family="Arial" font-size="14.00" fill="#666666">[bigint(20)]</text>
</g>
<!-- blog_category&#45;&gt;blog_server -->
<g id="edge2" class="edge">
<title>blog_category:server_id&#45;&gt;blog_server:server_id</title>
<path fill="none" stroke="#000000" d="M299.064,-525.9167C272.8347,-516.4132 285.9546,-466.4631 309,-440 385.4682,-352.1912 492.0318,-491.8088 568.5,-404 568.5,-404 421,-262.5 421,-262.5"/>
<polygon fill="#000000" stroke="#000000" points="299.1246,-525.9263 308.2918,-531.9439 304.0623,-526.7131 309,-527.5 309,-527.5 309,-527.5 304.0623,-526.7131 309.7082,-523.0561 299.1246,-525.9263 299.1246,-525.9263"/>
<text text-anchor="start" x="7.221" y="-537.5" font-family="Arial" font-size="10.00" fill="#000000">FOREIGN KEY (server_id) REFERENCES blog_server (server_id)</text>
</g>
</g>
</svg>
