<?xml version="1.0" encoding="UTF-8" standalone="no"?>
<!DOCTYPE svg PUBLIC "-//W3C//DTD SVG 1.1//EN"
 "http://www.w3.org/Graphics/SVG/1.1/DTD/svg11.dtd">
<!-- Generated by graphviz version 2.40.1 (20161225.0304)
 -->
<!-- Title: blogs Pages: 1 -->
<svg width="2225pt" height="502pt"
 viewBox="0.00 0.00 2225.00 502.00" xmlns="http://www.w3.org/2000/svg" xmlns:xlink="http://www.w3.org/1999/xlink">
<g id="graph0" class="graph" transform="scale(1 1) rotate(0) translate(4 498)">
<title>blogs</title>
<polygon fill="#ffffff" stroke="transparent" points="-4,4 -4,-498 2221,-498 2221,4 -4,4"/>
<!-- blogs -->
<g id="node1" class="node">
<title>blogs</title>
<polygon fill="#efefef" stroke="transparent" points="1024.5,-105.5 1024.5,-140.5 1178.5,-140.5 1178.5,-105.5 1024.5,-105.5"/>
<polygon fill="none" stroke="#000000" points="1024.5,-105.5 1024.5,-140.5 1178.5,-140.5 1178.5,-105.5 1024.5,-105.5"/>
<text text-anchor="start" x="1031.3667" y="-118.3" font-family="Arial Bold" font-size="18.00" fill="#000000">blogs</text>
<text text-anchor="start" x="1074.3795" y="-118.3" font-family="Arial" font-size="14.00" fill="#000000"> </text>
<text text-anchor="start" x="1078.2701" y="-118.3" font-family="Arial" font-size="14.00" fill="#666666">[BASE TABLE]</text>
<polygon fill="none" stroke="#000000" points="1024.5,-75.5 1024.5,-105.5 1178.5,-105.5 1178.5,-75.5 1024.5,-75.5"/>
<text text-anchor="start" x="1031.5" y="-86.9" font-family="Arial" font-size="14.00" fill="#000000">id </text>
<text text-anchor="start" x="1046.2798" y="-86.9" font-family="Arial" font-size="14.00" fill="#666666">[int(11)]</text>
<polygon fill="none" stroke="#000000" points="1024.5,-45.5 1024.5,-75.5 1178.5,-75.5 1178.5,-45.5 1024.5,-45.5"/>
<text text-anchor="start" x="1031.5" y="-56.9" font-family="Arial" font-size="14.00" fill="#000000">created_at </text>
<text text-anchor="start" x="1101.528" y="-56.9" font-family="Arial" font-size="14.00" fill="#666666">[datetime]</text>
<polygon fill="none" stroke="#000000" stroke-width="3" points="1023,-44.5 1023,-142.5 1180,-142.5 1180,-44.5 1023,-44.5"/>
</g>
<!-- blog_server -->
<g id="node2" class="node">
<title>blog_server</title>
<polygon fill="#efefef" stroke="transparent" points="43.5,-370.5 43.5,-405.5 248.5,-405.5 248.5,-370.5 43.5,-370.5"/>
<polygon fill="none" stroke="#000000" points="43.5,-370.5 43.5,-405.5 248.5,-405.5 248.5,-370.5 43.5,-370.5"/>
<text text-anchor="start" x="50.3652" y="-383.3" font-family="Arial Bold" font-size="18.00" fill="#000000">blog_server</text>
<text text-anchor="start" x="144.381" y="-383.3" font-family="Arial" font-size="14.00" fill="#000000"> </text>
<text text-anchor="start" x="148.2716" y="-383.3" font-family="Arial" font-size="14.00" fill="#666666">[BASE TABLE]</text>
<polygon fill="none" stroke="#000000" points="43.5,-340.5 43.5,-370.5 248.5,-370.5 248.5,-340.5 43.5,-340.5"/>
<text text-anchor="start" x="50.5" y="-351.9" font-family="Arial" font-size="14.00" fill="#000000">blog_id </text>
<text text-anchor="start" x="99.5168" y="-351.9" font-family="Arial" font-size="14.00" fill="#666666">[int(11)]</text>
<polygon fill="none" stroke="#000000" points="43.5,-310.5 43.5,-340.5 248.5,-340.5 248.5,-310.5 43.5,-310.5"/>
<text text-anchor="start" x="50.5" y="-321.9" font-family="Arial" font-size="14.00" fill="#000000">server_id </text>
<text text-anchor="start" x="111.9488" y="-321.9" font-family="Arial" font-size="14.00" fill="#666666">[bigint(20)]</text>
</g>
<!-- blog_server&#45;&gt;blogs -->
<g id="edge1" class="edge">
<title>blog_server:blog_id&#45;&gt;blogs:id</title>
<path fill="none" stroke="#000000" d="M258.6858,-354.5171C304.8837,-344.5158 254.6227,-260.7803 300.5,-223 426.7591,-119.0248 860.939,-90.5 1024.5,-90.5"/>
<polygon fill="#000000" stroke="#000000" points="258.4538,-354.5394 248.0677,-351.0208 253.4769,-355.0197 248.5,-355.5 248.5,-355.5 248.5,-355.5 253.4769,-355.0197 248.9323,-359.9792 258.4538,-354.5394 258.4538,-354.5394"/>
<text text-anchor="start" x="255.996" y="-365.5" font-family="Arial" font-size="10.00" fill="#000000">FOREIGN KEY (blog_id) REFERENCES blogs (id)</text>
</g>
<!-- blog_category -->
<g id="node3" class="node">
<title>blog_category</title>
<polygon fill="#efefef" stroke="transparent" points="352.5,-385.5 352.5,-420.5 576.5,-420.5 576.5,-385.5 352.5,-385.5"/>
<polygon fill="none" stroke="#000000" points="352.5,-385.5 352.5,-420.5 576.5,-420.5 576.5,-385.5 352.5,-385.5"/>
<text text-anchor="start" x="359.354" y="-398.3" font-family="Arial Bold" font-size="18.00" fill="#000000">blog_category</text>
<text text-anchor="start" x="472.3922" y="-398.3" font-family="Arial" font-size="14.00" fill="#000000"> </text>
<text text-anchor="start" x="476.2828" y="-398.3" font-family="Arial" font-size="14.00" fill="#666666">[BASE TABLE]</text>
<polygon fill="none" stroke="#000000" points="352.5,-355.5 352.5,-385.5 576.5,-385.5 576.5,-355.5 352.5,-355.5"/>
<text text-anchor="start" x="359.5" y="-366.9" font-family="Arial" font-size="14.00" fill="#000000">blog_id </text>
<text text-anchor="start" x="408.5168" y="-366.9" font-family="Arial" font-size="14.00" fill="#666666">[int(11)]</text>
<polygon fill="none" stroke="#000000" points="352.5,-325.5 352.5,-355.5 576.5,-355.5 576.5,-325.5 352.5,-325.5"/>
<text text-anchor="start" x="359.5" y="-336.9" font-family="Arial" font-size="14.00" fill="#000000">server_id </text>
<text text-anchor="start" x="420.9488" y="-336.9" font-family="Arial" font-size="14.00" fill="#666666">[bigint(20)]</text>
<polygon fill="none" stroke="#000000" points="352.5,-295.5 352.5,-325.5 576.5,-325.5 576.5,-295.5 352.5,-295.5"/>
<text text-anchor="start" x="359.5" y="-306.9" font-family="Arial" font-size="14.00" fill="#000000">category_id </text>
<text text-anchor="start" x="435.744" y="-306.9" font-family="Arial" font-size="14.00" fill="#666666">[bigint(20)]</text>
</g>
<!-- blog_category&#45;&gt;blogs -->
<g id="edge2" class="edge">
<title>blog_category:blog_id&#45;&gt;blogs:id</title>
<path fill="none" stroke="#000000" d="M586.7201,-369.6384C639.0248,-359.8493 581.6655,-269.0887 628.5,-223 760.7814,-92.825 838.9093,-90.5 1024.5,-90.5"/>
<polygon fill="#000000" stroke="#000000" points="586.4647,-369.6598 576.1219,-366.0159 581.4823,-370.0799 576.5,-370.5 576.5,-370.5 576.5,-370.5 581.4823,-370.0799 576.8781,-374.9841 586.4647,-369.6598 586.4647,-369.6598"/>
<text text-anchor="start" x="524.246" y="-354.5" font-family="Arial" font-size="10.00" fill="#000000">FOREIGN KEY (blog_id) REFERENCES blogs (id)</text>
</g>
<!-- blog_channel -->
<g id="node4" class="node">
<title>blog_channel</title>
<polygon fill="#efefef" stroke="transparent" points="680.5,-370.5 680.5,-405.5 898.5,-405.5 898.5,-370.5 680.5,-370.5"/>
<polygon fill="none" stroke="#000000" points="680.5,-370.5 680.5,-405.5 898.5,-405.5 898.5,-370.5 680.5,-370.5"/>
<text text-anchor="start" x="687.351" y="-383.3" font-family="Arial Bold" font-size="18.00" fill="#000000">blog_channel</text>
<text text-anchor="start" x="794.3952" y="-383.3" font-family="Arial" font-size="14.00" fill="#000000"> </text>
<text text-anchor="start" x="798.2858" y="-383.3" font-family="Arial" font-size="14.00" fill="#666666">[BASE TABLE]</text>
<polygon fill="none" stroke="#000000" points="680.5,-340.5 680.5,-370.5 898.5,-370.5 898.5,-340.5 680.5,-340.5"/>
<text text-anchor="start" x="687.5" y="-351.9" font-family="Arial" font-size="14.00" fill="#000000">blog_id </text>
<text text-anchor="start" x="736.5168" y="-351.9" font-family="Arial" font-size="14.00" fill="#666666">[int(11)]</text>
<polygon fill="none" stroke="#000000" points="680.5,-310.5 680.5,-340.5 898.5,-340.5 898.5,-310.5 680.5,-310.5"/>
<text text-anchor="start" x="687.5" y="-321.9" font-family="Arial" font-size="14.00" fill="#000000">channel_id </text>
<text text-anchor="start" x="759.082" y="-321.9" font-family="Arial" font-size="14.00" fill="#666666">[bigint(20)]</text>
</g>
<!-- blog_channel&#45;&gt;blogs -->
<g id="edge3" class="edge">
<title>blog_channel:blog_id&#45;&gt;blogs:id</title>
<path fill="none" stroke="#000000" d="M908.6077,-354.7431C957.4974,-346.7369 925.0438,-276.8401 950.5,-223 979.3312,-162.0218 957.0494,-90.5 1024.5,-90.5"/>
<polygon fill="#000000" stroke="#000000" points="908.4721,-354.7532 898.1639,-351.0126 903.486,-355.1266 898.5,-355.5 898.5,-355.5 898.5,-355.5 903.486,-355.1266 898.8361,-359.9874 908.4721,-354.7532 908.4721,-354.7532"/>
<text text-anchor="start" x="905.996" y="-365.5" font-family="Arial" font-size="10.00" fill="#000000">FOREIGN KEY (blog_id) REFERENCES blogs (id)</text>
</g>
<!-- blog_detail -->
<g id="node5" class="node">
<title>blog_detail</title>
<polygon fill="#efefef" stroke="transparent" points="1002.5,-400.5 1002.5,-435.5 1200.5,-435.5 1200.5,-400.5 1002.5,-400.5"/>
<polygon fill="none" stroke="#000000" points="1002.5,-400.5 1002.5,-435.5 1200.5,-435.5 1200.5,-400.5 1002.5,-400.5"/>
<text text-anchor="start" x="1009.359" y="-413.3" font-family="Arial Bold" font-size="18.00" fill="#000000">blog_detail</text>
<text text-anchor="start" x="1096.3872" y="-413.3" font-family="Arial" font-size="14.00" fill="#000000"> </text>
<text text-anchor="start" x="1100.2778" y="-413.3" font-family="Arial" font-size="14.00" fill="#666666">[BASE TABLE]</text>
<polygon fill="none" stroke="#000000" points="1002.5,-370.5 1002.5,-400.5 1200.5,-400.5 1200.5,-370.5 1002.5,-370.5"/>
<text text-anchor="start" x="1009.5" y="-381.9" font-family="Arial" font-size="14.00" fill="#000000">blog_id </text>
<text text-anchor="start" x="1058.5168" y="-381.9" font-family="Arial" font-size="14.00" fill="#666666">[int(11)]</text>
<polygon fill="none" stroke="#000000" points="1002.5,-340.5 1002.5,-370.5 1200.5,-370.5 1200.5,-340.5 1002.5,-340.5"/>
<text text-anchor="start" x="1009.5" y="-351.9" font-family="Arial" font-size="14.00" fill="#000000">blog_channel </text>
<text text-anchor="start" x="1096.6472" y="-351.9" font-family="Arial" font-size="14.00" fill="#666666">[bigint(20)]</text>
<polygon fill="none" stroke="#000000" points="1002.5,-310.5 1002.5,-340.5 1200.5,-340.5 1200.5,-310.5 1002.5,-310.5"/>
<text text-anchor="start" x="1009.5" y="-321.9" font-family="Arial" font-size="14.00" fill="#000000">total_post </text>
<text text-anchor="start" x="1074.082" y="-321.9" font-family="Arial" font-size="14.00" fill="#666666">[int(11)]</text>
<polygon fill="none" stroke="#000000" points="1002.5,-280.5 1002.5,-310.5 1200.5,-310.5 1200.5,-280.5 1002.5,-280.5"/>
<text text-anchor="start" x="1009.5" y="-291.9" font-family="Arial" font-size="14.00" fill="#000000">created_at </text>
<text text-anchor="start" x="1079.528" y="-291.9" font-family="Arial" font-size="14.00" fill="#666666">[datetime]</text>
</g>
<!-- blog_detail&#45;&gt;blogs -->
<g id="edge4" class="edge">
<title>blog_detail:blog_id&#45;&gt;blogs:id</title>
<path fill="none" stroke="#000000" d="M1210.5051,-382.9497C1263.7005,-354.1166 1240.6426,-90.5 1178.5,-90.5"/>
<polygon fill="#000000" stroke="#000000" points="1210.1902,-383.0299 1199.3885,-381.1394 1205.3451,-384.265 1200.5,-385.5 1200.5,-385.5 1200.5,-385.5 1205.3451,-384.265 1201.6115,-389.8606 1210.1902,-383.0299 1210.1902,-383.0299"/>
<text text-anchor="start" x="1148.246" y="-369.5" font-family="Arial" font-size="10.00" fill="#000000">FOREIGN KEY (blog_id) REFERENCES blogs (id)</text>
</g>
<!-- blog_user_detail -->
<g id="node6" class="node">
<title>blog_user_detail</title>
<polygon fill="#efefef" stroke="transparent" points="1305.5,-415.5 1305.5,-450.5 1548.5,-450.5 1548.5,-415.5 1305.5,-415.5"/>
<polygon fill="none" stroke="#000000" points="1305.5,-415.5 1305.5,-450.5 1548.5,-450.5 1548.5,-415.5 1305.5,-415.5"/>
<text text-anchor="start" x="1312.3536" y="-428.3" font-family="Arial Bold" font-size="18.00" fill="#000000">blog_user_detail</text>
<text text-anchor="start" x="1444.3926" y="-428.3" font-family="Arial" font-size="14.00" fill="#000000"> </text>
<text text-anchor="start" x="1448.2832" y="-428.3" font-family="Arial" font-size="14.00" fill="#666666">[BASE TABLE]</text>
<polygon fill="none" stroke="#000000" points="1305.5,-385.5 1305.5,-415.5 1548.5,-415.5 1548.5,-385.5 1305.5,-385.5"/>
<text text-anchor="start" x="1312.5" y="-396.9" font-family="Arial" font-size="14.00" fill="#000000">blog_id </text>
<text text-anchor="start" x="1361.5168" y="-396.9" font-family="Arial" font-size="14.00" fill="#666666">[int(11)]</text>
<polygon fill="none" stroke="#000000" points="1305.5,-355.5 1305.5,-385.5 1548.5,-385.5 1548.5,-355.5 1305.5,-355.5"/>
<text text-anchor="start" x="1312.5" y="-366.9" font-family="Arial" font-size="14.00" fill="#000000">channel_id </text>
<text text-anchor="start" x="1384.082" y="-366.9" font-family="Arial" font-size="14.00" fill="#666666">[bigint(20)]</text>
<polygon fill="none" stroke="#000000" points="1305.5,-325.5 1305.5,-355.5 1548.5,-355.5 1548.5,-325.5 1305.5,-325.5"/>
<text text-anchor="start" x="1312.5" y="-336.9" font-family="Arial" font-size="14.00" fill="#000000">user_id </text>
<text text-anchor="start" x="1362.2882" y="-336.9" font-family="Arial" font-size="14.00" fill="#666666">[int(11)]</text>
<polygon fill="none" stroke="#000000" points="1305.5,-295.5 1305.5,-325.5 1548.5,-325.5 1548.5,-295.5 1305.5,-295.5"/>
<text text-anchor="start" x="1312.5" y="-306.9" font-family="Arial" font-size="14.00" fill="#000000">total_post </text>
<text text-anchor="start" x="1377.082" y="-306.9" font-family="Arial" font-size="14.00" fill="#666666">[int(11)]</text>
<polygon fill="none" stroke="#000000" points="1305.5,-265.5 1305.5,-295.5 1548.5,-295.5 1548.5,-265.5 1305.5,-265.5"/>
<text text-anchor="start" x="1312.5" y="-276.9" font-family="Arial" font-size="14.00" fill="#000000">created_at </text>
<text text-anchor="start" x="1382.528" y="-276.9" font-family="Arial" font-size="14.00" fill="#666666">[datetime]</text>
</g>
<!-- blog_user_detail&#45;&gt;blogs -->
<g id="edge5" class="edge">
<title>blog_user_detail:blog_id&#45;&gt;blogs:id</title>
<path fill="none" stroke="#000000" d="M1295.2531,-399.8961C1228.4949,-391.4185 1283.1028,-295.4326 1252.5,-223 1226.249,-160.8674 1245.9506,-90.5 1178.5,-90.5"/>
<polygon fill="#000000" stroke="#000000" points="1295.5173,-399.9116 1305.2352,-404.9922 1300.5087,-400.2058 1305.5,-400.5 1305.5,-400.5 1305.5,-400.5 1300.5087,-400.2058 1305.7648,-396.0078 1295.5173,-399.9116 1295.5173,-399.9116"/>
<text text-anchor="start" x="1073.996" y="-410.5" font-family="Arial" font-size="10.00" fill="#000000">FOREIGN KEY (blog_id) REFERENCES blogs (id)</text>
</g>
<!-- blog_xp -->
<g id="node7" class="node">
<title>blog_xp</title>
<polygon fill="#efefef" stroke="transparent" points="1652.5,-400.5 1652.5,-435.5 1851.5,-435.5 1851.5,-400.5 1652.5,-400.5"/>
<polygon fill="none" stroke="#000000" points="1652.5,-400.5 1652.5,-435.5 1851.5,-435.5 1851.5,-400.5 1652.5,-400.5"/>
<text text-anchor="start" x="1671.8605" y="-413.3" font-family="Arial Bold" font-size="18.00" fill="#000000">blog_xp</text>
<text text-anchor="start" x="1734.8857" y="-413.3" font-family="Arial" font-size="14.00" fill="#000000"> </text>
<text text-anchor="start" x="1738.7763" y="-413.3" font-family="Arial" font-size="14.00" fill="#666666">[BASE TABLE]</text>
<polygon fill="none" stroke="#000000" points="1652.5,-370.5 1652.5,-400.5 1851.5,-400.5 1851.5,-370.5 1652.5,-370.5"/>
<text text-anchor="start" x="1659.5" y="-381.9" font-family="Arial" font-size="14.00" fill="#000000">blog_id </text>
<text text-anchor="start" x="1708.5168" y="-381.9" font-family="Arial" font-size="14.00" fill="#666666">[int(11)]</text>
<polygon fill="none" stroke="#000000" points="1652.5,-340.5 1652.5,-370.5 1851.5,-370.5 1851.5,-340.5 1652.5,-340.5"/>
<text text-anchor="start" x="1659.5" y="-351.9" font-family="Arial" font-size="14.00" fill="#000000">xp </text>
<text text-anchor="start" x="1678.1732" y="-351.9" font-family="Arial" font-size="14.00" fill="#666666">[bigint(20)]</text>
<polygon fill="none" stroke="#000000" points="1652.5,-310.5 1652.5,-340.5 1851.5,-340.5 1851.5,-310.5 1652.5,-310.5"/>
<text text-anchor="start" x="1659.5" y="-321.9" font-family="Arial" font-size="14.00" fill="#000000">level </text>
<text text-anchor="start" x="1692.169" y="-321.9" font-family="Arial" font-size="14.00" fill="#666666">[int(11)]</text>
<polygon fill="none" stroke="#000000" points="1652.5,-280.5 1652.5,-310.5 1851.5,-310.5 1851.5,-280.5 1652.5,-280.5"/>
<text text-anchor="start" x="1659.0288" y="-291.9" font-family="Arial" font-size="14.00" fill="#000000">xp_saved_levelup_xp </text>
<text text-anchor="start" x="1797.5238" y="-291.9" font-family="Arial" font-size="14.00" fill="#666666">[int(11)]</text>
</g>
<!-- blog_xp&#45;&gt;blogs -->
<g id="edge6" class="edge">
<title>blog_xp:blog_id&#45;&gt;blogs:id</title>
<path fill="none" stroke="#000000" d="M1642.4563,-384.7393C1583.9347,-374.9853 1651.641,-273.862 1600.5,-223 1530.8075,-153.6876 1276.7916,-90.5 1178.5,-90.5"/>
<polygon fill="#000000" stroke="#000000" points="1642.5286,-384.7447 1652.1601,-389.9871 1647.5143,-385.1224 1652.5,-385.5 1652.5,-385.5 1652.5,-385.5 1647.5143,-385.1224 1652.8399,-381.0129 1642.5286,-384.7447 1642.5286,-384.7447"/>
<text text-anchor="start" x="1420.996" y="-395.5" font-family="Arial" font-size="10.00" fill="#000000">FOREIGN KEY (blog_id) REFERENCES blogs (id)</text>
</g>
<!-- blog_user_xp -->
<g id="node8" class="node">
<title>blog_user_xp</title>
<polygon fill="#efefef" stroke="transparent" points="1955.5,-400.5 1955.5,-435.5 2174.5,-435.5 2174.5,-400.5 1955.5,-400.5"/>
<polygon fill="none" stroke="#000000" points="1955.5,-400.5 1955.5,-435.5 2174.5,-435.5 2174.5,-400.5 1955.5,-400.5"/>
<text text-anchor="start" x="1962.3551" y="-413.3" font-family="Arial Bold" font-size="18.00" fill="#000000">blog_user_xp</text>
<text text-anchor="start" x="2070.3911" y="-413.3" font-family="Arial" font-size="14.00" fill="#000000"> </text>
<text text-anchor="start" x="2074.2817" y="-413.3" font-family="Arial" font-size="14.00" fill="#666666">[BASE TABLE]</text>
<polygon fill="none" stroke="#000000" points="1955.5,-370.5 1955.5,-400.5 2174.5,-400.5 2174.5,-370.5 1955.5,-370.5"/>
<text text-anchor="start" x="1962.5" y="-381.9" font-family="Arial" font-size="14.00" fill="#000000">blog_id </text>
<text text-anchor="start" x="2011.5168" y="-381.9" font-family="Arial" font-size="14.00" fill="#666666">[int(11)]</text>
<polygon fill="none" stroke="#000000" points="1955.5,-340.5 1955.5,-370.5 2174.5,-370.5 2174.5,-340.5 1955.5,-340.5"/>
<text text-anchor="start" x="1962.5" y="-351.9" font-family="Arial" font-size="14.00" fill="#000000">xp </text>
<text text-anchor="start" x="1981.1732" y="-351.9" font-family="Arial" font-size="14.00" fill="#666666">[bigint(20)]</text>
<polygon fill="none" stroke="#000000" points="1955.5,-310.5 1955.5,-340.5 2174.5,-340.5 2174.5,-310.5 1955.5,-310.5"/>
<text text-anchor="start" x="1962.5" y="-321.9" font-family="Arial" font-size="14.00" fill="#000000">level </text>
<text text-anchor="start" x="1995.169" y="-321.9" font-family="Arial" font-size="14.00" fill="#666666">[int(11)]</text>
<polygon fill="none" stroke="#000000" points="1955.5,-280.5 1955.5,-310.5 2174.5,-310.5 2174.5,-280.5 1955.5,-280.5"/>
<text text-anchor="start" x="1962.5" y="-291.9" font-family="Arial" font-size="14.00" fill="#000000">xp_saved_levelup_xp </text>
<text text-anchor="start" x="2100.995" y="-291.9" font-family="Arial" font-size="14.00" fill="#666666">[int(11)]</text>
</g>
<!-- blog_user_xp&#45;&gt;blogs -->
<g id="edge7" class="edge">
<title>blog_user_xp:blog_id&#45;&gt;blogs:id</title>
<path fill="none" stroke="#000000" d="M1945.4781,-384.7161C1887.2316,-374.6677 1957.6815,-270.6099 1903.5,-223 1780.4699,-114.8919 1342.2796,-90.5 1178.5,-90.5"/>
<polygon fill="#000000" stroke="#000000" points="1945.5305,-384.7201 1955.149,-389.9863 1950.5152,-385.11 1955.5,-385.5 1955.5,-385.5 1955.5,-385.5 1950.5152,-385.11 1955.851,-381.0137 1945.5305,-384.7201 1945.5305,-384.7201"/>
<text text-anchor="start" x="1903.246" y="-369.5" font-family="Arial" font-size="10.00" fill="#000000">FOREIGN KEY (blog_id) REFERENCES blogs (id)</text>
</g>
</g>
</svg>
