<?xml version="1.0" encoding="UTF-8" standalone="no"?>
<!DOCTYPE svg PUBLIC "-//W3C//DTD SVG 1.1//EN"
 "http://www.w3.org/Graphics/SVG/1.1/DTD/svg11.dtd">
<!-- Generated by graphviz version 2.40.1 (20161225.0304)
 -->
<!-- Title: blog_category Pages: 1 -->
<svg width="780pt" height="442pt"
 viewBox="0.00 0.00 780.00 442.00" xmlns="http://www.w3.org/2000/svg" xmlns:xlink="http://www.w3.org/1999/xlink">
<g id="graph0" class="graph" transform="scale(1 1) rotate(0) translate(4 438)">
<title>blog_category</title>
<polygon fill="#ffffff" stroke="transparent" points="-4,4 -4,-438 776,-438 776,4 -4,4"/>
<!-- blog_category -->
<g id="node1" class="node">
<title>blog_category</title>
<polygon fill="#efefef" stroke="transparent" points="239,-352.5 239,-387.5 463,-387.5 463,-352.5 239,-352.5"/>
<polygon fill="none" stroke="#000000" points="239,-352.5 239,-387.5 463,-387.5 463,-352.5 239,-352.5"/>
<text text-anchor="start" x="245.854" y="-365.3" font-family="Arial Bold" font-size="18.00" fill="#000000">blog_category</text>
<text text-anchor="start" x="358.8922" y="-365.3" font-family="Arial" font-size="14.00" fill="#000000"> </text>
<text text-anchor="start" x="362.7828" y="-365.3" font-family="Arial" font-size="14.00" fill="#666666">[BASE TABLE]</text>
<polygon fill="none" stroke="#000000" points="239,-322.5 239,-352.5 463,-352.5 463,-322.5 239,-322.5"/>
<text text-anchor="start" x="246" y="-333.9" font-family="Arial" font-size="14.00" fill="#000000">blog_id </text>
<text text-anchor="start" x="295.0168" y="-333.9" font-family="Arial" font-size="14.00" fill="#666666">[int(11)]</text>
<polygon fill="none" stroke="#000000" points="239,-292.5 239,-322.5 463,-322.5 463,-292.5 239,-292.5"/>
<text text-anchor="start" x="246" y="-303.9" font-family="Arial" font-size="14.00" fill="#000000">server_id </text>
<text text-anchor="start" x="307.4488" y="-303.9" font-family="Arial" font-size="14.00" fill="#666666">[bigint(20)]</text>
<polygon fill="none" stroke="#000000" points="239,-262.5 239,-292.5 463,-292.5 463,-262.5 239,-262.5"/>
<text text-anchor="start" x="246" y="-273.9" font-family="Arial" font-size="14.00" fill="#000000">category_id </text>
<text text-anchor="start" x="322.244" y="-273.9" font-family="Arial" font-size="14.00" fill="#666666">[bigint(20)]</text>
<polygon fill="none" stroke="#000000" stroke-width="3" points="237.5,-261.5 237.5,-389.5 464.5,-389.5 464.5,-261.5 237.5,-261.5"/>
</g>
<!-- blogs -->
<g id="node2" class="node">
<title>blogs</title>
<polygon fill="#efefef" stroke="transparent" points="132,-102.5 132,-137.5 286,-137.5 286,-102.5 132,-102.5"/>
<polygon fill="none" stroke="#000000" points="132,-102.5 132,-137.5 286,-137.5 286,-102.5 132,-102.5"/>
<text text-anchor="start" x="138.8667" y="-115.3" font-family="Arial Bold" font-size="18.00" fill="#000000">blogs</text>
<text text-anchor="start" x="181.8795" y="-115.3" font-family="Arial" font-size="14.00" fill="#000000"> </text>
<text text-anchor="start" x="185.7701" y="-115.3" font-family="Arial" font-size="14.00" fill="#666666">[BASE TABLE]</text>
<polygon fill="none" stroke="#000000" points="132,-72.5 132,-102.5 286,-102.5 286,-72.5 132,-72.5"/>
<text text-anchor="start" x="139" y="-83.9" font-family="Arial" font-size="14.00" fill="#000000">id </text>
<text text-anchor="start" x="153.7798" y="-83.9" font-family="Arial" font-size="14.00" fill="#666666">[int(11)]</text>
<polygon fill="none" stroke="#000000" points="132,-42.5 132,-72.5 286,-72.5 286,-42.5 132,-42.5"/>
<text text-anchor="start" x="139" y="-53.9" font-family="Arial" font-size="14.00" fill="#000000">created_at </text>
<text text-anchor="start" x="209.028" y="-53.9" font-family="Arial" font-size="14.00" fill="#666666">[datetime]</text>
</g>
<!-- blog_category&#45;&gt;blogs -->
<g id="edge1" class="edge">
<title>blog_category:blog_id&#45;&gt;blogs:id</title>
<path fill="none" stroke="#000000" d="M228.7902,-337.3947C21.8354,-332.9952 280.509,-192.1226 286,-181 304.3956,-143.7379 327.5556,-87.5 286,-87.5"/>
<polygon fill="#000000" stroke="#000000" points="229.0005,-337.3968 238.9536,-341.9998 234.0003,-337.4484 239,-337.5 239,-337.5 239,-337.5 234.0003,-337.4484 239.0464,-333.0002 229.0005,-337.3968 229.0005,-337.3968"/>
<text text-anchor="start" x="7.496" y="-347.5" font-family="Arial" font-size="10.00" fill="#000000">FOREIGN KEY (blog_id) REFERENCES blogs (id)</text>
</g>
<!-- blog_server -->
<g id="node3" class="node">
<title>blog_server</title>
<polygon fill="#efefef" stroke="transparent" points="391,-102.5 391,-137.5 596,-137.5 596,-102.5 391,-102.5"/>
<polygon fill="none" stroke="#000000" points="391,-102.5 391,-137.5 596,-137.5 596,-102.5 391,-102.5"/>
<text text-anchor="start" x="397.8652" y="-115.3" font-family="Arial Bold" font-size="18.00" fill="#000000">blog_server</text>
<text text-anchor="start" x="491.881" y="-115.3" font-family="Arial" font-size="14.00" fill="#000000"> </text>
<text text-anchor="start" x="495.7716" y="-115.3" font-family="Arial" font-size="14.00" fill="#666666">[BASE TABLE]</text>
<polygon fill="none" stroke="#000000" points="391,-72.5 391,-102.5 596,-102.5 596,-72.5 391,-72.5"/>
<text text-anchor="start" x="398" y="-83.9" font-family="Arial" font-size="14.00" fill="#000000">blog_id </text>
<text text-anchor="start" x="447.0168" y="-83.9" font-family="Arial" font-size="14.00" fill="#666666">[int(11)]</text>
<polygon fill="none" stroke="#000000" points="391,-42.5 391,-72.5 596,-72.5 596,-42.5 391,-42.5"/>
<text text-anchor="start" x="398" y="-53.9" font-family="Arial" font-size="14.00" fill="#000000">server_id </text>
<text text-anchor="start" x="459.4488" y="-53.9" font-family="Arial" font-size="14.00" fill="#666666">[bigint(20)]</text>
</g>
<!-- blog_category&#45;&gt;blog_server -->
<g id="edge2" class="edge">
<title>blog_category:server_id&#45;&gt;blog_server:server_id</title>
<path fill="none" stroke="#000000" d="M473.1406,-305.9626C499.4767,-296.7173 482.081,-247.8738 463,-217 444.1909,-186.5662 409.8091,-211.4338 391,-181 362.1432,-134.3087 336.1111,-57.5 391,-57.5"/>
<polygon fill="#000000" stroke="#000000" points="472.887,-306.001 462.3255,-303.0508 467.9435,-306.7505 463,-307.5 463,-307.5 463,-307.5 467.9435,-306.7505 463.6745,-311.9492 472.887,-306.001 472.887,-306.001"/>
<text text-anchor="start" x="470.221" y="-317.5" font-family="Arial" font-size="10.00" fill="#000000">FOREIGN KEY (server_id) REFERENCES blog_server (server_id)</text>
</g>
</g>
</svg>
