<?xml version="1.0" encoding="UTF-8" standalone="no"?>
<!DOCTYPE svg PUBLIC "-//W3C//DTD SVG 1.1//EN"
 "http://www.w3.org/Graphics/SVG/1.1/DTD/svg11.dtd">
<!-- Generated by graphviz version 2.40.1 (20161225.0304)
 -->
<!-- Title: blog_channel Pages: 1 -->
<svg width="786pt" height="719pt"
 viewBox="0.00 0.00 786.00 719.00" xmlns="http://www.w3.org/2000/svg" xmlns:xlink="http://www.w3.org/1999/xlink">
<g id="graph0" class="graph" transform="scale(1 1) rotate(0) translate(4 715)">
<title>blog_channel</title>
<polygon fill="#ffffff" stroke="transparent" points="-4,4 -4,-715 782,-715 782,4 -4,4"/>
<!-- blog_channel -->
<g id="node1" class="node">
<title>blog_channel</title>
<polygon fill="#efefef" stroke="transparent" points="297,-322.5 297,-357.5 515,-357.5 515,-322.5 297,-322.5"/>
<polygon fill="none" stroke="#000000" points="297,-322.5 297,-357.5 515,-357.5 515,-322.5 297,-322.5"/>
<text text-anchor="start" x="303.851" y="-335.3" font-family="Arial Bold" font-size="18.00" fill="#000000">blog_channel</text>
<text text-anchor="start" x="410.8952" y="-335.3" font-family="Arial" font-size="14.00" fill="#000000"> </text>
<text text-anchor="start" x="414.7858" y="-335.3" font-family="Arial" font-size="14.00" fill="#666666">[BASE TABLE]</text>
<polygon fill="none" stroke="#000000" points="297,-292.5 297,-322.5 515,-322.5 515,-292.5 297,-292.5"/>
<text text-anchor="start" x="304" y="-303.9" font-family="Arial" font-size="14.00" fill="#000000">blog_id </text>
<text text-anchor="start" x="353.0168" y="-303.9" font-family="Arial" font-size="14.00" fill="#666666">[int(11)]</text>
<polygon fill="none" stroke="#000000" points="297,-262.5 297,-292.5 515,-292.5 515,-262.5 297,-262.5"/>
<text text-anchor="start" x="304" y="-273.9" font-family="Arial" font-size="14.00" fill="#000000">channel_id </text>
<text text-anchor="start" x="375.582" y="-273.9" font-family="Arial" font-size="14.00" fill="#666666">[bigint(20)]</text>
<polygon fill="none" stroke="#000000" stroke-width="3" points="295.5,-261.5 295.5,-359.5 516.5,-359.5 516.5,-261.5 295.5,-261.5"/>
</g>
<!-- blogs -->
<g id="node2" class="node">
<title>blogs</title>
<polygon fill="#efefef" stroke="transparent" points="329,-102.5 329,-137.5 483,-137.5 483,-102.5 329,-102.5"/>
<polygon fill="none" stroke="#000000" points="329,-102.5 329,-137.5 483,-137.5 483,-102.5 329,-102.5"/>
<text text-anchor="start" x="335.8667" y="-115.3" font-family="Arial Bold" font-size="18.00" fill="#000000">blogs</text>
<text text-anchor="start" x="378.8795" y="-115.3" font-family="Arial" font-size="14.00" fill="#000000"> </text>
<text text-anchor="start" x="382.7701" y="-115.3" font-family="Arial" font-size="14.00" fill="#666666">[BASE TABLE]</text>
<polygon fill="none" stroke="#000000" points="329,-72.5 329,-102.5 483,-102.5 483,-72.5 329,-72.5"/>
<text text-anchor="start" x="336" y="-83.9" font-family="Arial" font-size="14.00" fill="#000000">id </text>
<text text-anchor="start" x="350.7798" y="-83.9" font-family="Arial" font-size="14.00" fill="#666666">[int(11)]</text>
<polygon fill="none" stroke="#000000" points="329,-42.5 329,-72.5 483,-72.5 483,-42.5 329,-42.5"/>
<text text-anchor="start" x="336" y="-53.9" font-family="Arial" font-size="14.00" fill="#000000">created_at </text>
<text text-anchor="start" x="406.028" y="-53.9" font-family="Arial" font-size="14.00" fill="#666666">[datetime]</text>
</g>
<!-- blog_channel&#45;&gt;blogs -->
<g id="edge1" class="edge">
<title>blog_channel:blog_id&#45;&gt;blogs:id</title>
<path fill="none" stroke="#000000" d="M525.2012,-306.6591C611.407,-291.8888 578.2365,-87.5 483,-87.5"/>
<polygon fill="#000000" stroke="#000000" points="524.9662,-306.6784 514.6303,-303.0152 519.9831,-307.0892 515,-307.5 515,-307.5 515,-307.5 519.9831,-307.0892 515.3697,-311.9848 524.9662,-306.6784 524.9662,-306.6784"/>
<text text-anchor="start" x="522.496" y="-317.5" font-family="Arial" font-size="10.00" fill="#000000">FOREIGN KEY (blog_id) REFERENCES blogs (id)</text>
</g>
<!-- blog_detail -->
<g id="node3" class="node">
<title>blog_detail</title>
<polygon fill="#efefef" stroke="transparent" points="144,-617.5 144,-652.5 342,-652.5 342,-617.5 144,-617.5"/>
<polygon fill="none" stroke="#000000" points="144,-617.5 144,-652.5 342,-652.5 342,-617.5 144,-617.5"/>
<text text-anchor="start" x="150.859" y="-630.3" font-family="Arial Bold" font-size="18.00" fill="#000000">blog_detail</text>
<text text-anchor="start" x="237.8872" y="-630.3" font-family="Arial" font-size="14.00" fill="#000000"> </text>
<text text-anchor="start" x="241.7778" y="-630.3" font-family="Arial" font-size="14.00" fill="#666666">[BASE TABLE]</text>
<polygon fill="none" stroke="#000000" points="144,-587.5 144,-617.5 342,-617.5 342,-587.5 144,-587.5"/>
<text text-anchor="start" x="151" y="-598.9" font-family="Arial" font-size="14.00" fill="#000000">blog_id </text>
<text text-anchor="start" x="200.0168" y="-598.9" font-family="Arial" font-size="14.00" fill="#666666">[int(11)]</text>
<polygon fill="none" stroke="#000000" points="144,-557.5 144,-587.5 342,-587.5 342,-557.5 144,-557.5"/>
<text text-anchor="start" x="151" y="-568.9" font-family="Arial" font-size="14.00" fill="#000000">blog_channel </text>
<text text-anchor="start" x="238.1472" y="-568.9" font-family="Arial" font-size="14.00" fill="#666666">[bigint(20)]</text>
<polygon fill="none" stroke="#000000" points="144,-527.5 144,-557.5 342,-557.5 342,-527.5 144,-527.5"/>
<text text-anchor="start" x="151" y="-538.9" font-family="Arial" font-size="14.00" fill="#000000">total_post </text>
<text text-anchor="start" x="215.582" y="-538.9" font-family="Arial" font-size="14.00" fill="#666666">[int(11)]</text>
<polygon fill="none" stroke="#000000" points="144,-497.5 144,-527.5 342,-527.5 342,-497.5 144,-497.5"/>
<text text-anchor="start" x="151" y="-508.9" font-family="Arial" font-size="14.00" fill="#000000">created_at </text>
<text text-anchor="start" x="221.028" y="-508.9" font-family="Arial" font-size="14.00" fill="#666666">[datetime]</text>
</g>
<!-- blog_detail&#45;&gt;blog_channel -->
<g id="edge2" class="edge">
<title>blog_detail:blog_channel&#45;&gt;blog_channel:channel_id</title>
<path fill="none" stroke="#000000" d="M352.2482,-571.4017C389.2962,-562.4184 359.0986,-500.2218 342,-455 331.3091,-426.7249 307.6909,-432.2751 297,-404 277.116,-351.4114 240.7778,-277.5 297,-277.5"/>
<polygon fill="#000000" stroke="#000000" points="351.9431,-571.4343 341.5204,-568.0256 346.9715,-571.9671 342,-572.5 342,-572.5 342,-572.5 346.9715,-571.9671 342.4796,-576.9744 351.9431,-571.4343 351.9431,-571.4343"/>
<text text-anchor="start" x="6.805" y="-582.5" font-family="Arial" font-size="10.00" fill="#000000">FOREIGN KEY (blog_channel) REFERENCES blog_channel (channel_id)</text>
</g>
<!-- blog_user_detail -->
<g id="node4" class="node">
<title>blog_user_detail</title>
<polygon fill="#efefef" stroke="transparent" points="447,-632.5 447,-667.5 690,-667.5 690,-632.5 447,-632.5"/>
<polygon fill="none" stroke="#000000" points="447,-632.5 447,-667.5 690,-667.5 690,-632.5 447,-632.5"/>
<text text-anchor="start" x="453.8536" y="-645.3" font-family="Arial Bold" font-size="18.00" fill="#000000">blog_user_detail</text>
<text text-anchor="start" x="585.8926" y="-645.3" font-family="Arial" font-size="14.00" fill="#000000"> </text>
<text text-anchor="start" x="589.7832" y="-645.3" font-family="Arial" font-size="14.00" fill="#666666">[BASE TABLE]</text>
<polygon fill="none" stroke="#000000" points="447,-602.5 447,-632.5 690,-632.5 690,-602.5 447,-602.5"/>
<text text-anchor="start" x="454" y="-613.9" font-family="Arial" font-size="14.00" fill="#000000">blog_id </text>
<text text-anchor="start" x="503.0168" y="-613.9" font-family="Arial" font-size="14.00" fill="#666666">[int(11)]</text>
<polygon fill="none" stroke="#000000" points="447,-572.5 447,-602.5 690,-602.5 690,-572.5 447,-572.5"/>
<text text-anchor="start" x="454" y="-583.9" font-family="Arial" font-size="14.00" fill="#000000">channel_id </text>
<text text-anchor="start" x="525.582" y="-583.9" font-family="Arial" font-size="14.00" fill="#666666">[bigint(20)]</text>
<polygon fill="none" stroke="#000000" points="447,-542.5 447,-572.5 690,-572.5 690,-542.5 447,-542.5"/>
<text text-anchor="start" x="454" y="-553.9" font-family="Arial" font-size="14.00" fill="#000000">user_id </text>
<text text-anchor="start" x="503.7882" y="-553.9" font-family="Arial" font-size="14.00" fill="#666666">[int(11)]</text>
<polygon fill="none" stroke="#000000" points="447,-512.5 447,-542.5 690,-542.5 690,-512.5 447,-512.5"/>
<text text-anchor="start" x="454" y="-523.9" font-family="Arial" font-size="14.00" fill="#000000">total_post </text>
<text text-anchor="start" x="518.582" y="-523.9" font-family="Arial" font-size="14.00" fill="#666666">[int(11)]</text>
<polygon fill="none" stroke="#000000" points="447,-482.5 447,-512.5 690,-512.5 690,-482.5 447,-482.5"/>
<text text-anchor="start" x="454" y="-493.9" font-family="Arial" font-size="14.00" fill="#000000">created_at </text>
<text text-anchor="start" x="524.028" y="-493.9" font-family="Arial" font-size="14.00" fill="#666666">[datetime]</text>
</g>
<!-- blog_user_detail&#45;&gt;blog_channel -->
<g id="edge3" class="edge">
<title>blog_user_detail:channel_id&#45;&gt;blog_channel:channel_id</title>
<path fill="none" stroke="#000000" d="M436.7798,-586.6439C385.0468,-577.2659 415.1013,-492.9807 447,-440 464.6386,-410.7039 497.3614,-433.2961 515,-404 543.9998,-355.8341 571.2222,-277.5 515,-277.5"/>
<polygon fill="#000000" stroke="#000000" points="437.0349,-586.6652 446.6243,-591.9843 442.0174,-587.0826 447,-587.5 447,-587.5 447,-587.5 442.0174,-587.0826 447.3757,-583.0157 437.0349,-586.6652 437.0349,-586.6652"/>
<text text-anchor="start" x="454.364" y="-597.5" font-family="Arial" font-size="10.00" fill="#000000">FOREIGN KEY (channel_id) REFERENCES blog_channel (channel_id)</text>
</g>
</g>
</svg>
