<?xml version="1.0" encoding="UTF-8" standalone="no"?>
<!DOCTYPE svg PUBLIC "-//W3C//DTD SVG 1.1//EN"
 "http://www.w3.org/Graphics/SVG/1.1/DTD/svg11.dtd">
<!-- Generated by graphviz version 2.40.1 (20161225.0304)
 -->
<!-- Title: blog_user_detail Pages: 1 -->
<svg width="821pt" height="502pt"
 viewBox="0.00 0.00 821.00 502.00" xmlns="http://www.w3.org/2000/svg" xmlns:xlink="http://www.w3.org/1999/xlink">
<g id="graph0" class="graph" transform="scale(1 1) rotate(0) translate(4 498)">
<title>blog_user_detail</title>
<polygon fill="#ffffff" stroke="transparent" points="-4,4 -4,-498 817,-498 817,4 -4,4"/>
<!-- blog_user_detail -->
<g id="node1" class="node">
<title>blog_user_detail</title>
<polygon fill="#efefef" stroke="transparent" points="239,-412.5 239,-447.5 482,-447.5 482,-412.5 239,-412.5"/>
<polygon fill="none" stroke="#000000" points="239,-412.5 239,-447.5 482,-447.5 482,-412.5 239,-412.5"/>
<text text-anchor="start" x="245.8536" y="-425.3" font-family="Arial Bold" font-size="18.00" fill="#000000">blog_user_detail</text>
<text text-anchor="start" x="377.8926" y="-425.3" font-family="Arial" font-size="14.00" fill="#000000"> </text>
<text text-anchor="start" x="381.7832" y="-425.3" font-family="Arial" font-size="14.00" fill="#666666">[BASE TABLE]</text>
<polygon fill="none" stroke="#000000" points="239,-382.5 239,-412.5 482,-412.5 482,-382.5 239,-382.5"/>
<text text-anchor="start" x="246" y="-393.9" font-family="Arial" font-size="14.00" fill="#000000">blog_id </text>
<text text-anchor="start" x="295.0168" y="-393.9" font-family="Arial" font-size="14.00" fill="#666666">[int(11)]</text>
<polygon fill="none" stroke="#000000" points="239,-352.5 239,-382.5 482,-382.5 482,-352.5 239,-352.5"/>
<text text-anchor="start" x="246" y="-363.9" font-family="Arial" font-size="14.00" fill="#000000">channel_id </text>
<text text-anchor="start" x="317.582" y="-363.9" font-family="Arial" font-size="14.00" fill="#666666">[bigint(20)]</text>
<polygon fill="none" stroke="#000000" points="239,-322.5 239,-352.5 482,-352.5 482,-322.5 239,-322.5"/>
<text text-anchor="start" x="246" y="-333.9" font-family="Arial" font-size="14.00" fill="#000000">user_id </text>
<text text-anchor="start" x="295.7882" y="-333.9" font-family="Arial" font-size="14.00" fill="#666666">[int(11)]</text>
<polygon fill="none" stroke="#000000" points="239,-292.5 239,-322.5 482,-322.5 482,-292.5 239,-292.5"/>
<text text-anchor="start" x="246" y="-303.9" font-family="Arial" font-size="14.00" fill="#000000">total_post </text>
<text text-anchor="start" x="310.582" y="-303.9" font-family="Arial" font-size="14.00" fill="#666666">[int(11)]</text>
<polygon fill="none" stroke="#000000" points="239,-262.5 239,-292.5 482,-292.5 482,-262.5 239,-262.5"/>
<text text-anchor="start" x="246" y="-273.9" font-family="Arial" font-size="14.00" fill="#000000">created_at </text>
<text text-anchor="start" x="316.028" y="-273.9" font-family="Arial" font-size="14.00" fill="#666666">[datetime]</text>
<polygon fill="none" stroke="#000000" stroke-width="3" points="237,-261.5 237,-449.5 483,-449.5 483,-261.5 237,-261.5"/>
</g>
<!-- blogs -->
<g id="node2" class="node">
<title>blogs</title>
<polygon fill="#efefef" stroke="transparent" points="139,-102.5 139,-137.5 293,-137.5 293,-102.5 139,-102.5"/>
<polygon fill="none" stroke="#000000" points="139,-102.5 139,-137.5 293,-137.5 293,-102.5 139,-102.5"/>
<text text-anchor="start" x="145.8667" y="-115.3" font-family="Arial Bold" font-size="18.00" fill="#000000">blogs</text>
<text text-anchor="start" x="188.8795" y="-115.3" font-family="Arial" font-size="14.00" fill="#000000"> </text>
<text text-anchor="start" x="192.7701" y="-115.3" font-family="Arial" font-size="14.00" fill="#666666">[BASE TABLE]</text>
<polygon fill="none" stroke="#000000" points="139,-72.5 139,-102.5 293,-102.5 293,-72.5 139,-72.5"/>
<text text-anchor="start" x="146" y="-83.9" font-family="Arial" font-size="14.00" fill="#000000">id </text>
<text text-anchor="start" x="160.7798" y="-83.9" font-family="Arial" font-size="14.00" fill="#666666">[int(11)]</text>
<polygon fill="none" stroke="#000000" points="139,-42.5 139,-72.5 293,-72.5 293,-42.5 139,-42.5"/>
<text text-anchor="start" x="146" y="-53.9" font-family="Arial" font-size="14.00" fill="#000000">created_at </text>
<text text-anchor="start" x="216.028" y="-53.9" font-family="Arial" font-size="14.00" fill="#666666">[datetime]</text>
</g>
<!-- blog_user_detail&#45;&gt;blogs -->
<g id="edge1" class="edge">
<title>blog_user_detail:blog_id&#45;&gt;blogs:id</title>
<path fill="none" stroke="#000000" d="M228.9194,-396.8489C162.5752,-387.7166 202.847,-284.5526 239,-217 252.6105,-191.5686 279.3895,-206.4314 293,-181 312.6083,-144.3615 334.5556,-87.5 293,-87.5"/>
<polygon fill="#000000" stroke="#000000" points="229.0208,-396.8554 238.7099,-401.9906 234.0104,-397.1777 239,-397.5 239,-397.5 239,-397.5 234.0104,-397.1777 239.2901,-393.0094 229.0208,-396.8554 229.0208,-396.8554"/>
<text text-anchor="start" x="7.496" y="-407.5" font-family="Arial" font-size="10.00" fill="#000000">FOREIGN KEY (blog_id) REFERENCES blogs (id)</text>
</g>
<!-- blog_channel -->
<g id="node3" class="node">
<title>blog_channel</title>
<polygon fill="#efefef" stroke="transparent" points="397,-102.5 397,-137.5 615,-137.5 615,-102.5 397,-102.5"/>
<polygon fill="none" stroke="#000000" points="397,-102.5 397,-137.5 615,-137.5 615,-102.5 397,-102.5"/>
<text text-anchor="start" x="403.851" y="-115.3" font-family="Arial Bold" font-size="18.00" fill="#000000">blog_channel</text>
<text text-anchor="start" x="510.8952" y="-115.3" font-family="Arial" font-size="14.00" fill="#000000"> </text>
<text text-anchor="start" x="514.7858" y="-115.3" font-family="Arial" font-size="14.00" fill="#666666">[BASE TABLE]</text>
<polygon fill="none" stroke="#000000" points="397,-72.5 397,-102.5 615,-102.5 615,-72.5 397,-72.5"/>
<text text-anchor="start" x="404" y="-83.9" font-family="Arial" font-size="14.00" fill="#000000">blog_id </text>
<text text-anchor="start" x="453.0168" y="-83.9" font-family="Arial" font-size="14.00" fill="#666666">[int(11)]</text>
<polygon fill="none" stroke="#000000" points="397,-42.5 397,-72.5 615,-72.5 615,-42.5 397,-42.5"/>
<text text-anchor="start" x="404" y="-53.9" font-family="Arial" font-size="14.00" fill="#000000">channel_id </text>
<text text-anchor="start" x="475.582" y="-53.9" font-family="Arial" font-size="14.00" fill="#666666">[bigint(20)]</text>
</g>
<!-- blog_user_detail&#45;&gt;blog_channel -->
<g id="edge2" class="edge">
<title>blog_user_detail:channel_id&#45;&gt;blog_channel:channel_id</title>
<path fill="none" stroke="#000000" d="M492.1198,-366.6719C545.5924,-357.2547 516.9206,-269.7134 482,-217 459.3423,-182.7978 419.6577,-215.2022 397,-181 366.6865,-135.2411 342.1111,-57.5 397,-57.5"/>
<polygon fill="#000000" stroke="#000000" points="491.9667,-366.6843 481.6329,-363.015 486.9833,-367.0922 482,-367.5 482,-367.5 482,-367.5 486.9833,-367.0922 482.3671,-371.985 491.9667,-366.6843 491.9667,-366.6843"/>
<text text-anchor="start" x="489.364" y="-377.5" font-family="Arial" font-size="10.00" fill="#000000">FOREIGN KEY (channel_id) REFERENCES blog_channel (channel_id)</text>
</g>
</g>
</svg>
