<?xml version="1.0" encoding="UTF-8" standalone="no"?>
<!DOCTYPE svg PUBLIC "-//W3C//DTD SVG 1.1//EN"
 "http://www.w3.org/Graphics/SVG/1.1/DTD/svg11.dtd">
<!-- Generated by graphviz version 2.40.1 (20161225.0304)
 -->
<!-- Title: blog_xp Pages: 1 -->
<svg width="493pt" height="472pt"
 viewBox="0.00 0.00 492.50 472.00" xmlns="http://www.w3.org/2000/svg" xmlns:xlink="http://www.w3.org/1999/xlink">
<g id="graph0" class="graph" transform="scale(1 1) rotate(0) translate(4 468)">
<title>blog_xp</title>
<polygon fill="#ffffff" stroke="transparent" points="-4,4 -4,-468 488.5,-468 488.5,4 -4,4"/>
<!-- blog_xp -->
<g id="node1" class="node">
<title>blog_xp</title>
<polygon fill="#efefef" stroke="transparent" points="46.5,-382.5 46.5,-417.5 245.5,-417.5 245.5,-382.5 46.5,-382.5"/>
<polygon fill="none" stroke="#000000" points="46.5,-382.5 46.5,-417.5 245.5,-417.5 245.5,-382.5 46.5,-382.5"/>
<text text-anchor="start" x="65.8605" y="-395.3" font-family="Arial Bold" font-size="18.00" fill="#000000">blog_xp</text>
<text text-anchor="start" x="128.8857" y="-395.3" font-family="Arial" font-size="14.00" fill="#000000"> </text>
<text text-anchor="start" x="132.7763" y="-395.3" font-family="Arial" font-size="14.00" fill="#666666">[BASE TABLE]</text>
<polygon fill="none" stroke="#000000" points="46.5,-352.5 46.5,-382.5 245.5,-382.5 245.5,-352.5 46.5,-352.5"/>
<text text-anchor="start" x="53.5" y="-363.9" font-family="Arial" font-size="14.00" fill="#000000">blog_id </text>
<text text-anchor="start" x="102.5168" y="-363.9" font-family="Arial" font-size="14.00" fill="#666666">[int(11)]</text>
<polygon fill="none" stroke="#000000" points="46.5,-322.5 46.5,-352.5 245.5,-352.5 245.5,-322.5 46.5,-322.5"/>
<text text-anchor="start" x="53.5" y="-333.9" font-family="Arial" font-size="14.00" fill="#000000">xp </text>
<text text-anchor="start" x="72.1732" y="-333.9" font-family="Arial" font-size="14.00" fill="#666666">[bigint(20)]</text>
<polygon fill="none" stroke="#000000" points="46.5,-292.5 46.5,-322.5 245.5,-322.5 245.5,-292.5 46.5,-292.5"/>
<text text-anchor="start" x="53.5" y="-303.9" font-family="Arial" font-size="14.00" fill="#000000">level </text>
<text text-anchor="start" x="86.169" y="-303.9" font-family="Arial" font-size="14.00" fill="#666666">[int(11)]</text>
<polygon fill="none" stroke="#000000" points="46.5,-262.5 46.5,-292.5 245.5,-292.5 245.5,-262.5 46.5,-262.5"/>
<text text-anchor="start" x="53.0288" y="-273.9" font-family="Arial" font-size="14.00" fill="#000000">xp_saved_levelup_xp </text>
<text text-anchor="start" x="191.5238" y="-273.9" font-family="Arial" font-size="14.00" fill="#666666">[int(11)]</text>
<polygon fill="none" stroke="#000000" stroke-width="3" points="44.5,-261.5 44.5,-419.5 246.5,-419.5 246.5,-261.5 44.5,-261.5"/>
</g>
<!-- blogs -->
<g id="node2" class="node">
<title>blogs</title>
<polygon fill="#efefef" stroke="transparent" points="69.5,-102.5 69.5,-137.5 223.5,-137.5 223.5,-102.5 69.5,-102.5"/>
<polygon fill="none" stroke="#000000" points="69.5,-102.5 69.5,-137.5 223.5,-137.5 223.5,-102.5 69.5,-102.5"/>
<text text-anchor="start" x="76.3667" y="-115.3" font-family="Arial Bold" font-size="18.00" fill="#000000">blogs</text>
<text text-anchor="start" x="119.3795" y="-115.3" font-family="Arial" font-size="14.00" fill="#000000"> </text>
<text text-anchor="start" x="123.2701" y="-115.3" font-family="Arial" font-size="14.00" fill="#666666">[BASE TABLE]</text>
<polygon fill="none" stroke="#000000" points="69.5,-72.5 69.5,-102.5 223.5,-102.5 223.5,-72.5 69.5,-72.5"/>
<text text-anchor="start" x="76.5" y="-83.9" font-family="Arial" font-size="14.00" fill="#000000">id </text>
<text text-anchor="start" x="91.2798" y="-83.9" font-family="Arial" font-size="14.00" fill="#666666">[int(11)]</text>
<polygon fill="none" stroke="#000000" points="69.5,-42.5 69.5,-72.5 223.5,-72.5 223.5,-42.5 69.5,-42.5"/>
<text text-anchor="start" x="76.5" y="-53.9" font-family="Arial" font-size="14.00" fill="#000000">created_at </text>
<text text-anchor="start" x="146.528" y="-53.9" font-family="Arial" font-size="14.00" fill="#666666">[datetime]</text>
</g>
<!-- blog_xp&#45;&gt;blogs -->
<g id="edge1" class="edge">
<title>blog_xp:blog_id&#45;&gt;blogs:id</title>
<path fill="none" stroke="#000000" d="M255.6652,-366.6384C309.6459,-356.8471 285.4808,-265.9865 245.5,-217 195.0161,-155.1446 119.9839,-242.8554 69.5,-181 43.2245,-148.8059 27.9444,-87.5 69.5,-87.5"/>
<polygon fill="#000000" stroke="#000000" points="255.4643,-366.6554 245.1199,-363.0161 250.4821,-367.0777 245.5,-367.5 245.5,-367.5 245.5,-367.5 250.4821,-367.0777 245.8801,-371.9839 255.4643,-366.6554 255.4643,-366.6554"/>
<text text-anchor="start" x="252.996" y="-377.5" font-family="Arial" font-size="10.00" fill="#000000">FOREIGN KEY (blog_id) REFERENCES blogs (id)</text>
</g>
</g>
</svg>
