<?xml version="1.0" encoding="UTF-8" standalone="no"?>
<!DOCTYPE svg PUBLIC "-//W3C//DTD SVG 1.1//EN"
 "http://www.w3.org/Graphics/SVG/1.1/DTD/svg11.dtd">
<!-- Generated by graphviz version 2.40.1 (20161225.0304)
 -->
<!-- Title: globals_xp Pages: 1 -->
<svg width="526pt" height="472pt"
 viewBox="0.00 0.00 525.50 472.00" xmlns="http://www.w3.org/2000/svg" xmlns:xlink="http://www.w3.org/1999/xlink">
<g id="graph0" class="graph" transform="scale(1 1) rotate(0) translate(4 468)">
<title>globals_xp</title>
<polygon fill="#ffffff" stroke="transparent" points="-4,4 -4,-468 521.5,-468 521.5,4 -4,4"/>
<!-- globals_xp -->
<g id="node1" class="node">
<title>globals_xp</title>
<polygon fill="#efefef" stroke="transparent" points="46.5,-382.5 46.5,-417.5 245.5,-417.5 245.5,-382.5 46.5,-382.5"/>
<polygon fill="none" stroke="#000000" points="46.5,-382.5 46.5,-417.5 245.5,-417.5 245.5,-382.5 46.5,-382.5"/>
<text text-anchor="start" x="54.3603" y="-395.3" font-family="Arial Bold" font-size="18.00" fill="#000000">globals_xp</text>
<text text-anchor="start" x="140.3859" y="-395.3" font-family="Arial" font-size="14.00" fill="#000000"> </text>
<text text-anchor="start" x="144.2765" y="-395.3" font-family="Arial" font-size="14.00" fill="#666666">[BASE TABLE]</text>
<polygon fill="none" stroke="#000000" points="46.5,-352.5 46.5,-382.5 245.5,-382.5 245.5,-352.5 46.5,-352.5"/>
<text text-anchor="start" x="53.5" y="-363.9" font-family="Arial" font-size="14.00" fill="#000000">user_id </text>
<text text-anchor="start" x="103.2882" y="-363.9" font-family="Arial" font-size="14.00" fill="#666666">[bigint(20)]</text>
<polygon fill="none" stroke="#000000" points="46.5,-322.5 46.5,-352.5 245.5,-352.5 245.5,-322.5 46.5,-322.5"/>
<text text-anchor="start" x="53.5" y="-333.9" font-family="Arial" font-size="14.00" fill="#000000">xp </text>
<text text-anchor="start" x="72.1732" y="-333.9" font-family="Arial" font-size="14.00" fill="#666666">[bigint(20)]</text>
<polygon fill="none" stroke="#000000" points="46.5,-292.5 46.5,-322.5 245.5,-322.5 245.5,-292.5 46.5,-292.5"/>
<text text-anchor="start" x="53.5" y="-303.9" font-family="Arial" font-size="14.00" fill="#000000">level </text>
<text text-anchor="start" x="86.169" y="-303.9" font-family="Arial" font-size="14.00" fill="#666666">[int(11)]</text>
<polygon fill="none" stroke="#000000" points="46.5,-262.5 46.5,-292.5 245.5,-292.5 245.5,-262.5 46.5,-262.5"/>
<text text-anchor="start" x="53.0288" y="-273.9" font-family="Arial" font-size="14.00" fill="#000000">xp_saved_levelup_xp </text>
<text text-anchor="start" x="191.5238" y="-273.9" font-family="Arial" font-size="14.00" fill="#666666">[int(11)]</text>
<polygon fill="none" stroke="#000000" stroke-width="3" points="44.5,-261.5 44.5,-419.5 246.5,-419.5 246.5,-261.5 44.5,-261.5"/>
</g>
<!-- globals -->
<g id="node2" class="node">
<title>globals</title>
<polygon fill="#efefef" stroke="transparent" points="62.5,-102.5 62.5,-137.5 230.5,-137.5 230.5,-102.5 62.5,-102.5"/>
<polygon fill="none" stroke="#000000" points="62.5,-102.5 62.5,-137.5 230.5,-137.5 230.5,-102.5 62.5,-102.5"/>
<text text-anchor="start" x="69.3665" y="-115.3" font-family="Arial Bold" font-size="18.00" fill="#000000">globals</text>
<text text-anchor="start" x="126.3797" y="-115.3" font-family="Arial" font-size="14.00" fill="#000000"> </text>
<text text-anchor="start" x="130.2703" y="-115.3" font-family="Arial" font-size="14.00" fill="#666666">[BASE TABLE]</text>
<polygon fill="none" stroke="#000000" points="62.5,-72.5 62.5,-102.5 230.5,-102.5 230.5,-72.5 62.5,-72.5"/>
<text text-anchor="start" x="69.5" y="-83.9" font-family="Arial" font-size="14.00" fill="#000000">id </text>
<text text-anchor="start" x="84.2798" y="-83.9" font-family="Arial" font-size="14.00" fill="#666666">[int(11)]</text>
<polygon fill="none" stroke="#000000" points="62.5,-42.5 62.5,-72.5 230.5,-72.5 230.5,-42.5 62.5,-42.5"/>
<text text-anchor="start" x="69.5" y="-53.9" font-family="Arial" font-size="14.00" fill="#000000">user_id </text>
<text text-anchor="start" x="119.2882" y="-53.9" font-family="Arial" font-size="14.00" fill="#666666">[bigint(20)]</text>
</g>
<!-- globals_xp&#45;&gt;globals -->
<g id="edge1" class="edge">
<title>globals_xp:user_id&#45;&gt;globals:user_id</title>
<path fill="none" stroke="#000000" d="M255.6669,-366.6371C309.666,-356.8306 285.6648,-265.8358 245.5,-217 192.8462,-152.979 115.1538,-245.021 62.5,-181 27.6341,-138.607 7.6111,-57.5 62.5,-57.5"/>
<polygon fill="#000000" stroke="#000000" points="255.4642,-366.6542 245.1194,-363.0161 250.4821,-367.0771 245.5,-367.5 245.5,-367.5 245.5,-367.5 250.4821,-367.0771 245.8806,-371.9839 255.4642,-366.6542 255.4642,-366.6542"/>
<text text-anchor="start" x="252.3285" y="-377.5" font-family="Arial" font-size="10.00" fill="#000000">FOREIGN KEY (user_id) REFERENCES globals (user_id)</text>
</g>
</g>
</svg>
