<?xml version="1.0" encoding="UTF-8" standalone="no"?>
<!DOCTYPE svg PUBLIC "-//W3C//DTD SVG 1.1//EN"
 "http://www.w3.org/Graphics/SVG/1.1/DTD/svg11.dtd">
<!-- Generated by graphviz version 2.40.1 (20161225.0304)
 -->
<!-- Title: globals Pages: 1 -->
<svg width="649pt" height="472pt"
 viewBox="0.00 0.00 648.50 472.00" xmlns="http://www.w3.org/2000/svg" xmlns:xlink="http://www.w3.org/1999/xlink">
<g id="graph0" class="graph" transform="scale(1 1) rotate(0) translate(4 468)">
<title>globals</title>
<polygon fill="#ffffff" stroke="transparent" points="-4,4 -4,-468 644.5,-468 644.5,4 -4,4"/>
<!-- globals -->
<g id="node1" class="node">
<title>globals</title>
<polygon fill="#efefef" stroke="transparent" points="227.5,-105.5 227.5,-140.5 395.5,-140.5 395.5,-105.5 227.5,-105.5"/>
<polygon fill="none" stroke="#000000" points="227.5,-105.5 227.5,-140.5 395.5,-140.5 395.5,-105.5 227.5,-105.5"/>
<text text-anchor="start" x="234.3665" y="-118.3" font-family="Arial Bold" font-size="18.00" fill="#000000">globals</text>
<text text-anchor="start" x="291.3797" y="-118.3" font-family="Arial" font-size="14.00" fill="#000000"> </text>
<text text-anchor="start" x="295.2703" y="-118.3" font-family="Arial" font-size="14.00" fill="#666666">[BASE TABLE]</text>
<polygon fill="none" stroke="#000000" points="227.5,-75.5 227.5,-105.5 395.5,-105.5 395.5,-75.5 227.5,-75.5"/>
<text text-anchor="start" x="234.5" y="-86.9" font-family="Arial" font-size="14.00" fill="#000000">id </text>
<text text-anchor="start" x="249.2798" y="-86.9" font-family="Arial" font-size="14.00" fill="#666666">[int(11)]</text>
<polygon fill="none" stroke="#000000" points="227.5,-45.5 227.5,-75.5 395.5,-75.5 395.5,-45.5 227.5,-45.5"/>
<text text-anchor="start" x="234.5" y="-56.9" font-family="Arial" font-size="14.00" fill="#000000">user_id </text>
<text text-anchor="start" x="284.2882" y="-56.9" font-family="Arial" font-size="14.00" fill="#666666">[bigint(20)]</text>
<polygon fill="none" stroke="#000000" stroke-width="3" points="226,-44.5 226,-142.5 397,-142.5 397,-44.5 226,-44.5"/>
</g>
<!-- globals_detail -->
<g id="node2" class="node">
<title>globals_detail</title>
<polygon fill="#efefef" stroke="transparent" points="43.5,-370.5 43.5,-405.5 264.5,-405.5 264.5,-370.5 43.5,-370.5"/>
<polygon fill="none" stroke="#000000" points="43.5,-370.5 43.5,-405.5 264.5,-405.5 264.5,-370.5 43.5,-370.5"/>
<text text-anchor="start" x="50.3588" y="-383.3" font-family="Arial Bold" font-size="18.00" fill="#000000">globals_detail</text>
<text text-anchor="start" x="160.3874" y="-383.3" font-family="Arial" font-size="14.00" fill="#000000"> </text>
<text text-anchor="start" x="164.278" y="-383.3" font-family="Arial" font-size="14.00" fill="#666666">[BASE TABLE]</text>
<polygon fill="none" stroke="#000000" points="43.5,-340.5 43.5,-370.5 264.5,-370.5 264.5,-340.5 43.5,-340.5"/>
<text text-anchor="start" x="50.5" y="-351.9" font-family="Arial" font-size="14.00" fill="#000000">id </text>
<text text-anchor="start" x="65.2798" y="-351.9" font-family="Arial" font-size="14.00" fill="#666666">[int(11)]</text>
<polygon fill="none" stroke="#000000" points="43.5,-310.5 43.5,-340.5 264.5,-340.5 264.5,-310.5 43.5,-310.5"/>
<text text-anchor="start" x="50.5" y="-321.9" font-family="Arial" font-size="14.00" fill="#000000">user_id </text>
<text text-anchor="start" x="100.2882" y="-321.9" font-family="Arial" font-size="14.00" fill="#666666">[bigint(20)]</text>
<polygon fill="none" stroke="#000000" points="43.5,-280.5 43.5,-310.5 264.5,-310.5 264.5,-280.5 43.5,-280.5"/>
<text text-anchor="start" x="50.5" y="-291.9" font-family="Arial" font-size="14.00" fill="#000000">created_at </text>
<text text-anchor="start" x="120.528" y="-291.9" font-family="Arial" font-size="14.00" fill="#666666">[datetime]</text>
</g>
<!-- globals_detail&#45;&gt;globals -->
<g id="edge1" class="edge">
<title>globals_detail:user_id&#45;&gt;globals:user_id</title>
<path fill="none" stroke="#000000" d="M274.3981,-324.004C298.0815,-315.3796 275.2854,-271.2329 264.5,-238 255.8556,-211.3641 236.1444,-213.6359 227.5,-187 210.1448,-133.5235 171.2778,-60.5 227.5,-60.5"/>
<polygon fill="#000000" stroke="#000000" points="274.3877,-324.0055 263.8275,-321.0505 269.4439,-324.7528 264.5,-325.5 264.5,-325.5 264.5,-325.5 269.4439,-324.7528 265.1725,-329.9495 274.3877,-324.0055 274.3877,-324.0055"/>
<text text-anchor="start" x="271.3285" y="-335.5" font-family="Arial" font-size="10.00" fill="#000000">FOREIGN KEY (user_id) REFERENCES globals (user_id)</text>
</g>
<!-- globals_xp -->
<g id="node3" class="node">
<title>globals_xp</title>
<polygon fill="#efefef" stroke="transparent" points="368.5,-385.5 368.5,-420.5 567.5,-420.5 567.5,-385.5 368.5,-385.5"/>
<polygon fill="none" stroke="#000000" points="368.5,-385.5 368.5,-420.5 567.5,-420.5 567.5,-385.5 368.5,-385.5"/>
<text text-anchor="start" x="376.3603" y="-398.3" font-family="Arial Bold" font-size="18.00" fill="#000000">globals_xp</text>
<text text-anchor="start" x="462.3859" y="-398.3" font-family="Arial" font-size="14.00" fill="#000000"> </text>
<text text-anchor="start" x="466.2765" y="-398.3" font-family="Arial" font-size="14.00" fill="#666666">[BASE TABLE]</text>
<polygon fill="none" stroke="#000000" points="368.5,-355.5 368.5,-385.5 567.5,-385.5 567.5,-355.5 368.5,-355.5"/>
<text text-anchor="start" x="375.5" y="-366.9" font-family="Arial" font-size="14.00" fill="#000000">user_id </text>
<text text-anchor="start" x="425.2882" y="-366.9" font-family="Arial" font-size="14.00" fill="#666666">[bigint(20)]</text>
<polygon fill="none" stroke="#000000" points="368.5,-325.5 368.5,-355.5 567.5,-355.5 567.5,-325.5 368.5,-325.5"/>
<text text-anchor="start" x="375.5" y="-336.9" font-family="Arial" font-size="14.00" fill="#000000">xp </text>
<text text-anchor="start" x="394.1732" y="-336.9" font-family="Arial" font-size="14.00" fill="#666666">[bigint(20)]</text>
<polygon fill="none" stroke="#000000" points="368.5,-295.5 368.5,-325.5 567.5,-325.5 567.5,-295.5 368.5,-295.5"/>
<text text-anchor="start" x="375.5" y="-306.9" font-family="Arial" font-size="14.00" fill="#000000">level </text>
<text text-anchor="start" x="408.169" y="-306.9" font-family="Arial" font-size="14.00" fill="#666666">[int(11)]</text>
<polygon fill="none" stroke="#000000" points="368.5,-265.5 368.5,-295.5 567.5,-295.5 567.5,-265.5 368.5,-265.5"/>
<text text-anchor="start" x="375.0288" y="-276.9" font-family="Arial" font-size="14.00" fill="#000000">xp_saved_levelup_xp </text>
<text text-anchor="start" x="513.5238" y="-276.9" font-family="Arial" font-size="14.00" fill="#666666">[int(11)]</text>
</g>
<!-- globals_xp&#45;&gt;globals -->
<g id="edge2" class="edge">
<title>globals_xp:user_id&#45;&gt;globals:user_id</title>
<path fill="none" stroke="#000000" d="M358.3986,-369.6987C307.945,-360.9103 348.9437,-281.6689 368.5,-223 374.8246,-204.0263 389.1754,-205.9737 395.5,-187 413.279,-133.6629 451.7222,-60.5 395.5,-60.5"/>
<polygon fill="#000000" stroke="#000000" points="358.5313,-369.7091 368.1441,-374.9859 363.5157,-370.1045 368.5,-370.5 368.5,-370.5 368.5,-370.5 363.5157,-370.1045 368.8559,-366.0141 358.5313,-369.7091 358.5313,-369.7091"/>
<text text-anchor="start" x="375.3285" y="-380.5" font-family="Arial" font-size="10.00" fill="#000000">FOREIGN KEY (user_id) REFERENCES globals (user_id)</text>
</g>
</g>
</svg>
