<?xml version="1.0" encoding="UTF-8" standalone="no"?>
<!DOCTYPE svg PUBLIC "-//W3C//DTD SVG 1.1//EN"
 "http://www.w3.org/Graphics/SVG/1.1/DTD/svg11.dtd">
<!-- Generated by graphviz version 2.40.1 (20161225.0304)
 -->
<!-- Title: globals_detail Pages: 1 -->
<svg width="548pt" height="442pt"
 viewBox="0.00 0.00 547.50 442.00" xmlns="http://www.w3.org/2000/svg" xmlns:xlink="http://www.w3.org/1999/xlink">
<g id="graph0" class="graph" transform="scale(1 1) rotate(0) translate(4 438)">
<title>globals_detail</title>
<polygon fill="#ffffff" stroke="transparent" points="-4,4 -4,-438 543.5,-438 543.5,4 -4,4"/>
<!-- globals_detail -->
<g id="node1" class="node">
<title>globals_detail</title>
<polygon fill="#efefef" stroke="transparent" points="46.5,-352.5 46.5,-387.5 267.5,-387.5 267.5,-352.5 46.5,-352.5"/>
<polygon fill="none" stroke="#000000" points="46.5,-352.5 46.5,-387.5 267.5,-387.5 267.5,-352.5 46.5,-352.5"/>
<text text-anchor="start" x="53.3588" y="-365.3" font-family="Arial Bold" font-size="18.00" fill="#000000">globals_detail</text>
<text text-anchor="start" x="163.3874" y="-365.3" font-family="Arial" font-size="14.00" fill="#000000"> </text>
<text text-anchor="start" x="167.278" y="-365.3" font-family="Arial" font-size="14.00" fill="#666666">[BASE TABLE]</text>
<polygon fill="none" stroke="#000000" points="46.5,-322.5 46.5,-352.5 267.5,-352.5 267.5,-322.5 46.5,-322.5"/>
<text text-anchor="start" x="53.5" y="-333.9" font-family="Arial" font-size="14.00" fill="#000000">id </text>
<text text-anchor="start" x="68.2798" y="-333.9" font-family="Arial" font-size="14.00" fill="#666666">[int(11)]</text>
<polygon fill="none" stroke="#000000" points="46.5,-292.5 46.5,-322.5 267.5,-322.5 267.5,-292.5 46.5,-292.5"/>
<text text-anchor="start" x="53.5" y="-303.9" font-family="Arial" font-size="14.00" fill="#000000">user_id </text>
<text text-anchor="start" x="103.2882" y="-303.9" font-family="Arial" font-size="14.00" fill="#666666">[bigint(20)]</text>
<polygon fill="none" stroke="#000000" points="46.5,-262.5 46.5,-292.5 267.5,-292.5 267.5,-262.5 46.5,-262.5"/>
<text text-anchor="start" x="53.5" y="-273.9" font-family="Arial" font-size="14.00" fill="#000000">created_at </text>
<text text-anchor="start" x="123.528" y="-273.9" font-family="Arial" font-size="14.00" fill="#666666">[datetime]</text>
<polygon fill="none" stroke="#000000" stroke-width="3" points="44.5,-261.5 44.5,-389.5 268.5,-389.5 268.5,-261.5 44.5,-261.5"/>
</g>
<!-- globals -->
<g id="node2" class="node">
<title>globals</title>
<polygon fill="#efefef" stroke="transparent" points="73.5,-102.5 73.5,-137.5 241.5,-137.5 241.5,-102.5 73.5,-102.5"/>
<polygon fill="none" stroke="#000000" points="73.5,-102.5 73.5,-137.5 241.5,-137.5 241.5,-102.5 73.5,-102.5"/>
<text text-anchor="start" x="80.3665" y="-115.3" font-family="Arial Bold" font-size="18.00" fill="#000000">globals</text>
<text text-anchor="start" x="137.3797" y="-115.3" font-family="Arial" font-size="14.00" fill="#000000"> </text>
<text text-anchor="start" x="141.2703" y="-115.3" font-family="Arial" font-size="14.00" fill="#666666">[BASE TABLE]</text>
<polygon fill="none" stroke="#000000" points="73.5,-72.5 73.5,-102.5 241.5,-102.5 241.5,-72.5 73.5,-72.5"/>
<text text-anchor="start" x="80.5" y="-83.9" font-family="Arial" font-size="14.00" fill="#000000">id </text>
<text text-anchor="start" x="95.2798" y="-83.9" font-family="Arial" font-size="14.00" fill="#666666">[int(11)]</text>
<polygon fill="none" stroke="#000000" points="73.5,-42.5 73.5,-72.5 241.5,-72.5 241.5,-42.5 73.5,-42.5"/>
<text text-anchor="start" x="80.5" y="-53.9" font-family="Arial" font-size="14.00" fill="#000000">user_id </text>
<text text-anchor="start" x="130.2882" y="-53.9" font-family="Arial" font-size="14.00" fill="#666666">[bigint(20)]</text>
</g>
<!-- globals_detail&#45;&gt;globals -->
<g id="edge1" class="edge">
<title>globals_detail:user_id&#45;&gt;globals:user_id</title>
<path fill="none" stroke="#000000" d="M277.4053,-306.0019C304.9038,-296.5819 290.8054,-245.0279 267.5,-217 211.4323,-149.5709 129.5677,-248.4291 73.5,-181 38.4066,-138.7953 18.6111,-57.5 73.5,-57.5"/>
<polygon fill="#000000" stroke="#000000" points="277.3876,-306.0045 266.827,-303.0506 272.4438,-306.7523 267.5,-307.5 267.5,-307.5 267.5,-307.5 272.4438,-306.7523 268.173,-311.9494 277.3876,-306.0045 277.3876,-306.0045"/>
<text text-anchor="start" x="274.3285" y="-317.5" font-family="Arial" font-size="10.00" fill="#000000">FOREIGN KEY (user_id) REFERENCES globals (user_id)</text>
</g>
</g>
</svg>
