<?xml version="1.0" encoding="UTF-8" standalone="no"?>
<!DOCTYPE svg PUBLIC "-//W3C//DTD SVG 1.1//EN"
 "http://www.w3.org/Graphics/SVG/1.1/DTD/svg11.dtd">
<!-- Generated by graphviz version 2.40.1 (20161225.0304)
 -->
<!-- Title: notes Pages: 1 -->
<svg width="540pt" height="562pt"
 viewBox="0.00 0.00 540.00 562.00" xmlns="http://www.w3.org/2000/svg" xmlns:xlink="http://www.w3.org/1999/xlink">
<g id="graph0" class="graph" transform="scale(1 1) rotate(0) translate(4 558)">
<title>notes</title>
<polygon fill="#ffffff" stroke="transparent" points="-4,4 -4,-558 536,-558 536,4 -4,4"/>
<!-- notes -->
<g id="node1" class="node">
<title>notes</title>
<polygon fill="#efefef" stroke="transparent" points="307,-135.5 307,-170.5 462,-170.5 462,-135.5 307,-135.5"/>
<polygon fill="none" stroke="#000000" points="307,-135.5 307,-170.5 462,-170.5 462,-135.5 307,-135.5"/>
<text text-anchor="start" x="313.8627" y="-148.3" font-family="Arial Bold" font-size="18.00" fill="#000000">notes</text>
<text text-anchor="start" x="357.8835" y="-148.3" font-family="Arial" font-size="14.00" fill="#000000"> </text>
<text text-anchor="start" x="361.7741" y="-148.3" font-family="Arial" font-size="14.00" fill="#666666">[BASE TABLE]</text>
<polygon fill="none" stroke="#000000" points="307,-105.5 307,-135.5 462,-135.5 462,-105.5 307,-105.5"/>
<text text-anchor="start" x="314" y="-116.9" font-family="Arial" font-size="14.00" fill="#000000">id </text>
<text text-anchor="start" x="328.7798" y="-116.9" font-family="Arial" font-size="14.00" fill="#666666">[int(11)]</text>
<polygon fill="none" stroke="#000000" points="307,-75.5 307,-105.5 462,-105.5 462,-75.5 307,-75.5"/>
<text text-anchor="start" x="314" y="-86.9" font-family="Arial" font-size="14.00" fill="#000000">server_id </text>
<text text-anchor="start" x="375.4488" y="-86.9" font-family="Arial" font-size="14.00" fill="#666666">[bigint(20)]</text>
<polygon fill="none" stroke="#000000" points="307,-45.5 307,-75.5 462,-75.5 462,-45.5 307,-45.5"/>
<text text-anchor="start" x="314" y="-56.9" font-family="Arial" font-size="14.00" fill="#000000">updated_at </text>
<text text-anchor="start" x="387.9326" y="-56.9" font-family="Arial" font-size="14.00" fill="#666666">[datetime]</text>
<polygon fill="none" stroke="#000000" stroke-width="3" points="305,-44.5 305,-172.5 463,-172.5 463,-44.5 305,-44.5"/>
</g>
<!-- notes_detail -->
<g id="node2" class="node">
<title>notes_detail</title>
<polygon fill="#efefef" stroke="transparent" points="281,-475.5 281,-510.5 489,-510.5 489,-475.5 281,-475.5"/>
<polygon fill="none" stroke="#000000" points="281,-475.5 281,-510.5 489,-510.5 489,-475.5 281,-475.5"/>
<text text-anchor="start" x="287.855" y="-488.3" font-family="Arial Bold" font-size="18.00" fill="#000000">notes_detail</text>
<text text-anchor="start" x="384.8912" y="-488.3" font-family="Arial" font-size="14.00" fill="#000000"> </text>
<text text-anchor="start" x="388.7818" y="-488.3" font-family="Arial" font-size="14.00" fill="#666666">[BASE TABLE]</text>
<polygon fill="none" stroke="#000000" points="281,-445.5 281,-475.5 489,-475.5 489,-445.5 281,-445.5"/>
<text text-anchor="start" x="288" y="-456.9" font-family="Arial" font-size="14.00" fill="#000000">id </text>
<text text-anchor="start" x="302.7798" y="-456.9" font-family="Arial" font-size="14.00" fill="#666666">[int(11)]</text>
<polygon fill="none" stroke="#000000" points="281,-415.5 281,-445.5 489,-445.5 489,-415.5 281,-415.5"/>
<text text-anchor="start" x="288" y="-426.9" font-family="Arial" font-size="14.00" fill="#000000">server_id </text>
<text text-anchor="start" x="349.4488" y="-426.9" font-family="Arial" font-size="14.00" fill="#666666">[bigint(20)]</text>
<polygon fill="none" stroke="#000000" points="281,-385.5 281,-415.5 489,-415.5 489,-385.5 281,-385.5"/>
<text text-anchor="start" x="288" y="-396.9" font-family="Arial" font-size="14.00" fill="#000000">user_id </text>
<text text-anchor="start" x="337.7882" y="-396.9" font-family="Arial" font-size="14.00" fill="#666666">[bigint(20)]</text>
<polygon fill="none" stroke="#000000" points="281,-355.5 281,-385.5 489,-385.5 489,-355.5 281,-355.5"/>
<text text-anchor="start" x="288" y="-366.9" font-family="Arial" font-size="14.00" fill="#000000">category_name </text>
<text text-anchor="start" x="388.3632" y="-366.9" font-family="Arial" font-size="14.00" fill="#666666">[varchar(255)]</text>
<polygon fill="none" stroke="#000000" points="281,-325.5 281,-355.5 489,-355.5 489,-325.5 281,-325.5"/>
<text text-anchor="start" x="288" y="-336.9" font-family="Arial" font-size="14.00" fill="#000000">content </text>
<text text-anchor="start" x="337.8022" y="-336.9" font-family="Arial" font-size="14.00" fill="#666666">[varchar(255)]</text>
<polygon fill="none" stroke="#000000" points="281,-295.5 281,-325.5 489,-325.5 489,-295.5 281,-295.5"/>
<text text-anchor="start" x="288" y="-306.9" font-family="Arial" font-size="14.00" fill="#000000">created_at </text>
<text text-anchor="start" x="358.028" y="-306.9" font-family="Arial" font-size="14.00" fill="#666666">[datetime]</text>
</g>
<!-- notes_detail&#45;&gt;notes -->
<g id="edge1" class="edge">
<title>notes_detail:server_id&#45;&gt;notes:server_id</title>
<path fill="none" stroke="#000000" d="M271.0128,-429.8102C204.7452,-420.1436 233.2011,-311.2421 281,-253 333.0336,-189.598 409.9664,-280.402 462,-217 497.6674,-173.5399 518.2222,-90.5 462,-90.5"/>
<polygon fill="#000000" stroke="#000000" points="271.0238,-429.8109 280.6899,-434.9893 276.0119,-430.1554 281,-430.5 281,-430.5 281,-430.5 276.0119,-430.1554 281.3101,-426.0107 271.0238,-429.8109 271.0238,-429.8109"/>
<text text-anchor="start" x="7.1085" y="-440.5" font-family="Arial" font-size="10.00" fill="#000000">FOREIGN KEY (server_id) REFERENCES notes (server_id)</text>
</g>
</g>
</svg>
