<?xml version="1.0" encoding="UTF-8" standalone="no"?>
<!DOCTYPE svg PUBLIC "-//W3C//DTD SVG 1.1//EN"
 "http://www.w3.org/Graphics/SVG/1.1/DTD/svg11.dtd">
<!-- Generated by graphviz version 2.40.1 (20161225.0304)
 -->
<!-- Title: notes_category Pages: 1 -->
<svg width="656pt" height="534pt"
 viewBox="0.00 0.00 656.00 533.54" xmlns="http://www.w3.org/2000/svg" xmlns:xlink="http://www.w3.org/1999/xlink">
<g id="graph0" class="graph" transform="scale(1 1) rotate(0) translate(4 529.5395)">
<title>notes_category</title>
<polygon fill="#ffffff" stroke="transparent" points="-4,4 -4,-529.5395 652,-529.5395 652,4 -4,4"/>
<!-- notes_category -->
<g id="node1" class="node">
<title>notes_category</title>
<polygon fill="#efefef" stroke="transparent" points="46,-107.0395 46,-142.0395 280,-142.0395 280,-107.0395 46,-107.0395"/>
<polygon fill="none" stroke="#000000" points="46,-107.0395 46,-142.0395 280,-142.0395 280,-107.0395 46,-107.0395"/>
<text text-anchor="start" x="52.85" y="-119.8395" font-family="Arial Bold" font-size="18.00" fill="#000000">notes_category</text>
<text text-anchor="start" x="175.8962" y="-119.8395" font-family="Arial" font-size="14.00" fill="#000000"> </text>
<text text-anchor="start" x="179.7868" y="-119.8395" font-family="Arial" font-size="14.00" fill="#666666">[BASE TABLE]</text>
<polygon fill="none" stroke="#000000" points="46,-77.0395 46,-107.0395 280,-107.0395 280,-77.0395 46,-77.0395"/>
<text text-anchor="start" x="53" y="-88.4395" font-family="Arial" font-size="14.00" fill="#000000">id </text>
<text text-anchor="start" x="67.7798" y="-88.4395" font-family="Arial" font-size="14.00" fill="#666666">[int(11)]</text>
<polygon fill="none" stroke="#000000" points="46,-47.0395 46,-77.0395 280,-77.0395 280,-47.0395 46,-47.0395"/>
<text text-anchor="start" x="53" y="-58.4395" font-family="Arial" font-size="14.00" fill="#000000">category_name </text>
<text text-anchor="start" x="153.3632" y="-58.4395" font-family="Arial" font-size="14.00" fill="#666666">[varchar(255)]</text>
<polygon fill="none" stroke="#000000" stroke-width="3" points="44.5,-46.0395 44.5,-144.0395 281.5,-144.0395 281.5,-46.0395 44.5,-46.0395"/>
</g>
<!-- notes_detail -->
<g id="node2" class="node">
<title>notes_detail</title>
<polygon fill="#efefef" stroke="transparent" points="59,-447.0395 59,-482.0395 267,-482.0395 267,-447.0395 59,-447.0395"/>
<polygon fill="none" stroke="#000000" points="59,-447.0395 59,-482.0395 267,-482.0395 267,-447.0395 59,-447.0395"/>
<text text-anchor="start" x="65.855" y="-459.8395" font-family="Arial Bold" font-size="18.00" fill="#000000">notes_detail</text>
<text text-anchor="start" x="162.8912" y="-459.8395" font-family="Arial" font-size="14.00" fill="#000000"> </text>
<text text-anchor="start" x="166.7818" y="-459.8395" font-family="Arial" font-size="14.00" fill="#666666">[BASE TABLE]</text>
<polygon fill="none" stroke="#000000" points="59,-417.0395 59,-447.0395 267,-447.0395 267,-417.0395 59,-417.0395"/>
<text text-anchor="start" x="66" y="-428.4395" font-family="Arial" font-size="14.00" fill="#000000">id </text>
<text text-anchor="start" x="80.7798" y="-428.4395" font-family="Arial" font-size="14.00" fill="#666666">[int(11)]</text>
<polygon fill="none" stroke="#000000" points="59,-387.0395 59,-417.0395 267,-417.0395 267,-387.0395 59,-387.0395"/>
<text text-anchor="start" x="66" y="-398.4395" font-family="Arial" font-size="14.00" fill="#000000">server_id </text>
<text text-anchor="start" x="127.4488" y="-398.4395" font-family="Arial" font-size="14.00" fill="#666666">[bigint(20)]</text>
<polygon fill="none" stroke="#000000" points="59,-357.0395 59,-387.0395 267,-387.0395 267,-357.0395 59,-357.0395"/>
<text text-anchor="start" x="66" y="-368.4395" font-family="Arial" font-size="14.00" fill="#000000">user_id </text>
<text text-anchor="start" x="115.7882" y="-368.4395" font-family="Arial" font-size="14.00" fill="#666666">[bigint(20)]</text>
<polygon fill="none" stroke="#000000" points="59,-327.0395 59,-357.0395 267,-357.0395 267,-327.0395 59,-327.0395"/>
<text text-anchor="start" x="66" y="-338.4395" font-family="Arial" font-size="14.00" fill="#000000">category_name </text>
<text text-anchor="start" x="166.3632" y="-338.4395" font-family="Arial" font-size="14.00" fill="#666666">[varchar(255)]</text>
<polygon fill="none" stroke="#000000" points="59,-297.0395 59,-327.0395 267,-327.0395 267,-297.0395 59,-297.0395"/>
<text text-anchor="start" x="66" y="-308.4395" font-family="Arial" font-size="14.00" fill="#000000">content </text>
<text text-anchor="start" x="115.8022" y="-308.4395" font-family="Arial" font-size="14.00" fill="#666666">[varchar(255)]</text>
<polygon fill="none" stroke="#000000" points="59,-267.0395 59,-297.0395 267,-297.0395 267,-267.0395 59,-267.0395"/>
<text text-anchor="start" x="66" y="-278.4395" font-family="Arial" font-size="14.00" fill="#000000">created_at </text>
<text text-anchor="start" x="136.028" y="-278.4395" font-family="Arial" font-size="14.00" fill="#666666">[datetime]</text>
</g>
<!-- notes_detail&#45;&gt;notes_category -->
<g id="edge1" class="edge">
<title>notes_detail:category_name&#45;&gt;notes_category:category_name</title>
<path fill="none" stroke="#000000" d="M277.0038,-341.4662C337.5073,-334.0903 313.3162,-256.892 326,-188.5395 331.737,-157.6228 348.2346,-69.2741 326,-47.0395 274.774,4.1865 163,25.405 163,-47.0395"/>
<polygon fill="#000000" stroke="#000000" points="276.9836,-341.4673 266.7425,-337.5468 271.9918,-341.7534 267,-342.0395 267,-342.0395 267,-342.0395 271.9918,-341.7534 267.2575,-346.5321 276.9836,-341.4673 276.9836,-341.4673"/>
<text text-anchor="start" x="274.361" y="-352.0395" font-family="Arial" font-size="10.00" fill="#000000">FOREIGN KEY (category_name) REFERENCES notes_category (category_name)</text>
</g>
</g>
</svg>
