<?xml version="1.0" encoding="UTF-8" standalone="no"?>
<!DOCTYPE svg PUBLIC "-//W3C//DTD SVG 1.1//EN"
 "http://www.w3.org/Graphics/SVG/1.1/DTD/svg11.dtd">
<!-- Generated by graphviz version 2.40.1 (20161225.0304)
 -->
<!-- Title: notes_detail Pages: 1 -->
<svg width="878pt" height="562pt"
 viewBox="0.00 0.00 878.00 562.00" xmlns="http://www.w3.org/2000/svg" xmlns:xlink="http://www.w3.org/1999/xlink">
<g id="graph0" class="graph" transform="scale(1 1) rotate(0) translate(4 558)">
<title>notes_detail</title>
<polygon fill="#ffffff" stroke="transparent" points="-4,4 -4,-558 874,-558 874,4 -4,4"/>
<!-- notes_detail -->
<g id="node1" class="node">
<title>notes_detail</title>
<polygon fill="#efefef" stroke="transparent" points="281,-472.5 281,-507.5 489,-507.5 489,-472.5 281,-472.5"/>
<polygon fill="none" stroke="#000000" points="281,-472.5 281,-507.5 489,-507.5 489,-472.5 281,-472.5"/>
<text text-anchor="start" x="287.855" y="-485.3" font-family="Arial Bold" font-size="18.00" fill="#000000">notes_detail</text>
<text text-anchor="start" x="384.8912" y="-485.3" font-family="Arial" font-size="14.00" fill="#000000"> </text>
<text text-anchor="start" x="388.7818" y="-485.3" font-family="Arial" font-size="14.00" fill="#666666">[BASE TABLE]</text>
<polygon fill="none" stroke="#000000" points="281,-442.5 281,-472.5 489,-472.5 489,-442.5 281,-442.5"/>
<text text-anchor="start" x="288" y="-453.9" font-family="Arial" font-size="14.00" fill="#000000">id </text>
<text text-anchor="start" x="302.7798" y="-453.9" font-family="Arial" font-size="14.00" fill="#666666">[int(11)]</text>
<polygon fill="none" stroke="#000000" points="281,-412.5 281,-442.5 489,-442.5 489,-412.5 281,-412.5"/>
<text text-anchor="start" x="288" y="-423.9" font-family="Arial" font-size="14.00" fill="#000000">server_id </text>
<text text-anchor="start" x="349.4488" y="-423.9" font-family="Arial" font-size="14.00" fill="#666666">[bigint(20)]</text>
<polygon fill="none" stroke="#000000" points="281,-382.5 281,-412.5 489,-412.5 489,-382.5 281,-382.5"/>
<text text-anchor="start" x="288" y="-393.9" font-family="Arial" font-size="14.00" fill="#000000">user_id </text>
<text text-anchor="start" x="337.7882" y="-393.9" font-family="Arial" font-size="14.00" fill="#666666">[bigint(20)]</text>
<polygon fill="none" stroke="#000000" points="281,-352.5 281,-382.5 489,-382.5 489,-352.5 281,-352.5"/>
<text text-anchor="start" x="288" y="-363.9" font-family="Arial" font-size="14.00" fill="#000000">category_name </text>
<text text-anchor="start" x="388.3632" y="-363.9" font-family="Arial" font-size="14.00" fill="#666666">[varchar(255)]</text>
<polygon fill="none" stroke="#000000" points="281,-322.5 281,-352.5 489,-352.5 489,-322.5 281,-322.5"/>
<text text-anchor="start" x="288" y="-333.9" font-family="Arial" font-size="14.00" fill="#000000">content </text>
<text text-anchor="start" x="337.8022" y="-333.9" font-family="Arial" font-size="14.00" fill="#666666">[varchar(255)]</text>
<polygon fill="none" stroke="#000000" points="281,-292.5 281,-322.5 489,-322.5 489,-292.5 281,-292.5"/>
<text text-anchor="start" x="288" y="-303.9" font-family="Arial" font-size="14.00" fill="#000000">created_at </text>
<text text-anchor="start" x="358.028" y="-303.9" font-family="Arial" font-size="14.00" fill="#666666">[datetime]</text>
<polygon fill="none" stroke="#000000" stroke-width="3" points="279.5,-291.5 279.5,-509.5 490.5,-509.5 490.5,-291.5 279.5,-291.5"/>
</g>
<!-- notes -->
<g id="node2" class="node">
<title>notes</title>
<polygon fill="#efefef" stroke="transparent" points="158,-132.5 158,-167.5 313,-167.5 313,-132.5 158,-132.5"/>
<polygon fill="none" stroke="#000000" points="158,-132.5 158,-167.5 313,-167.5 313,-132.5 158,-132.5"/>
<text text-anchor="start" x="164.8627" y="-145.3" font-family="Arial Bold" font-size="18.00" fill="#000000">notes</text>
<text text-anchor="start" x="208.8835" y="-145.3" font-family="Arial" font-size="14.00" fill="#000000"> </text>
<text text-anchor="start" x="212.7741" y="-145.3" font-family="Arial" font-size="14.00" fill="#666666">[BASE TABLE]</text>
<polygon fill="none" stroke="#000000" points="158,-102.5 158,-132.5 313,-132.5 313,-102.5 158,-102.5"/>
<text text-anchor="start" x="165" y="-113.9" font-family="Arial" font-size="14.00" fill="#000000">id </text>
<text text-anchor="start" x="179.7798" y="-113.9" font-family="Arial" font-size="14.00" fill="#666666">[int(11)]</text>
<polygon fill="none" stroke="#000000" points="158,-72.5 158,-102.5 313,-102.5 313,-72.5 158,-72.5"/>
<text text-anchor="start" x="165" y="-83.9" font-family="Arial" font-size="14.00" fill="#000000">server_id </text>
<text text-anchor="start" x="226.4488" y="-83.9" font-family="Arial" font-size="14.00" fill="#666666">[bigint(20)]</text>
<polygon fill="none" stroke="#000000" points="158,-42.5 158,-72.5 313,-72.5 313,-42.5 158,-42.5"/>
<text text-anchor="start" x="165" y="-53.9" font-family="Arial" font-size="14.00" fill="#000000">updated_at </text>
<text text-anchor="start" x="238.9326" y="-53.9" font-family="Arial" font-size="14.00" fill="#666666">[datetime]</text>
</g>
<!-- notes_detail&#45;&gt;notes -->
<g id="edge1" class="edge">
<title>notes_detail:server_id&#45;&gt;notes:server_id</title>
<path fill="none" stroke="#000000" d="M270.9735,-426.8736C205.377,-418.0818 253.7713,-318.617 281,-247 288.6077,-226.9902 305.3923,-231.0098 313,-211 332.5064,-159.6942 367.8889,-87.5 313,-87.5"/>
<polygon fill="#000000" stroke="#000000" points="271.0195,-426.8763 280.7194,-431.9912 276.0097,-427.1882 281,-427.5 281,-427.5 281,-427.5 276.0097,-427.1882 281.2806,-423.0088 271.0195,-426.8763 271.0195,-426.8763"/>
<text text-anchor="start" x="7.1085" y="-437.5" font-family="Arial" font-size="10.00" fill="#000000">FOREIGN KEY (server_id) REFERENCES notes (server_id)</text>
</g>
<!-- notes_category -->
<g id="node3" class="node">
<title>notes_category</title>
<polygon fill="#efefef" stroke="transparent" points="417,-117.5 417,-152.5 651,-152.5 651,-117.5 417,-117.5"/>
<polygon fill="none" stroke="#000000" points="417,-117.5 417,-152.5 651,-152.5 651,-117.5 417,-117.5"/>
<text text-anchor="start" x="423.85" y="-130.3" font-family="Arial Bold" font-size="18.00" fill="#000000">notes_category</text>
<text text-anchor="start" x="546.8962" y="-130.3" font-family="Arial" font-size="14.00" fill="#000000"> </text>
<text text-anchor="start" x="550.7868" y="-130.3" font-family="Arial" font-size="14.00" fill="#666666">[BASE TABLE]</text>
<polygon fill="none" stroke="#000000" points="417,-87.5 417,-117.5 651,-117.5 651,-87.5 417,-87.5"/>
<text text-anchor="start" x="424" y="-98.9" font-family="Arial" font-size="14.00" fill="#000000">id </text>
<text text-anchor="start" x="438.7798" y="-98.9" font-family="Arial" font-size="14.00" fill="#666666">[int(11)]</text>
<polygon fill="none" stroke="#000000" points="417,-57.5 417,-87.5 651,-87.5 651,-57.5 417,-57.5"/>
<text text-anchor="start" x="424" y="-68.9" font-family="Arial" font-size="14.00" fill="#000000">category_name </text>
<text text-anchor="start" x="524.3632" y="-68.9" font-family="Arial" font-size="14.00" fill="#666666">[varchar(255)]</text>
</g>
<!-- notes_detail&#45;&gt;notes_category -->
<g id="edge2" class="edge">
<title>notes_detail:category_name&#45;&gt;notes_category:category_name</title>
<path fill="none" stroke="#000000" d="M499.1033,-366.4525C538.5052,-357.3698 511.8704,-291.2265 489,-247 470.9873,-212.1673 435.0127,-230.8327 417,-196 391.7875,-147.2443 362.1111,-72.5 417,-72.5"/>
<polygon fill="#000000" stroke="#000000" points="498.9467,-366.4687 488.5359,-363.024 493.9733,-366.9843 489,-367.5 489,-367.5 489,-367.5 493.9733,-366.9843 489.4641,-371.976 498.9467,-366.4687 498.9467,-366.4687"/>
<text text-anchor="start" x="496.361" y="-377.5" font-family="Arial" font-size="10.00" fill="#000000">FOREIGN KEY (category_name) REFERENCES notes_category (category_name)</text>
</g>
</g>
</svg>
