<?xml version="1.0" encoding="UTF-8" standalone="no"?>
<!DOCTYPE svg PUBLIC "-//W3C//DTD SVG 1.1//EN"
 "http://www.w3.org/Graphics/SVG/1.1/DTD/svg11.dtd">
<!-- Generated by graphviz version 2.40.1 (20161225.0304)
 -->
<!-- Title: reactions Pages: 1 -->
<svg width="573pt" height="562pt"
 viewBox="0.00 0.00 572.50 562.00" xmlns="http://www.w3.org/2000/svg" xmlns:xlink="http://www.w3.org/1999/xlink">
<g id="graph0" class="graph" transform="scale(1 1) rotate(0) translate(4 558)">
<title>reactions</title>
<polygon fill="#ffffff" stroke="transparent" points="-4,4 -4,-558 568.5,-558 568.5,4 -4,4"/>
<!-- reactions -->
<g id="node1" class="node">
<title>reactions</title>
<polygon fill="#efefef" stroke="transparent" points="76.5,-105.5 76.5,-140.5 260.5,-140.5 260.5,-105.5 76.5,-105.5"/>
<polygon fill="none" stroke="#000000" points="76.5,-105.5 76.5,-140.5 260.5,-140.5 260.5,-105.5 76.5,-105.5"/>
<text text-anchor="start" x="83.3664" y="-118.3" font-family="Arial Bold" font-size="18.00" fill="#000000">reactions</text>
<text text-anchor="start" x="156.3798" y="-118.3" font-family="Arial" font-size="14.00" fill="#000000"> </text>
<text text-anchor="start" x="160.2704" y="-118.3" font-family="Arial" font-size="14.00" fill="#666666">[BASE TABLE]</text>
<polygon fill="none" stroke="#000000" points="76.5,-75.5 76.5,-105.5 260.5,-105.5 260.5,-75.5 76.5,-75.5"/>
<text text-anchor="start" x="83.5" y="-86.9" font-family="Arial" font-size="14.00" fill="#000000">id </text>
<text text-anchor="start" x="98.2798" y="-86.9" font-family="Arial" font-size="14.00" fill="#666666">[int(11)]</text>
<polygon fill="none" stroke="#000000" points="76.5,-45.5 76.5,-75.5 260.5,-75.5 260.5,-45.5 76.5,-45.5"/>
<text text-anchor="start" x="83.5" y="-56.9" font-family="Arial" font-size="14.00" fill="#000000">message_id </text>
<text text-anchor="start" x="162.8534" y="-56.9" font-family="Arial" font-size="14.00" fill="#666666">[bigint(20)]</text>
<polygon fill="none" stroke="#000000" stroke-width="3" points="75,-44.5 75,-142.5 262,-142.5 262,-44.5 75,-44.5"/>
</g>
<!-- blocklist_reaction -->
<g id="node2" class="node">
<title>blocklist_reaction</title>
<polygon fill="#efefef" stroke="transparent" points="43.5,-475.5 43.5,-510.5 292.5,-510.5 292.5,-475.5 43.5,-475.5"/>
<polygon fill="none" stroke="#000000" points="43.5,-475.5 43.5,-510.5 292.5,-510.5 292.5,-475.5 43.5,-475.5"/>
<text text-anchor="start" x="50.3647" y="-488.3" font-family="Arial Bold" font-size="18.00" fill="#000000">blocklist_reaction</text>
<text text-anchor="start" x="188.3815" y="-488.3" font-family="Arial" font-size="14.00" fill="#000000"> </text>
<text text-anchor="start" x="192.2721" y="-488.3" font-family="Arial" font-size="14.00" fill="#666666">[BASE TABLE]</text>
<polygon fill="none" stroke="#000000" points="43.5,-445.5 43.5,-475.5 292.5,-475.5 292.5,-445.5 43.5,-445.5"/>
<text text-anchor="start" x="50.5" y="-456.9" font-family="Arial" font-size="14.00" fill="#000000">reaction_id </text>
<text text-anchor="start" x="122.8506" y="-456.9" font-family="Arial" font-size="14.00" fill="#666666">[int(11)]</text>
<polygon fill="none" stroke="#000000" points="43.5,-415.5 43.5,-445.5 292.5,-445.5 292.5,-415.5 43.5,-415.5"/>
<text text-anchor="start" x="50.5" y="-426.9" font-family="Arial" font-size="14.00" fill="#000000">server_id </text>
<text text-anchor="start" x="111.9488" y="-426.9" font-family="Arial" font-size="14.00" fill="#666666">[bigint(20)]</text>
<polygon fill="none" stroke="#000000" points="43.5,-385.5 43.5,-415.5 292.5,-415.5 292.5,-385.5 43.5,-385.5"/>
<text text-anchor="start" x="50.5" y="-396.9" font-family="Arial" font-size="14.00" fill="#000000">channel_id </text>
<text text-anchor="start" x="122.082" y="-396.9" font-family="Arial" font-size="14.00" fill="#666666">[bigint(20)]</text>
<polygon fill="none" stroke="#000000" points="43.5,-355.5 43.5,-385.5 292.5,-385.5 292.5,-355.5 43.5,-355.5"/>
<text text-anchor="start" x="50.5" y="-366.9" font-family="Arial" font-size="14.00" fill="#000000">user_id </text>
<text text-anchor="start" x="100.2882" y="-366.9" font-family="Arial" font-size="14.00" fill="#666666">[bigint(20)]</text>
<polygon fill="none" stroke="#000000" points="43.5,-325.5 43.5,-355.5 292.5,-355.5 292.5,-325.5 43.5,-325.5"/>
<text text-anchor="start" x="50.5" y="-336.9" font-family="Arial" font-size="14.00" fill="#000000">command </text>
<text text-anchor="start" x="115.8422" y="-336.9" font-family="Arial" font-size="14.00" fill="#666666">[varchar(100)]</text>
<polygon fill="none" stroke="#000000" points="43.5,-295.5 43.5,-325.5 292.5,-325.5 292.5,-295.5 43.5,-295.5"/>
<text text-anchor="start" x="50.5" y="-306.9" font-family="Arial" font-size="14.00" fill="#000000">mode </text>
<text text-anchor="start" x="89.399" y="-306.9" font-family="Arial" font-size="14.00" fill="#666666">[int(11)]</text>
<polygon fill="none" stroke="#000000" points="43.5,-265.5 43.5,-295.5 292.5,-295.5 292.5,-265.5 43.5,-265.5"/>
<text text-anchor="start" x="50.5" y="-276.9" font-family="Arial" font-size="14.00" fill="#000000">block_mode </text>
<text text-anchor="start" x="129.8534" y="-276.9" font-family="Arial" font-size="14.00" fill="#666666">[varchar(255)]</text>
</g>
<!-- blocklist_reaction&#45;&gt;reactions -->
<g id="edge1" class="edge">
<title>blocklist_reaction:reaction_id&#45;&gt;reactions:id</title>
<path fill="none" stroke="#000000" d="M302.5459,-459.9894C395.5427,-450.1612 358.4631,-300.8668 292.5,-223 229.5921,-148.7397 139.4079,-261.2603 76.5,-187 48.7777,-154.2749 33.6111,-90.5 76.5,-90.5"/>
<polygon fill="#000000" stroke="#000000" points="302.4871,-459.9923 292.2715,-456.0058 297.4936,-460.2462 292.5,-460.5 292.5,-460.5 292.5,-460.5 297.4936,-460.2462 292.7285,-464.9942 302.4871,-459.9923 302.4871,-459.9923"/>
<text text-anchor="start" x="299.329" y="-470.5" font-family="Arial" font-size="10.00" fill="#000000">FOREIGN KEY (reaction_id) REFERENCES reactions (id)</text>
</g>
</g>
</svg>
