<?xml version="1.0" encoding="UTF-8" standalone="no"?>
<!DOCTYPE svg PUBLIC "-//W3C//DTD SVG 1.1//EN"
 "http://www.w3.org/Graphics/SVG/1.1/DTD/svg11.dtd">
<!-- Generated by graphviz version 2.40.1 (20161225.0304)
 -->
<!-- Title: default_discord Pages: 1 -->
<svg width="3703pt" height="833pt"
 viewBox="0.00 0.00 3703.00 833.00" xmlns="http://www.w3.org/2000/svg" xmlns:xlink="http://www.w3.org/1999/xlink">
<g id="graph0" class="graph" transform="scale(1 1) rotate(0) translate(4 829)">
<title>default_discord</title>
<polygon fill="#ffffff" stroke="transparent" points="-4,4 -4,-829 3699,-829 3699,4 -4,4"/>
<!-- blogs -->
<g id="node1" class="node">
<title>blogs</title>
<polygon fill="#efefef" stroke="transparent" points="786,-102.5 786,-137.5 940,-137.5 940,-102.5 786,-102.5"/>
<polygon fill="none" stroke="#000000" points="786,-102.5 786,-137.5 940,-137.5 940,-102.5 786,-102.5"/>
<text text-anchor="start" x="792.8667" y="-115.3" font-family="Arial Bold" font-size="18.00" fill="#000000">blogs</text>
<text text-anchor="start" x="835.8795" y="-115.3" font-family="Arial" font-size="14.00" fill="#000000"> </text>
<text text-anchor="start" x="839.7701" y="-115.3" font-family="Arial" font-size="14.00" fill="#666666">[BASE TABLE]</text>
<polygon fill="none" stroke="#000000" points="786,-72.5 786,-102.5 940,-102.5 940,-72.5 786,-72.5"/>
<text text-anchor="start" x="793" y="-83.9" font-family="Arial" font-size="14.00" fill="#000000">id </text>
<text text-anchor="start" x="807.7798" y="-83.9" font-family="Arial" font-size="14.00" fill="#666666">[int(11)]</text>
<polygon fill="none" stroke="#000000" points="786,-42.5 786,-72.5 940,-72.5 940,-42.5 786,-42.5"/>
<text text-anchor="start" x="793" y="-53.9" font-family="Arial" font-size="14.00" fill="#000000">created_at </text>
<text text-anchor="start" x="863.028" y="-53.9" font-family="Arial" font-size="14.00" fill="#666666">[datetime]</text>
</g>
<!-- blog_server -->
<g id="node2" class="node">
<title>blog_server</title>
<polygon fill="#efefef" stroke="transparent" points="407,-349.5 407,-384.5 612,-384.5 612,-349.5 407,-349.5"/>
<polygon fill="none" stroke="#000000" points="407,-349.5 407,-384.5 612,-384.5 612,-349.5 407,-349.5"/>
<text text-anchor="start" x="413.8652" y="-362.3" font-family="Arial Bold" font-size="18.00" fill="#000000">blog_server</text>
<text text-anchor="start" x="507.881" y="-362.3" font-family="Arial" font-size="14.00" fill="#000000"> </text>
<text text-anchor="start" x="511.7716" y="-362.3" font-family="Arial" font-size="14.00" fill="#666666">[BASE TABLE]</text>
<polygon fill="none" stroke="#000000" points="407,-319.5 407,-349.5 612,-349.5 612,-319.5 407,-319.5"/>
<text text-anchor="start" x="414" y="-330.9" font-family="Arial" font-size="14.00" fill="#000000">blog_id </text>
<text text-anchor="start" x="463.0168" y="-330.9" font-family="Arial" font-size="14.00" fill="#666666">[int(11)]</text>
<polygon fill="none" stroke="#000000" points="407,-289.5 407,-319.5 612,-319.5 612,-289.5 407,-289.5"/>
<text text-anchor="start" x="414" y="-300.9" font-family="Arial" font-size="14.00" fill="#000000">server_id </text>
<text text-anchor="start" x="475.4488" y="-300.9" font-family="Arial" font-size="14.00" fill="#666666">[bigint(20)]</text>
</g>
<!-- blog_server&#45;&gt;blogs -->
<g id="edge1" class="edge">
<title>blog_server:blog_id&#45;&gt;blogs:id</title>
<path fill="none" stroke="#000000" d="M622.1245,-333.6597C665.9995,-325.6456 638.6447,-262.0245 669,-217 712.3611,-152.6847 708.433,-87.5 786,-87.5"/>
<polygon fill="#000000" stroke="#000000" points="621.9657,-333.6728 611.6277,-330.0154 616.9829,-334.0864 612,-334.5 612,-334.5 612,-334.5 616.9829,-334.0864 612.3723,-338.9846 621.9657,-333.6728 621.9657,-333.6728"/>
<text text-anchor="start" x="619.496" y="-344.5" font-family="Arial" font-size="10.00" fill="#000000">FOREIGN KEY (blog_id) REFERENCES blogs (id)</text>
</g>
<!-- blog_category -->
<g id="node3" class="node">
<title>blog_category</title>
<polygon fill="#efefef" stroke="transparent" points="239,-686.5 239,-721.5 463,-721.5 463,-686.5 239,-686.5"/>
<polygon fill="none" stroke="#000000" points="239,-686.5 239,-721.5 463,-721.5 463,-686.5 239,-686.5"/>
<text text-anchor="start" x="245.854" y="-699.3" font-family="Arial Bold" font-size="18.00" fill="#000000">blog_category</text>
<text text-anchor="start" x="358.8922" y="-699.3" font-family="Arial" font-size="14.00" fill="#000000"> </text>
<text text-anchor="start" x="362.7828" y="-699.3" font-family="Arial" font-size="14.00" fill="#666666">[BASE TABLE]</text>
<polygon fill="none" stroke="#000000" points="239,-656.5 239,-686.5 463,-686.5 463,-656.5 239,-656.5"/>
<text text-anchor="start" x="246" y="-667.9" font-family="Arial" font-size="14.00" fill="#000000">blog_id </text>
<text text-anchor="start" x="295.0168" y="-667.9" font-family="Arial" font-size="14.00" fill="#666666">[int(11)]</text>
<polygon fill="none" stroke="#000000" points="239,-626.5 239,-656.5 463,-656.5 463,-626.5 239,-626.5"/>
<text text-anchor="start" x="246" y="-637.9" font-family="Arial" font-size="14.00" fill="#000000">server_id </text>
<text text-anchor="start" x="307.4488" y="-637.9" font-family="Arial" font-size="14.00" fill="#666666">[bigint(20)]</text>
<polygon fill="none" stroke="#000000" points="239,-596.5 239,-626.5 463,-626.5 463,-596.5 239,-596.5"/>
<text text-anchor="start" x="246" y="-607.9" font-family="Arial" font-size="14.00" fill="#000000">category_id </text>
<text text-anchor="start" x="322.244" y="-607.9" font-family="Arial" font-size="14.00" fill="#666666">[bigint(20)]</text>
</g>
<!-- blog_category&#45;&gt;blogs -->
<g id="edge2" class="edge">
<title>blog_category:blog_id&#45;&gt;blogs:id</title>
<path fill="none" stroke="#000000" d="M228.7339,-670.7585C132.1192,-656.445 125.312,-437.2447 354,-217 426.1867,-147.4785 685.7794,-87.5 786,-87.5"/>
<polygon fill="#000000" stroke="#000000" points="229.026,-670.7795 238.6758,-675.9883 234.013,-671.1398 239,-671.5 239,-671.5 239,-671.5 234.013,-671.1398 239.3242,-667.0117 229.026,-670.7795 229.026,-670.7795"/>
<text text-anchor="start" x="7.496" y="-681.5" font-family="Arial" font-size="10.00" fill="#000000">FOREIGN KEY (blog_id) REFERENCES blogs (id)</text>
</g>
<!-- blog_category&#45;&gt;blog_server -->
<g id="edge3" class="edge">
<title>blog_category:server_id&#45;&gt;blog_server:server_id</title>
<path fill="none" stroke="#000000" d="M473.087,-639.9209C495.6416,-631.1944 470.2216,-588.0295 463,-554 439.4077,-442.828 293.3523,-304.5 407,-304.5"/>
<polygon fill="#000000" stroke="#000000" points="472.8797,-639.9533 462.304,-637.0541 467.9398,-640.7267 463,-641.5 463,-641.5 463,-641.5 467.9398,-640.7267 463.696,-645.9459 472.8797,-639.9533 472.8797,-639.9533"/>
<text text-anchor="start" x="315.721" y="-625.5" font-family="Arial" font-size="10.00" fill="#000000">FOREIGN KEY (server_id) REFERENCES blog_server (server_id)</text>
</g>
<!-- blog_channel -->
<g id="node4" class="node">
<title>blog_channel</title>
<polygon fill="#efefef" stroke="transparent" points="754,-349.5 754,-384.5 972,-384.5 972,-349.5 754,-349.5"/>
<polygon fill="none" stroke="#000000" points="754,-349.5 754,-384.5 972,-384.5 972,-349.5 754,-349.5"/>
<text text-anchor="start" x="760.851" y="-362.3" font-family="Arial Bold" font-size="18.00" fill="#000000">blog_channel</text>
<text text-anchor="start" x="867.8952" y="-362.3" font-family="Arial" font-size="14.00" fill="#000000"> </text>
<text text-anchor="start" x="871.7858" y="-362.3" font-family="Arial" font-size="14.00" fill="#666666">[BASE TABLE]</text>
<polygon fill="none" stroke="#000000" points="754,-319.5 754,-349.5 972,-349.5 972,-319.5 754,-319.5"/>
<text text-anchor="start" x="761" y="-330.9" font-family="Arial" font-size="14.00" fill="#000000">blog_id </text>
<text text-anchor="start" x="810.0168" y="-330.9" font-family="Arial" font-size="14.00" fill="#666666">[int(11)]</text>
<polygon fill="none" stroke="#000000" points="754,-289.5 754,-319.5 972,-319.5 972,-289.5 754,-289.5"/>
<text text-anchor="start" x="761" y="-300.9" font-family="Arial" font-size="14.00" fill="#000000">channel_id </text>
<text text-anchor="start" x="832.582" y="-300.9" font-family="Arial" font-size="14.00" fill="#666666">[bigint(20)]</text>
</g>
<!-- blog_channel&#45;&gt;blogs -->
<g id="edge4" class="edge">
<title>blog_channel:blog_id&#45;&gt;blogs:id</title>
<path fill="none" stroke="#000000" d="M981.6305,-331.554C1023.1256,-303.6862 991.7803,-87.5 940,-87.5"/>
<polygon fill="#000000" stroke="#000000" points="981.5626,-331.5747 970.6836,-330.1968 976.7813,-333.0374 972,-334.5 972,-334.5 972,-334.5 976.7813,-333.0374 973.3164,-338.8032 981.5626,-331.5747 981.5626,-331.5747"/>
<text text-anchor="start" x="979.496" y="-344.5" font-family="Arial" font-size="10.00" fill="#000000">FOREIGN KEY (blog_id) REFERENCES blogs (id)</text>
</g>
<!-- blog_detail -->
<g id="node5" class="node">
<title>blog_detail</title>
<polygon fill="#efefef" stroke="transparent" points="592,-701.5 592,-736.5 790,-736.5 790,-701.5 592,-701.5"/>
<polygon fill="none" stroke="#000000" points="592,-701.5 592,-736.5 790,-736.5 790,-701.5 592,-701.5"/>
<text text-anchor="start" x="598.859" y="-714.3" font-family="Arial Bold" font-size="18.00" fill="#000000">blog_detail</text>
<text text-anchor="start" x="685.8872" y="-714.3" font-family="Arial" font-size="14.00" fill="#000000"> </text>
<text text-anchor="start" x="689.7778" y="-714.3" font-family="Arial" font-size="14.00" fill="#666666">[BASE TABLE]</text>
<polygon fill="none" stroke="#000000" points="592,-671.5 592,-701.5 790,-701.5 790,-671.5 592,-671.5"/>
<text text-anchor="start" x="599" y="-682.9" font-family="Arial" font-size="14.00" fill="#000000">blog_id </text>
<text text-anchor="start" x="648.0168" y="-682.9" font-family="Arial" font-size="14.00" fill="#666666">[int(11)]</text>
<polygon fill="none" stroke="#000000" points="592,-641.5 592,-671.5 790,-671.5 790,-641.5 592,-641.5"/>
<text text-anchor="start" x="599" y="-652.9" font-family="Arial" font-size="14.00" fill="#000000">blog_channel </text>
<text text-anchor="start" x="686.1472" y="-652.9" font-family="Arial" font-size="14.00" fill="#666666">[bigint(20)]</text>
<polygon fill="none" stroke="#000000" points="592,-611.5 592,-641.5 790,-641.5 790,-611.5 592,-611.5"/>
<text text-anchor="start" x="599" y="-622.9" font-family="Arial" font-size="14.00" fill="#000000">total_post </text>
<text text-anchor="start" x="663.582" y="-622.9" font-family="Arial" font-size="14.00" fill="#666666">[int(11)]</text>
<polygon fill="none" stroke="#000000" points="592,-581.5 592,-611.5 790,-611.5 790,-581.5 592,-581.5"/>
<text text-anchor="start" x="599" y="-592.9" font-family="Arial" font-size="14.00" fill="#000000">created_at </text>
<text text-anchor="start" x="669.028" y="-592.9" font-family="Arial" font-size="14.00" fill="#666666">[datetime]</text>
</g>
<!-- blog_detail&#45;&gt;blogs -->
<g id="edge5" class="edge">
<title>blog_detail:blog_id&#45;&gt;blogs:id</title>
<path fill="none" stroke="#000000" d="M581.8772,-685.6911C531.1934,-676.8211 570.2231,-596.8814 592,-539 608.8575,-494.194 642.6063,-501.3111 663,-458 736.913,-301.0273 612.4962,-87.5 786,-87.5"/>
<polygon fill="#000000" stroke="#000000" points="582.0318,-685.7033 591.6415,-690.9857 587.0159,-686.1017 592,-686.5 592,-686.5 592,-686.5 587.0159,-686.1017 592.3585,-682.0143 582.0318,-685.7033 582.0318,-685.7033"/>
<text text-anchor="start" x="360.496" y="-696.5" font-family="Arial" font-size="10.00" fill="#000000">FOREIGN KEY (blog_id) REFERENCES blogs (id)</text>
</g>
<!-- blog_detail&#45;&gt;blog_channel -->
<g id="edge6" class="edge">
<title>blog_detail:blog_channel&#45;&gt;blog_channel:channel_id</title>
<path fill="none" stroke="#000000" d="M800.2337,-655.929C931.1088,-640.1934 600.4253,-304.5 754,-304.5"/>
<polygon fill="#000000" stroke="#000000" points="799.9845,-655.9428 789.7493,-652.007 794.9922,-656.2214 790,-656.5 790,-656.5 790,-656.5 794.9922,-656.2214 790.2507,-660.993 799.9845,-655.9428 799.9845,-655.9428"/>
<text text-anchor="start" x="796.805" y="-666.5" font-family="Arial" font-size="10.00" fill="#000000">FOREIGN KEY (blog_channel) REFERENCES blog_channel (channel_id)</text>
</g>
<!-- blog_user_detail -->
<g id="node6" class="node">
<title>blog_user_detail</title>
<polygon fill="#efefef" stroke="transparent" points="904,-716.5 904,-751.5 1147,-751.5 1147,-716.5 904,-716.5"/>
<polygon fill="none" stroke="#000000" points="904,-716.5 904,-751.5 1147,-751.5 1147,-716.5 904,-716.5"/>
<text text-anchor="start" x="910.8536" y="-729.3" font-family="Arial Bold" font-size="18.00" fill="#000000">blog_user_detail</text>
<text text-anchor="start" x="1042.8926" y="-729.3" font-family="Arial" font-size="14.00" fill="#000000"> </text>
<text text-anchor="start" x="1046.7832" y="-729.3" font-family="Arial" font-size="14.00" fill="#666666">[BASE TABLE]</text>
<polygon fill="none" stroke="#000000" points="904,-686.5 904,-716.5 1147,-716.5 1147,-686.5 904,-686.5"/>
<text text-anchor="start" x="911" y="-697.9" font-family="Arial" font-size="14.00" fill="#000000">blog_id </text>
<text text-anchor="start" x="960.0168" y="-697.9" font-family="Arial" font-size="14.00" fill="#666666">[int(11)]</text>
<polygon fill="none" stroke="#000000" points="904,-656.5 904,-686.5 1147,-686.5 1147,-656.5 904,-656.5"/>
<text text-anchor="start" x="911" y="-667.9" font-family="Arial" font-size="14.00" fill="#000000">channel_id </text>
<text text-anchor="start" x="982.582" y="-667.9" font-family="Arial" font-size="14.00" fill="#666666">[bigint(20)]</text>
<polygon fill="none" stroke="#000000" points="904,-626.5 904,-656.5 1147,-656.5 1147,-626.5 904,-626.5"/>
<text text-anchor="start" x="911" y="-637.9" font-family="Arial" font-size="14.00" fill="#000000">user_id </text>
<text text-anchor="start" x="960.7882" y="-637.9" font-family="Arial" font-size="14.00" fill="#666666">[int(11)]</text>
<polygon fill="none" stroke="#000000" points="904,-596.5 904,-626.5 1147,-626.5 1147,-596.5 904,-596.5"/>
<text text-anchor="start" x="911" y="-607.9" font-family="Arial" font-size="14.00" fill="#000000">total_post </text>
<text text-anchor="start" x="975.582" y="-607.9" font-family="Arial" font-size="14.00" fill="#666666">[int(11)]</text>
<polygon fill="none" stroke="#000000" points="904,-566.5 904,-596.5 1147,-596.5 1147,-566.5 904,-566.5"/>
<text text-anchor="start" x="911" y="-577.9" font-family="Arial" font-size="14.00" fill="#000000">created_at </text>
<text text-anchor="start" x="981.028" y="-577.9" font-family="Arial" font-size="14.00" fill="#666666">[datetime]</text>
</g>
<!-- blog_user_detail&#45;&gt;blogs -->
<g id="edge7" class="edge">
<title>blog_user_detail:blog_id&#45;&gt;blogs:id</title>
<path fill="none" stroke="#000000" d="M1157.296,-700.8117C1221.766,-691.5805 1180.0628,-591.5317 1147,-524 1125.9688,-481.0431 1086.3225,-499.1828 1062,-458 973.8388,-308.7259 1113.3642,-87.5 940,-87.5"/>
<polygon fill="#000000" stroke="#000000" points="1156.9777,-700.8329 1146.6998,-697.01 1151.9889,-701.1664 1147,-701.5 1147,-701.5 1147,-701.5 1151.9889,-701.1664 1147.3002,-705.99 1156.9777,-700.8329 1156.9777,-700.8329"/>
<text text-anchor="start" x="1154.496" y="-711.5" font-family="Arial" font-size="10.00" fill="#000000">FOREIGN KEY (blog_id) REFERENCES blogs (id)</text>
</g>
<!-- blog_user_detail&#45;&gt;blog_channel -->
<g id="edge8" class="edge">
<title>blog_user_detail:channel_id&#45;&gt;blog_channel:channel_id</title>
<path fill="none" stroke="#000000" d="M893.7179,-671.1908C745.8073,-661.867 966.685,-444.6989 972,-428 988.6475,-375.6966 1026.8889,-304.5 972,-304.5"/>
<polygon fill="#000000" stroke="#000000" points="894.0045,-671.1993 903.8647,-675.998 899.0023,-671.3496 904,-671.5 904,-671.5 904,-671.5 899.0023,-671.3496 904.1353,-667.002 894.0045,-671.1993 894.0045,-671.1993"/>
<text text-anchor="start" x="911.364" y="-681.5" font-family="Arial" font-size="10.00" fill="#000000">FOREIGN KEY (channel_id) REFERENCES blog_channel (channel_id)</text>
</g>
<!-- blog_xp -->
<g id="node7" class="node">
<title>blog_xp</title>
<polygon fill="#efefef" stroke="transparent" points="1115,-379.5 1115,-414.5 1314,-414.5 1314,-379.5 1115,-379.5"/>
<polygon fill="none" stroke="#000000" points="1115,-379.5 1115,-414.5 1314,-414.5 1314,-379.5 1115,-379.5"/>
<text text-anchor="start" x="1134.3605" y="-392.3" font-family="Arial Bold" font-size="18.00" fill="#000000">blog_xp</text>
<text text-anchor="start" x="1197.3857" y="-392.3" font-family="Arial" font-size="14.00" fill="#000000"> </text>
<text text-anchor="start" x="1201.2763" y="-392.3" font-family="Arial" font-size="14.00" fill="#666666">[BASE TABLE]</text>
<polygon fill="none" stroke="#000000" points="1115,-349.5 1115,-379.5 1314,-379.5 1314,-349.5 1115,-349.5"/>
<text text-anchor="start" x="1122" y="-360.9" font-family="Arial" font-size="14.00" fill="#000000">blog_id </text>
<text text-anchor="start" x="1171.0168" y="-360.9" font-family="Arial" font-size="14.00" fill="#666666">[int(11)]</text>
<polygon fill="none" stroke="#000000" points="1115,-319.5 1115,-349.5 1314,-349.5 1314,-319.5 1115,-319.5"/>
<text text-anchor="start" x="1122" y="-330.9" font-family="Arial" font-size="14.00" fill="#000000">xp </text>
<text text-anchor="start" x="1140.6732" y="-330.9" font-family="Arial" font-size="14.00" fill="#666666">[bigint(20)]</text>
<polygon fill="none" stroke="#000000" points="1115,-289.5 1115,-319.5 1314,-319.5 1314,-289.5 1115,-289.5"/>
<text text-anchor="start" x="1122" y="-300.9" font-family="Arial" font-size="14.00" fill="#000000">level </text>
<text text-anchor="start" x="1154.669" y="-300.9" font-family="Arial" font-size="14.00" fill="#666666">[int(11)]</text>
<polygon fill="none" stroke="#000000" points="1115,-259.5 1115,-289.5 1314,-289.5 1314,-259.5 1115,-259.5"/>
<text text-anchor="start" x="1121.5288" y="-270.9" font-family="Arial" font-size="14.00" fill="#000000">xp_saved_levelup_xp </text>
<text text-anchor="start" x="1260.0238" y="-270.9" font-family="Arial" font-size="14.00" fill="#666666">[int(11)]</text>
</g>
<!-- blog_xp&#45;&gt;blogs -->
<g id="edge9" class="edge">
<title>blog_xp:blog_id&#45;&gt;blogs:id</title>
<path fill="none" stroke="#000000" d="M1104.8266,-363.7859C1049.5425,-355.336 1092.1437,-273.7222 1057,-217 1016.147,-151.0631 1017.567,-87.5 940,-87.5"/>
<polygon fill="#000000" stroke="#000000" points="1105.0245,-363.7997 1114.6849,-368.989 1110.0123,-364.1499 1115,-364.5 1115,-364.5 1115,-364.5 1110.0123,-364.1499 1115.3151,-360.011 1105.0245,-363.7997 1105.0245,-363.7997"/>
<text text-anchor="start" x="1122.496" y="-374.5" font-family="Arial" font-size="10.00" fill="#000000">FOREIGN KEY (blog_id) REFERENCES blogs (id)</text>
</g>
<!-- blog_user_xp -->
<g id="node8" class="node">
<title>blog_user_xp</title>
<polygon fill="#efefef" stroke="transparent" points="1418,-379.5 1418,-414.5 1637,-414.5 1637,-379.5 1418,-379.5"/>
<polygon fill="none" stroke="#000000" points="1418,-379.5 1418,-414.5 1637,-414.5 1637,-379.5 1418,-379.5"/>
<text text-anchor="start" x="1424.8551" y="-392.3" font-family="Arial Bold" font-size="18.00" fill="#000000">blog_user_xp</text>
<text text-anchor="start" x="1532.8911" y="-392.3" font-family="Arial" font-size="14.00" fill="#000000"> </text>
<text text-anchor="start" x="1536.7817" y="-392.3" font-family="Arial" font-size="14.00" fill="#666666">[BASE TABLE]</text>
<polygon fill="none" stroke="#000000" points="1418,-349.5 1418,-379.5 1637,-379.5 1637,-349.5 1418,-349.5"/>
<text text-anchor="start" x="1425" y="-360.9" font-family="Arial" font-size="14.00" fill="#000000">blog_id </text>
<text text-anchor="start" x="1474.0168" y="-360.9" font-family="Arial" font-size="14.00" fill="#666666">[int(11)]</text>
<polygon fill="none" stroke="#000000" points="1418,-319.5 1418,-349.5 1637,-349.5 1637,-319.5 1418,-319.5"/>
<text text-anchor="start" x="1425" y="-330.9" font-family="Arial" font-size="14.00" fill="#000000">xp </text>
<text text-anchor="start" x="1443.6732" y="-330.9" font-family="Arial" font-size="14.00" fill="#666666">[bigint(20)]</text>
<polygon fill="none" stroke="#000000" points="1418,-289.5 1418,-319.5 1637,-319.5 1637,-289.5 1418,-289.5"/>
<text text-anchor="start" x="1425" y="-300.9" font-family="Arial" font-size="14.00" fill="#000000">level </text>
<text text-anchor="start" x="1457.669" y="-300.9" font-family="Arial" font-size="14.00" fill="#666666">[int(11)]</text>
<polygon fill="none" stroke="#000000" points="1418,-259.5 1418,-289.5 1637,-289.5 1637,-259.5 1418,-259.5"/>
<text text-anchor="start" x="1425" y="-270.9" font-family="Arial" font-size="14.00" fill="#000000">xp_saved_levelup_xp </text>
<text text-anchor="start" x="1563.495" y="-270.9" font-family="Arial" font-size="14.00" fill="#666666">[int(11)]</text>
</g>
<!-- blog_user_xp&#45;&gt;blogs -->
<g id="edge10" class="edge">
<title>blog_user_xp:blog_id&#45;&gt;blogs:id</title>
<path fill="none" stroke="#000000" d="M1407.7571,-363.6322C1355.3296,-353.7743 1412.6937,-262.4036 1365,-217 1293.4906,-148.9242 1038.7315,-87.5 940,-87.5"/>
<polygon fill="#000000" stroke="#000000" points="1408.0357,-363.6557 1417.6201,-368.9839 1413.0178,-364.0779 1418,-364.5 1418,-364.5 1418,-364.5 1413.0178,-364.0779 1418.3799,-360.0161 1408.0357,-363.6557 1408.0357,-363.6557"/>
<text text-anchor="start" x="1246.246" y="-348.5" font-family="Arial" font-size="10.00" fill="#000000">FOREIGN KEY (blog_id) REFERENCES blogs (id)</text>
</g>
<!-- blocklists -->
<g id="node9" class="node">
<title>blocklists</title>
<polygon fill="#efefef" stroke="transparent" points="1741,-349.5 1741,-384.5 1925,-384.5 1925,-349.5 1741,-349.5"/>
<polygon fill="none" stroke="#000000" points="1741,-349.5 1741,-384.5 1925,-384.5 1925,-349.5 1741,-349.5"/>
<text text-anchor="start" x="1747.8745" y="-362.3" font-family="Arial Bold" font-size="18.00" fill="#000000">blocklists</text>
<text text-anchor="start" x="1820.8717" y="-362.3" font-family="Arial" font-size="14.00" fill="#000000"> </text>
<text text-anchor="start" x="1824.7623" y="-362.3" font-family="Arial" font-size="14.00" fill="#666666">[BASE TABLE]</text>
<polygon fill="none" stroke="#000000" points="1741,-319.5 1741,-349.5 1925,-349.5 1925,-319.5 1741,-319.5"/>
<text text-anchor="start" x="1748" y="-330.9" font-family="Arial" font-size="14.00" fill="#000000">id </text>
<text text-anchor="start" x="1762.7798" y="-330.9" font-family="Arial" font-size="14.00" fill="#666666">[int(11)]</text>
<polygon fill="none" stroke="#000000" points="1741,-289.5 1741,-319.5 1925,-319.5 1925,-289.5 1741,-289.5"/>
<text text-anchor="start" x="1748" y="-300.9" font-family="Arial" font-size="14.00" fill="#000000">created_at </text>
<text text-anchor="start" x="1818.028" y="-300.9" font-family="Arial" font-size="14.00" fill="#666666">[datetime]</text>
</g>
<!-- blocklist_server -->
<g id="node10" class="node">
<title>blocklist_server</title>
<polygon fill="#efefef" stroke="transparent" points="2054,-334.5 2054,-369.5 2289,-369.5 2289,-334.5 2054,-334.5"/>
<polygon fill="none" stroke="#000000" points="2054,-334.5 2054,-369.5 2289,-369.5 2289,-334.5 2054,-334.5"/>
<text text-anchor="start" x="2060.873" y="-347.3" font-family="Arial Bold" font-size="18.00" fill="#000000">blocklist_server</text>
<text text-anchor="start" x="2184.8732" y="-347.3" font-family="Arial" font-size="14.00" fill="#000000"> </text>
<text text-anchor="start" x="2188.7638" y="-347.3" font-family="Arial" font-size="14.00" fill="#666666">[BASE TABLE]</text>
<polygon fill="none" stroke="#000000" points="2054,-304.5 2054,-334.5 2289,-334.5 2289,-304.5 2054,-304.5"/>
<text text-anchor="start" x="2061" y="-315.9" font-family="Arial" font-size="14.00" fill="#000000">server_id </text>
<text text-anchor="start" x="2122.4488" y="-315.9" font-family="Arial" font-size="14.00" fill="#666666">[bigint(20)]</text>
</g>
<!-- blocklist_settings -->
<g id="node11" class="node">
<title>blocklist_settings</title>
<polygon fill="#efefef" stroke="transparent" points="2048,-671.5 2048,-706.5 2295,-706.5 2295,-671.5 2048,-671.5"/>
<polygon fill="none" stroke="#000000" points="2048,-671.5 2048,-706.5 2295,-706.5 2295,-671.5 2048,-671.5"/>
<text text-anchor="start" x="2054.8628" y="-684.3" font-family="Arial Bold" font-size="18.00" fill="#000000">blocklist_settings</text>
<text text-anchor="start" x="2190.8834" y="-684.3" font-family="Arial" font-size="14.00" fill="#000000"> </text>
<text text-anchor="start" x="2194.774" y="-684.3" font-family="Arial" font-size="14.00" fill="#666666">[BASE TABLE]</text>
<polygon fill="none" stroke="#000000" points="2048,-641.5 2048,-671.5 2295,-671.5 2295,-641.5 2048,-641.5"/>
<text text-anchor="start" x="2055" y="-652.9" font-family="Arial" font-size="14.00" fill="#000000">server_id </text>
<text text-anchor="start" x="2116.4488" y="-652.9" font-family="Arial" font-size="14.00" fill="#666666">[bigint(20)]</text>
<polygon fill="none" stroke="#000000" points="2048,-611.5 2048,-641.5 2295,-641.5 2295,-611.5 2048,-611.5"/>
<text text-anchor="start" x="2055" y="-622.9" font-family="Arial" font-size="14.00" fill="#000000">mode </text>
<text text-anchor="start" x="2093.899" y="-622.9" font-family="Arial" font-size="14.00" fill="#666666">[varchar(126)]</text>
</g>
<!-- blocklist_settings&#45;&gt;blocklist_server -->
<g id="edge11" class="edge">
<title>blocklist_settings:server_id&#45;&gt;blocklist_server:server_id</title>
<path fill="none" stroke="#000000" d="M2037.8855,-654.9064C2012.9978,-645.7385 2030.2204,-599.0771 2048,-569 2121.1842,-445.197 2258.3158,-536.803 2331.5,-413 2331.5,-413 2172,-304.5 2172,-304.5"/>
<polygon fill="#000000" stroke="#000000" points="2038.1219,-654.9436 2047.2996,-660.9452 2043.0609,-655.7218 2048,-656.5 2048,-656.5 2048,-656.5 2043.0609,-655.7218 2048.7004,-652.0548 2038.1219,-654.9436 2038.1219,-654.9436"/>
<text text-anchor="start" x="2054.892" y="-666.5" font-family="Arial" font-size="10.00" fill="#000000">FOREIGN KEY (server_id) REFERENCES blocklist_server (server_id)</text>
</g>
<!-- blocklist_role -->
<g id="node12" class="node">
<title>blocklist_role</title>
<polygon fill="#efefef" stroke="transparent" points="2399,-671.5 2399,-706.5 2614,-706.5 2614,-671.5 2399,-671.5"/>
<polygon fill="none" stroke="#000000" points="2399,-671.5 2399,-706.5 2614,-706.5 2614,-671.5 2399,-671.5"/>
<text text-anchor="start" x="2405.872" y="-684.3" font-family="Arial Bold" font-size="18.00" fill="#000000">blocklist_role</text>
<text text-anchor="start" x="2509.8742" y="-684.3" font-family="Arial" font-size="14.00" fill="#000000"> </text>
<text text-anchor="start" x="2513.7648" y="-684.3" font-family="Arial" font-size="14.00" fill="#666666">[BASE TABLE]</text>
<polygon fill="none" stroke="#000000" points="2399,-641.5 2399,-671.5 2614,-671.5 2614,-641.5 2399,-641.5"/>
<text text-anchor="start" x="2406" y="-652.9" font-family="Arial" font-size="14.00" fill="#000000">server_id </text>
<text text-anchor="start" x="2467.4488" y="-652.9" font-family="Arial" font-size="14.00" fill="#666666">[bigint(20)]</text>
<polygon fill="none" stroke="#000000" points="2399,-611.5 2399,-641.5 2614,-641.5 2614,-611.5 2399,-611.5"/>
<text text-anchor="start" x="2406" y="-622.9" font-family="Arial" font-size="14.00" fill="#000000">role_id </text>
<text text-anchor="start" x="2451.8948" y="-622.9" font-family="Arial" font-size="14.00" fill="#666666">[bigint(20)]</text>
</g>
<!-- blocklist_role&#45;&gt;blocklist_server -->
<g id="edge12" class="edge">
<title>blocklist_role:server_id&#45;&gt;blocklist_server:server_id</title>
<path fill="none" stroke="#000000" d="M2388.7259,-655.8669C2327.4111,-647.7264 2368.4207,-562.6907 2346,-494 2320.684,-416.4388 2370.5882,-319.5 2289,-319.5"/>
<polygon fill="#000000" stroke="#000000" points="2389.0189,-655.8848 2398.7232,-660.9915 2394.0095,-656.1924 2399,-656.5 2399,-656.5 2399,-656.5 2394.0095,-656.1924 2399.2768,-652.0085 2389.0189,-655.8848 2389.0189,-655.8848"/>
<text text-anchor="start" x="2079.892" y="-640.5" font-family="Arial" font-size="10.00" fill="#000000">FOREIGN KEY (server_id) REFERENCES blocklist_server (server_id)</text>
</g>
<!-- blocklist_user -->
<g id="node13" class="node">
<title>blocklist_user</title>
<polygon fill="#efefef" stroke="transparent" points="1723,-701.5 1723,-736.5 1943,-736.5 1943,-701.5 1723,-701.5"/>
<polygon fill="none" stroke="#000000" points="1723,-701.5 1723,-736.5 1943,-736.5 1943,-701.5 1723,-701.5"/>
<text text-anchor="start" x="1729.8691" y="-714.3" font-family="Arial Bold" font-size="18.00" fill="#000000">blocklist_user</text>
<text text-anchor="start" x="1838.8771" y="-714.3" font-family="Arial" font-size="14.00" fill="#000000"> </text>
<text text-anchor="start" x="1842.7677" y="-714.3" font-family="Arial" font-size="14.00" fill="#666666">[BASE TABLE]</text>
<polygon fill="none" stroke="#000000" points="1723,-671.5 1723,-701.5 1943,-701.5 1943,-671.5 1723,-671.5"/>
<text text-anchor="start" x="1730" y="-682.9" font-family="Arial" font-size="14.00" fill="#000000">block_id </text>
<text text-anchor="start" x="1785.2342" y="-682.9" font-family="Arial" font-size="14.00" fill="#666666">[int(11)]</text>
<polygon fill="none" stroke="#000000" points="1723,-641.5 1723,-671.5 1943,-671.5 1943,-641.5 1723,-641.5"/>
<text text-anchor="start" x="1730" y="-652.9" font-family="Arial" font-size="14.00" fill="#000000">server_id </text>
<text text-anchor="start" x="1791.4488" y="-652.9" font-family="Arial" font-size="14.00" fill="#666666">[bigint(20)]</text>
<polygon fill="none" stroke="#000000" points="1723,-611.5 1723,-641.5 1943,-641.5 1943,-611.5 1723,-611.5"/>
<text text-anchor="start" x="1730" y="-622.9" font-family="Arial" font-size="14.00" fill="#000000">user_id </text>
<text text-anchor="start" x="1779.7882" y="-622.9" font-family="Arial" font-size="14.00" fill="#666666">[bigint(20)]</text>
<polygon fill="none" stroke="#000000" points="1723,-581.5 1723,-611.5 1943,-611.5 1943,-581.5 1723,-581.5"/>
<text text-anchor="start" x="1730" y="-592.9" font-family="Arial" font-size="14.00" fill="#000000">mode </text>
<text text-anchor="start" x="1768.899" y="-592.9" font-family="Arial" font-size="14.00" fill="#666666">[varchar(255)]</text>
</g>
<!-- blocklist_user&#45;&gt;blocklists -->
<g id="edge13" class="edge">
<title>blocklist_user:block_id&#45;&gt;blocklists:id</title>
<path fill="none" stroke="#000000" d="M1952.9756,-684.4328C2019.5855,-655.5853 1999.8059,-334.5 1925,-334.5"/>
<polygon fill="#000000" stroke="#000000" points="1952.792,-684.4708 1942.0869,-682.0936 1947.896,-685.4854 1943,-686.5 1943,-686.5 1943,-686.5 1947.896,-685.4854 1943.9131,-690.9064 1952.792,-684.4708 1952.792,-684.4708"/>
<text text-anchor="start" x="1949.9465" y="-696.5" font-family="Arial" font-size="10.00" fill="#000000">FOREIGN KEY (block_id) REFERENCES blocklists (id)</text>
</g>
<!-- blocklist_user&#45;&gt;blocklist_server -->
<g id="edge14" class="edge">
<title>blocklist_user:server_id&#45;&gt;blocklist_server:server_id</title>
<path fill="none" stroke="#000000" d="M1953.2482,-655.8656C2014.3581,-647.7091 1972.4569,-562.5139 1995,-494 2020.5877,-416.2328 1972.1314,-319.5 2054,-319.5"/>
<polygon fill="#000000" stroke="#000000" points="1952.9809,-655.8821 1942.7219,-652.0086 1947.9904,-656.191 1943,-656.5 1943,-656.5 1943,-656.5 1947.9904,-656.191 1943.2781,-660.9914 1952.9809,-655.8821 1952.9809,-655.8821"/>
<text text-anchor="start" x="1623.892" y="-666.5" font-family="Arial" font-size="10.00" fill="#000000">FOREIGN KEY (server_id) REFERENCES blocklist_server (server_id)</text>
</g>
<!-- notes -->
<g id="node14" class="node">
<title>notes</title>
<polygon fill="#efefef" stroke="transparent" points="2600,-364.5 2600,-399.5 2755,-399.5 2755,-364.5 2600,-364.5"/>
<polygon fill="none" stroke="#000000" points="2600,-364.5 2600,-399.5 2755,-399.5 2755,-364.5 2600,-364.5"/>
<text text-anchor="start" x="2606.8627" y="-377.3" font-family="Arial Bold" font-size="18.00" fill="#000000">notes</text>
<text text-anchor="start" x="2650.8835" y="-377.3" font-family="Arial" font-size="14.00" fill="#000000"> </text>
<text text-anchor="start" x="2654.7741" y="-377.3" font-family="Arial" font-size="14.00" fill="#666666">[BASE TABLE]</text>
<polygon fill="none" stroke="#000000" points="2600,-334.5 2600,-364.5 2755,-364.5 2755,-334.5 2600,-334.5"/>
<text text-anchor="start" x="2607" y="-345.9" font-family="Arial" font-size="14.00" fill="#000000">id </text>
<text text-anchor="start" x="2621.7798" y="-345.9" font-family="Arial" font-size="14.00" fill="#666666">[int(11)]</text>
<polygon fill="none" stroke="#000000" points="2600,-304.5 2600,-334.5 2755,-334.5 2755,-304.5 2600,-304.5"/>
<text text-anchor="start" x="2607" y="-315.9" font-family="Arial" font-size="14.00" fill="#000000">server_id </text>
<text text-anchor="start" x="2668.4488" y="-315.9" font-family="Arial" font-size="14.00" fill="#666666">[bigint(20)]</text>
<polygon fill="none" stroke="#000000" points="2600,-274.5 2600,-304.5 2755,-304.5 2755,-274.5 2600,-274.5"/>
<text text-anchor="start" x="2607" y="-285.9" font-family="Arial" font-size="14.00" fill="#000000">updated_at </text>
<text text-anchor="start" x="2680.9326" y="-285.9" font-family="Arial" font-size="14.00" fill="#666666">[datetime]</text>
</g>
<!-- notes_category -->
<g id="node15" class="node">
<title>notes_category</title>
<polygon fill="#efefef" stroke="transparent" points="2859,-349.5 2859,-384.5 3093,-384.5 3093,-349.5 2859,-349.5"/>
<polygon fill="none" stroke="#000000" points="2859,-349.5 2859,-384.5 3093,-384.5 3093,-349.5 2859,-349.5"/>
<text text-anchor="start" x="2865.85" y="-362.3" font-family="Arial Bold" font-size="18.00" fill="#000000">notes_category</text>
<text text-anchor="start" x="2988.8962" y="-362.3" font-family="Arial" font-size="14.00" fill="#000000"> </text>
<text text-anchor="start" x="2992.7868" y="-362.3" font-family="Arial" font-size="14.00" fill="#666666">[BASE TABLE]</text>
<polygon fill="none" stroke="#000000" points="2859,-319.5 2859,-349.5 3093,-349.5 3093,-319.5 2859,-319.5"/>
<text text-anchor="start" x="2866" y="-330.9" font-family="Arial" font-size="14.00" fill="#000000">id </text>
<text text-anchor="start" x="2880.7798" y="-330.9" font-family="Arial" font-size="14.00" fill="#666666">[int(11)]</text>
<polygon fill="none" stroke="#000000" points="2859,-289.5 2859,-319.5 3093,-319.5 3093,-289.5 2859,-289.5"/>
<text text-anchor="start" x="2866" y="-300.9" font-family="Arial" font-size="14.00" fill="#000000">category_name </text>
<text text-anchor="start" x="2966.3632" y="-300.9" font-family="Arial" font-size="14.00" fill="#666666">[varchar(255)]</text>
</g>
<!-- notes_detail -->
<g id="node16" class="node">
<title>notes_detail</title>
<polygon fill="#efefef" stroke="transparent" points="2718,-731.5 2718,-766.5 2926,-766.5 2926,-731.5 2718,-731.5"/>
<polygon fill="none" stroke="#000000" points="2718,-731.5 2718,-766.5 2926,-766.5 2926,-731.5 2718,-731.5"/>
<text text-anchor="start" x="2724.855" y="-744.3" font-family="Arial Bold" font-size="18.00" fill="#000000">notes_detail</text>
<text text-anchor="start" x="2821.8912" y="-744.3" font-family="Arial" font-size="14.00" fill="#000000"> </text>
<text text-anchor="start" x="2825.7818" y="-744.3" font-family="Arial" font-size="14.00" fill="#666666">[BASE TABLE]</text>
<polygon fill="none" stroke="#000000" points="2718,-701.5 2718,-731.5 2926,-731.5 2926,-701.5 2718,-701.5"/>
<text text-anchor="start" x="2725" y="-712.9" font-family="Arial" font-size="14.00" fill="#000000">id </text>
<text text-anchor="start" x="2739.7798" y="-712.9" font-family="Arial" font-size="14.00" fill="#666666">[int(11)]</text>
<polygon fill="none" stroke="#000000" points="2718,-671.5 2718,-701.5 2926,-701.5 2926,-671.5 2718,-671.5"/>
<text text-anchor="start" x="2725" y="-682.9" font-family="Arial" font-size="14.00" fill="#000000">server_id </text>
<text text-anchor="start" x="2786.4488" y="-682.9" font-family="Arial" font-size="14.00" fill="#666666">[bigint(20)]</text>
<polygon fill="none" stroke="#000000" points="2718,-641.5 2718,-671.5 2926,-671.5 2926,-641.5 2718,-641.5"/>
<text text-anchor="start" x="2725" y="-652.9" font-family="Arial" font-size="14.00" fill="#000000">user_id </text>
<text text-anchor="start" x="2774.7882" y="-652.9" font-family="Arial" font-size="14.00" fill="#666666">[bigint(20)]</text>
<polygon fill="none" stroke="#000000" points="2718,-611.5 2718,-641.5 2926,-641.5 2926,-611.5 2718,-611.5"/>
<text text-anchor="start" x="2725" y="-622.9" font-family="Arial" font-size="14.00" fill="#000000">category_name </text>
<text text-anchor="start" x="2825.3632" y="-622.9" font-family="Arial" font-size="14.00" fill="#666666">[varchar(255)]</text>
<polygon fill="none" stroke="#000000" points="2718,-581.5 2718,-611.5 2926,-611.5 2926,-581.5 2718,-581.5"/>
<text text-anchor="start" x="2725" y="-592.9" font-family="Arial" font-size="14.00" fill="#000000">content </text>
<text text-anchor="start" x="2774.8022" y="-592.9" font-family="Arial" font-size="14.00" fill="#666666">[varchar(255)]</text>
<polygon fill="none" stroke="#000000" points="2718,-551.5 2718,-581.5 2926,-581.5 2926,-551.5 2718,-551.5"/>
<text text-anchor="start" x="2725" y="-562.9" font-family="Arial" font-size="14.00" fill="#000000">created_at </text>
<text text-anchor="start" x="2795.028" y="-562.9" font-family="Arial" font-size="14.00" fill="#666666">[datetime]</text>
</g>
<!-- notes_detail&#45;&gt;notes -->
<g id="edge15" class="edge">
<title>notes_detail:server_id&#45;&gt;notes:server_id</title>
<path fill="none" stroke="#000000" d="M2707.7967,-685.8461C2644.5522,-677.0698 2698.9989,-581.7505 2718,-509 2726.498,-476.4631 2746.502,-475.5369 2755,-443 2768.8707,-389.8926 2809.8889,-319.5 2755,-319.5"/>
<polygon fill="#000000" stroke="#000000" points="2708.0205,-685.8603 2717.7121,-690.9908 2713.0102,-686.1802 2718,-686.5 2718,-686.5 2718,-686.5 2713.0102,-686.1802 2718.2879,-682.0092 2708.0205,-685.8603 2708.0205,-685.8603"/>
<text text-anchor="start" x="2725.1085" y="-696.5" font-family="Arial" font-size="10.00" fill="#000000">FOREIGN KEY (server_id) REFERENCES notes (server_id)</text>
</g>
<!-- notes_detail&#45;&gt;notes_category -->
<g id="edge16" class="edge">
<title>notes_detail:category_name&#45;&gt;notes_category:category_name</title>
<path fill="none" stroke="#000000" d="M2936.2363,-625.4061C2973.1888,-616.4581 2942.3752,-554.4887 2926,-509 2910.1758,-465.042 2874.8242,-471.958 2859,-428 2840.4088,-376.3555 2804.1111,-304.5 2859,-304.5"/>
<polygon fill="#000000" stroke="#000000" points="2935.9434,-625.4373 2925.5218,-622.0255 2930.9717,-625.9686 2926,-626.5 2926,-626.5 2926,-626.5 2930.9717,-625.9686 2926.4782,-630.9745 2935.9434,-625.4373 2935.9434,-625.4373"/>
<text text-anchor="start" x="2933.361" y="-636.5" font-family="Arial" font-size="10.00" fill="#000000">FOREIGN KEY (category_name) REFERENCES notes_category (category_name)</text>
</g>
<!-- reactions -->
<g id="node17" class="node">
<title>reactions</title>
<polygon fill="#efefef" stroke="transparent" points="3207,-349.5 3207,-384.5 3391,-384.5 3391,-349.5 3207,-349.5"/>
<polygon fill="none" stroke="#000000" points="3207,-349.5 3207,-384.5 3391,-384.5 3391,-349.5 3207,-349.5"/>
<text text-anchor="start" x="3213.8664" y="-362.3" font-family="Arial Bold" font-size="18.00" fill="#000000">reactions</text>
<text text-anchor="start" x="3286.8798" y="-362.3" font-family="Arial" font-size="14.00" fill="#000000"> </text>
<text text-anchor="start" x="3290.7704" y="-362.3" font-family="Arial" font-size="14.00" fill="#666666">[BASE TABLE]</text>
<polygon fill="none" stroke="#000000" points="3207,-319.5 3207,-349.5 3391,-349.5 3391,-319.5 3207,-319.5"/>
<text text-anchor="start" x="3214" y="-330.9" font-family="Arial" font-size="14.00" fill="#000000">id </text>
<text text-anchor="start" x="3228.7798" y="-330.9" font-family="Arial" font-size="14.00" fill="#666666">[int(11)]</text>
<polygon fill="none" stroke="#000000" points="3207,-289.5 3207,-319.5 3391,-319.5 3391,-289.5 3207,-289.5"/>
<text text-anchor="start" x="3214" y="-300.9" font-family="Arial" font-size="14.00" fill="#000000">message_id </text>
<text text-anchor="start" x="3293.3534" y="-300.9" font-family="Arial" font-size="14.00" fill="#666666">[bigint(20)]</text>
</g>
<!-- blocklist_reaction -->
<g id="node18" class="node">
<title>blocklist_reaction</title>
<polygon fill="#efefef" stroke="transparent" points="3174,-746.5 3174,-781.5 3423,-781.5 3423,-746.5 3174,-746.5"/>
<polygon fill="none" stroke="#000000" points="3174,-746.5 3174,-781.5 3423,-781.5 3423,-746.5 3174,-746.5"/>
<text text-anchor="start" x="3180.8647" y="-759.3" font-family="Arial Bold" font-size="18.00" fill="#000000">blocklist_reaction</text>
<text text-anchor="start" x="3318.8815" y="-759.3" font-family="Arial" font-size="14.00" fill="#000000"> </text>
<text text-anchor="start" x="3322.7721" y="-759.3" font-family="Arial" font-size="14.00" fill="#666666">[BASE TABLE]</text>
<polygon fill="none" stroke="#000000" points="3174,-716.5 3174,-746.5 3423,-746.5 3423,-716.5 3174,-716.5"/>
<text text-anchor="start" x="3181" y="-727.9" font-family="Arial" font-size="14.00" fill="#000000">reaction_id </text>
<text text-anchor="start" x="3253.3506" y="-727.9" font-family="Arial" font-size="14.00" fill="#666666">[int(11)]</text>
<polygon fill="none" stroke="#000000" points="3174,-686.5 3174,-716.5 3423,-716.5 3423,-686.5 3174,-686.5"/>
<text text-anchor="start" x="3181" y="-697.9" font-family="Arial" font-size="14.00" fill="#000000">server_id </text>
<text text-anchor="start" x="3242.4488" y="-697.9" font-family="Arial" font-size="14.00" fill="#666666">[bigint(20)]</text>
<polygon fill="none" stroke="#000000" points="3174,-656.5 3174,-686.5 3423,-686.5 3423,-656.5 3174,-656.5"/>
<text text-anchor="start" x="3181" y="-667.9" font-family="Arial" font-size="14.00" fill="#000000">channel_id </text>
<text text-anchor="start" x="3252.582" y="-667.9" font-family="Arial" font-size="14.00" fill="#666666">[bigint(20)]</text>
<polygon fill="none" stroke="#000000" points="3174,-626.5 3174,-656.5 3423,-656.5 3423,-626.5 3174,-626.5"/>
<text text-anchor="start" x="3181" y="-637.9" font-family="Arial" font-size="14.00" fill="#000000">user_id </text>
<text text-anchor="start" x="3230.7882" y="-637.9" font-family="Arial" font-size="14.00" fill="#666666">[bigint(20)]</text>
<polygon fill="none" stroke="#000000" points="3174,-596.5 3174,-626.5 3423,-626.5 3423,-596.5 3174,-596.5"/>
<text text-anchor="start" x="3181" y="-607.9" font-family="Arial" font-size="14.00" fill="#000000">command </text>
<text text-anchor="start" x="3246.3422" y="-607.9" font-family="Arial" font-size="14.00" fill="#666666">[varchar(100)]</text>
<polygon fill="none" stroke="#000000" points="3174,-566.5 3174,-596.5 3423,-596.5 3423,-566.5 3174,-566.5"/>
<text text-anchor="start" x="3181" y="-577.9" font-family="Arial" font-size="14.00" fill="#000000">mode </text>
<text text-anchor="start" x="3219.899" y="-577.9" font-family="Arial" font-size="14.00" fill="#666666">[int(11)]</text>
<polygon fill="none" stroke="#000000" points="3174,-536.5 3174,-566.5 3423,-566.5 3423,-536.5 3174,-536.5"/>
<text text-anchor="start" x="3181" y="-547.9" font-family="Arial" font-size="14.00" fill="#000000">block_mode </text>
<text text-anchor="start" x="3260.3534" y="-547.9" font-family="Arial" font-size="14.00" fill="#666666">[varchar(255)]</text>
</g>
<!-- blocklist_reaction&#45;&gt;reactions -->
<g id="edge17" class="edge">
<title>blocklist_reaction:reaction_id&#45;&gt;reactions:id</title>
<path fill="none" stroke="#000000" d="M3433.0285,-731.0032C3525.6938,-721.4376 3483.7087,-576.0294 3423,-494 3363.2843,-413.3124 3266.7157,-508.6876 3207,-428 3182.2791,-394.5973 3165.4444,-334.5 3207,-334.5"/>
<polygon fill="#000000" stroke="#000000" points="3432.9878,-731.0051 3422.7773,-727.0055 3427.9939,-731.2526 3423,-731.5 3423,-731.5 3423,-731.5 3427.9939,-731.2526 3423.2227,-735.9945 3432.9878,-731.0051 3432.9878,-731.0051"/>
<text text-anchor="start" x="3429.829" y="-741.5" font-family="Arial" font-size="10.00" fill="#000000">FOREIGN KEY (reaction_id) REFERENCES reactions (id)</text>
</g>
</g>
</svg>
